<svg width="28" height="28" viewBox="0 0 28 28" fill="none" xmlns="http://www.w3.org/2000/svg">
<circle cx="14" cy="14" r="13.2904" transform="matrix(-1 0 0 1 28 0)" stroke="#FFF" stroke-width="1.41911"/>
<path d="M21.8315 13.7392C21.9426 13.8503 21.9981 14.003 21.9981 14.1974C21.9981 14.3918 21.9356 14.5515 21.8107 14.6765C21.6857 14.8014 21.526 14.8639 21.3316 14.8639L8.29299 14.8639L11.1257 17.7382C11.4589 18.0437 11.4659 18.3562 11.1465 18.6755C10.8271 18.9949 10.5147 18.988 10.2092 18.6547L6.21015 14.6556C6.12684 14.6001 6.07129 14.5307 6.04352 14.4474C6.01575 14.364 6.00187 14.2807 6.00187 14.1974C6.00187 14.1141 6.01575 14.0308 6.04352 13.9475C6.07129 13.8642 6.12684 13.7947 6.21015 13.7392L10.2092 9.74012C10.5147 9.40687 10.8271 9.39992 11.1465 9.7193C11.4659 10.0387 11.4589 10.3511 11.1257 10.6566L8.29299 13.5309L21.3316 13.5309C21.526 13.5309 21.6926 13.6003 21.8315 13.7392Z" fill="#FFF"/>
</svg>
