<svg width="29" height="28" viewBox="0 0 29 28" fill="none" xmlns="http://www.w3.org/2000/svg">
<circle cx="14.973" cy="14" r="13.2904" stroke="white" stroke-width="1.41911"/>
<path d="M7.14148 13.7392C7.0304 13.8503 6.97485 14.003 6.97485 14.1974C6.97485 14.3918 7.03734 14.5515 7.16231 14.6765C7.28728 14.8014 7.44696 14.8639 7.64136 14.8639L20.68 14.8639L17.8473 17.7382C17.514 18.0437 17.5071 18.3562 17.8265 18.6755C18.1458 18.9949 18.4583 18.988 18.7638 18.6547L22.7628 14.6556C22.8461 14.6001 22.9017 14.5307 22.9294 14.4474C22.9572 14.364 22.9711 14.2807 22.9711 14.1974C22.9711 14.1141 22.9572 14.0308 22.9294 13.9475C22.9017 13.8642 22.8461 13.7947 22.7628 13.7392L18.7638 9.74012C18.4583 9.40687 18.1458 9.39992 17.8265 9.7193C17.5071 10.0387 17.514 10.3511 17.8473 10.6566L20.68 13.5309L7.64136 13.5309C7.44696 13.5309 7.28034 13.6003 7.14148 13.7392Z" fill="white"/>
</svg>
