<svg width="1920" height="387" viewBox="0 0 1920 387" fill="none" xmlns="http://www.w3.org/2000/svg">
<g opacity="0.5" clip-path="url(#clip0_185_37)">
<path d="M1998.56 2.62075H81.5322C81.1563 2.62075 80.861 2.25817 80.861 1.7967C80.861 1.33524 81.1563 0.972656 81.5322 0.972656H1998.53C1998.9 0.972656 1999.2 1.33524 1999.2 1.7967C1999.2 2.25817 1998.9 2.62075 1998.56 2.62075Z" fill="#E8E8FF"/>
<path d="M2029.89 9.01528H50.1974C49.8215 9.01528 49.5261 8.6527 49.5261 8.19123C49.5261 7.72977 49.8215 7.36719 50.1974 7.36719H2029.92C2030.29 7.36719 2030.59 7.72977 2030.59 8.19123C2030.56 8.6527 2030.27 9.01528 2029.89 9.01528Z" fill="#E8E8FF"/>
<path d="M2063.37 15.8385H16.7148C16.3389 15.8385 16.0436 15.4759 16.0436 15.0145C16.0436 14.553 16.3389 14.1904 16.7148 14.1904H2063.37C2063.75 14.1904 2064.04 14.553 2064.04 15.0145C2064.04 15.4759 2063.75 15.8385 2063.37 15.8385Z" fill="#E8E8FF"/>
<path d="M2099.19 23.1559H-19.1039C-19.4798 23.1559 -19.7751 22.7933 -19.7751 22.3319C-19.7751 21.8704 -19.4798 21.5078 -19.1039 21.5078H2099.22C2099.59 21.5078 2099.89 21.8704 2099.89 22.3319C2099.89 22.7933 2099.57 23.1559 2099.19 23.1559Z" fill="#E8E8FF"/>
<path d="M2137.61 31.0006H-57.5272C-57.9031 31.0006 -58.1985 30.6381 -58.1985 30.1766C-58.1985 29.7151 -57.9031 29.3525 -57.5272 29.3525H2137.64C2138.02 29.3525 2138.31 29.7151 2138.31 30.1766C2138.31 30.6381 2137.99 31.0006 2137.61 31.0006Z" fill="#E8E8FF"/>
<path d="M2178.94 39.4064H-98.85C-99.2259 39.4064 -99.5212 39.0438 -99.5212 38.5823C-99.5212 38.1209 -99.2259 37.7583 -98.85 37.7583H2178.94C2179.31 37.7583 2179.61 38.1209 2179.61 38.5823C2179.61 39.0438 2179.31 39.4064 2178.94 39.4064Z" fill="#E8E8FF"/>
<path d="M2223.48 48.5036H-143.395C-143.771 48.5036 -144.066 48.141 -144.066 47.6795C-144.066 47.218 -143.771 46.8555 -143.395 46.8555H2223.48C2223.86 46.8555 2224.15 47.218 2224.15 47.6795C2224.15 48.141 2223.86 48.5036 2223.48 48.5036Z" fill="#E8E8FF"/>
<path d="M2271.65 58.3263H-191.565C-191.941 58.3263 -192.236 57.9637 -192.236 57.5023C-192.236 57.0408 -191.941 56.6782 -191.565 56.6782H2271.65C2272.03 56.6782 2272.32 57.0408 2272.32 57.5023C2272.32 57.9637 2272.03 58.3263 2271.65 58.3263Z" fill="#E8E8FF"/>
<path d="M2323.9 69.006H-243.816C-244.192 69.006 -244.487 68.6434 -244.487 68.182C-244.487 67.7205 -244.192 67.3579 -243.816 67.3579H2323.93C2324.31 67.3579 2324.6 67.7205 2324.6 68.182C2324.58 68.6434 2324.28 69.006 2323.9 69.006Z" fill="#E8E8FF"/>
<path d="M2380.8 80.6085H-300.713C-301.089 80.6085 -301.384 80.246 -301.384 79.7845C-301.384 79.323 -301.089 78.9604 -300.713 78.9604H2380.8C2381.18 78.9604 2381.47 79.323 2381.47 79.7845C2381.47 80.246 2381.18 80.6085 2380.8 80.6085Z" fill="#E8E8FF"/>
<path d="M2442.99 93.299H-362.899C-363.275 93.299 -363.57 92.9364 -363.57 92.4749C-363.57 92.0135 -363.275 91.6509 -362.899 91.6509H2442.96C2443.34 91.6509 2443.63 92.0135 2443.63 92.4749C2443.66 92.9034 2443.34 93.299 2442.99 93.299Z" fill="#E8E8FF"/>
<path d="M2511.19 107.209H-431.099C-431.475 107.209 -431.77 106.846 -431.77 106.385C-431.77 105.923 -431.475 105.561 -431.099 105.561H2511.19C2511.56 105.561 2511.86 105.923 2511.86 106.385C2511.86 106.846 2511.56 107.209 2511.19 107.209Z" fill="#E8E8FF"/>
<path d="M2586.37 122.536H-506.281C-506.657 122.536 -506.952 122.174 -506.952 121.712C-506.952 121.251 -506.657 120.888 -506.281 120.888H2586.37C2586.74 120.888 2587.04 121.251 2587.04 121.712C2587.04 122.174 2586.74 122.536 2586.37 122.536Z" fill="#E8E8FF"/>
<path d="M2669.66 139.545H-589.571C-589.947 139.545 -590.242 139.182 -590.242 138.721C-590.242 138.259 -589.947 137.896 -589.571 137.896H2669.66C2670.04 137.896 2670.33 138.259 2670.33 138.721C2670.33 139.149 2670.04 139.545 2669.66 139.545Z" fill="#E8E8FF"/>
<path d="M2762.43 158.465H-682.34C-682.716 158.465 -683.011 158.102 -683.011 157.64C-683.011 157.179 -682.716 156.816 -682.34 156.816H2762.43C2762.8 156.816 2763.1 157.179 2763.1 157.64C2763.1 158.069 2762.8 158.465 2762.43 158.465Z" fill="#E8E8FF"/>
<path d="M2866.39 179.659H-786.306C-786.682 179.659 -786.977 179.296 -786.977 178.835C-786.977 178.373 -786.682 178.011 -786.306 178.011H2866.39C2866.77 178.011 2867.07 178.373 2867.07 178.835C2867.07 179.296 2866.77 179.659 2866.39 179.659Z" fill="#E8E8FF"/>
<path d="M2983.7 203.59H-903.616C-903.992 203.59 -904.287 203.227 -904.287 202.765C-904.287 202.304 -903.992 201.941 -903.616 201.941H2983.73C2984.11 201.941 2984.4 202.304 2984.4 202.765C2984.37 203.227 2984.08 203.59 2983.7 203.59Z" fill="#E8E8FF"/>
<path d="M3117.15 230.816H-1037.06C-1037.44 230.816 -1037.73 230.453 -1037.73 229.992C-1037.73 229.531 -1037.44 229.168 -1037.06 229.168H3117.12C3117.5 229.168 3117.8 229.531 3117.8 229.992C3117.8 230.453 3117.5 230.816 3117.15 230.816Z" fill="#E8E8FF"/>
<path d="M3270.25 262.064H-1190.16C-1190.54 262.064 -1190.84 261.701 -1190.84 261.24C-1190.84 260.778 -1190.54 260.416 -1190.16 260.416H3270.23C3270.6 260.416 3270.9 260.778 3270.9 261.24C3270.9 261.701 3270.6 262.064 3270.25 262.064Z" fill="#E8E8FF"/>
<path d="M3447.71 298.256H-1367.62C-1368 298.256 -1368.29 297.893 -1368.29 297.432C-1368.29 296.97 -1368 296.608 -1367.62 296.608H3447.71C3448.08 296.608 3448.38 296.97 3448.38 297.432C3448.38 297.893 3448.08 298.256 3447.71 298.256Z" fill="#E8E8FF"/>
<path d="M3655.85 340.711H-1575.77C-1576.14 340.711 -1576.44 340.348 -1576.44 339.887C-1576.44 339.425 -1576.14 339.062 -1575.77 339.062H3655.88C3656.26 339.062 3656.55 339.425 3656.55 339.887C3656.52 340.348 3656.23 340.711 3655.85 340.711Z" fill="#E8E8FF"/>
<path d="M-1647.06 392.19C-1647.38 392.19 -1647.65 391.926 -1647.73 391.498C-1647.78 391.036 -1647.54 390.608 -1647.19 390.542L140.439 1.95418C140.815 1.8553 141.164 2.18492 141.218 2.61342C141.272 3.07489 141.03 3.5034 140.681 3.56932L-1646.95 392.19C-1646.98 392.19 -1647.03 392.19 -1647.06 392.19Z" fill="#E8E8FF"/>
<path d="M-1566.85 392.19C-1567.18 392.19 -1567.45 391.926 -1567.53 391.498C-1567.58 391.036 -1567.34 390.608 -1566.99 390.542L167.29 1.95408C167.639 1.85519 168.015 2.15185 168.069 2.61332C168.122 3.07478 167.881 3.50329 167.532 3.56921L-1566.72 392.19C-1566.77 392.19 -1566.8 392.19 -1566.85 392.19Z" fill="#E8E8FF"/>
<path d="M-1486.62 392.19C-1486.95 392.19 -1487.22 391.926 -1487.3 391.531C-1487.38 391.069 -1487.13 390.641 -1486.76 390.575L194.114 1.95408C194.49 1.85519 194.839 2.15185 194.892 2.61332C194.973 3.07478 194.732 3.50329 194.356 3.56921L-1486.52 392.19C-1486.54 392.19 -1486.6 392.19 -1486.62 392.19Z" fill="#E8E8FF"/>
<path d="M-1406.42 392.19C-1406.74 392.19 -1407.01 391.926 -1407.09 391.531C-1407.17 391.069 -1406.93 390.641 -1406.56 390.575L220.964 1.98728C221.313 1.88839 221.689 2.18504 221.743 2.64651C221.823 3.10797 221.582 3.53648 221.206 3.60241L-1406.29 392.19C-1406.34 392.19 -1406.37 392.19 -1406.42 392.19Z" fill="#E8E8FF"/>
<path d="M-1326.22 392.19C-1326.54 392.19 -1326.81 391.926 -1326.86 391.531C-1326.94 391.102 -1326.7 390.641 -1326.33 390.575L247.815 1.98708C248.164 1.92115 248.54 2.18484 248.594 2.6463C248.674 3.07481 248.433 3.53628 248.057 3.6022L-1326.09 392.19C-1326.11 392.19 -1326.17 392.19 -1326.22 392.19Z" fill="#E8E8FF"/>
<path d="M-1245.99 392.19C-1246.31 392.19 -1246.58 391.926 -1246.63 391.531C-1246.72 391.102 -1246.47 390.641 -1246.12 390.542L274.665 1.98711C275.014 1.92119 275.39 2.18488 275.471 2.61338C275.551 3.04189 275.31 3.50335 274.961 3.60224L-1245.86 392.19C-1245.91 392.19 -1245.96 392.19 -1245.99 392.19Z" fill="#E8E8FF"/>
<path d="M-1165.79 392.19C-1166.08 392.19 -1166.38 391.926 -1166.43 391.531C-1166.51 391.102 -1166.27 390.641 -1165.92 390.542L301.516 1.98735C301.865 1.88847 302.241 2.18512 302.322 2.61362C302.402 3.04213 302.161 3.50359 301.812 3.60248L-1165.65 392.19C-1165.68 392.19 -1165.73 392.19 -1165.79 392.19Z" fill="#E8E8FF"/>
<path d="M-1085.58 392.19C-1085.88 392.19 -1086.18 391.926 -1086.23 391.531C-1086.31 391.102 -1086.09 390.641 -1085.72 390.542L328.367 1.98735C328.742 1.88847 329.092 2.18512 329.172 2.61362C329.253 3.04213 329.038 3.50359 328.662 3.60248L-1085.42 392.19C-1085.48 392.19 -1085.53 392.19 -1085.58 392.19Z" fill="#E8E8FF"/>
<path d="M-1005.36 392.19C-1005.65 392.19 -1005.95 391.926 -1006 391.564C-1006.08 391.135 -1005.87 390.674 -1005.49 390.575L355.19 1.98697C355.566 1.88809 355.915 2.15178 355.996 2.61325C356.076 3.04175 355.861 3.50321 355.486 3.6021L-1005.22 392.19C-1005.25 392.19 -1005.3 392.19 -1005.36 392.19Z" fill="#E8E8FF"/>
<path d="M-925.152 392.19C-925.448 392.19 -925.743 391.926 -925.797 391.564C-925.877 391.135 -925.662 390.674 -925.313 390.575L382.041 1.98707C382.417 1.88818 382.766 2.15188 382.847 2.58038C382.927 3.00889 382.713 3.47035 382.363 3.56924L-924.991 392.19C-925.045 392.19 -925.098 392.19 -925.152 392.19Z" fill="#E8E8FF"/>
<path d="M-844.95 392.19C-845.245 392.19 -845.514 391.926 -845.594 391.564C-845.675 391.135 -845.46 390.674 -845.111 390.575L408.892 1.98717C409.241 1.85532 409.617 2.15198 409.697 2.58048C409.778 3.00899 409.563 3.47045 409.214 3.56934L-844.762 392.19C-844.842 392.19 -844.896 392.19 -844.95 392.19Z" fill="#E8E8FF"/>
<path d="M-764.72 392.19C-765.016 392.19 -765.284 391.959 -765.365 391.564C-765.472 391.135 -765.257 390.674 -764.881 390.542L435.742 1.98695C436.118 1.88806 436.467 2.1188 436.574 2.58027C436.682 3.00877 436.467 3.47023 436.091 3.60208L-764.559 392.19C-764.613 392.19 -764.667 392.19 -764.72 392.19Z" fill="#E8E8FF"/>
<path d="M-684.518 392.19C-684.813 392.19 -685.081 391.959 -685.162 391.597C-685.269 391.168 -685.055 390.707 -684.706 390.575L462.566 1.98707C462.915 1.88819 463.291 2.11891 463.398 2.54742C463.506 2.97592 463.291 3.43739 462.942 3.56924L-684.33 392.157C-684.383 392.19 -684.464 392.19 -684.518 392.19Z" fill="#E8E8FF"/>
<path d="M-604.315 392.19C-604.61 392.19 -604.879 391.959 -604.96 391.597C-605.067 391.168 -604.852 390.707 -604.503 390.575L489.416 1.98724C489.765 1.85539 490.141 2.11908 490.249 2.54759C490.356 2.97609 490.141 3.43756 489.792 3.56941L-604.127 392.157C-604.181 392.19 -604.235 392.19 -604.315 392.19Z" fill="#E8E8FF"/>
<path d="M-524.086 392.19C-524.381 392.19 -524.65 391.959 -524.73 391.596C-524.838 391.168 -524.65 390.706 -524.274 390.575L516.267 1.98699C516.616 1.85514 516.992 2.08587 517.099 2.54733C517.206 2.97584 517.018 3.43731 516.643 3.56916L-523.898 392.157C-523.951 392.19 -524.032 392.19 -524.086 392.19Z" fill="#E8E8FF"/>
<path d="M-443.883 392.19C-444.178 392.19 -444.42 391.959 -444.527 391.63C-444.635 391.201 -444.447 390.74 -444.098 390.608L543.091 1.98721C543.44 1.85536 543.816 2.0861 543.923 2.5146C544.03 2.94311 543.843 3.40456 543.494 3.53641L-443.668 392.157C-443.749 392.19 -443.802 392.19 -443.883 392.19Z" fill="#E8E8FF"/>
<path d="M-363.68 392.19C-363.949 392.19 -364.217 391.959 -364.325 391.629C-364.432 391.201 -364.244 390.739 -363.895 390.574L569.941 1.98662C570.29 1.82181 570.666 2.0855 570.8 2.51401C570.908 2.94251 570.72 3.40398 570.371 3.56879L-363.465 392.157C-363.519 392.19 -363.6 392.19 -363.68 392.19Z" fill="#E8E8FF"/>
<path d="M-283.451 392.19C-283.719 392.19 -283.988 391.992 -284.095 391.662C-284.229 391.234 -284.042 390.772 -283.692 390.608L596.792 2.01987C597.141 1.88803 597.517 2.0858 597.651 2.51431C597.785 2.94281 597.597 3.40428 597.248 3.56909L-283.236 392.157C-283.29 392.19 -283.37 392.19 -283.451 392.19Z" fill="#E8E8FF"/>
<path d="M-203.248 392.19C-203.516 392.19 -203.785 391.992 -203.866 391.663C-204 391.234 -203.812 390.773 -203.49 390.608L623.616 2.02012C623.965 1.85531 624.34 2.08604 624.475 2.48158C624.609 2.91008 624.421 3.37155 624.099 3.53636L-203.006 392.157C-203.087 392.19 -203.167 392.19 -203.248 392.19Z" fill="#E8E8FF"/>
<path d="M-123.018 392.19C-123.287 392.19 -123.529 391.992 -123.636 391.663C-123.77 391.234 -123.609 390.773 -123.26 390.575L650.466 2.02024C650.815 1.85543 651.191 2.0532 651.352 2.4817C651.486 2.91021 651.326 3.37168 650.976 3.56945L-122.777 392.124C-122.857 392.19 -122.938 392.19 -123.018 392.19Z" fill="#E8E8FF"/>
<path d="M-42.8157 392.19C-43.0842 392.19 -43.326 391.992 -43.4334 391.695C-43.5945 391.267 -43.4334 390.805 -43.0843 390.608L677.29 2.0199C677.639 1.8551 678.015 2.01991 678.176 2.44841C678.337 2.87692 678.176 3.33838 677.827 3.53615L-42.5473 392.124C-42.6278 392.19 -42.7352 392.19 -42.8157 392.19Z" fill="#E8E8FF"/>
<path d="M37.3868 392.19C37.1452 392.19 36.9036 392.025 36.7693 391.728C36.6082 391.3 36.7424 390.838 37.0915 390.641L704.114 2.02005C704.436 1.82227 704.839 1.98708 705 2.41558C705.161 2.84409 705.026 3.30556 704.677 3.50333L37.6821 392.124C37.5747 392.19 37.4942 392.19 37.3868 392.19Z" fill="#E8E8FF"/>
<path d="M117.616 392.19C117.375 392.19 117.133 392.025 117.026 391.728C116.864 391.333 116.972 390.839 117.321 390.608L730.964 2.05304C731.286 1.85527 731.689 2.02008 731.877 2.41562C732.038 2.81117 731.931 3.30559 731.582 3.53633L117.912 392.124C117.804 392.157 117.697 392.19 117.616 392.19Z" fill="#E8E8FF"/>
<path d="M197.819 392.19C197.577 392.19 197.362 392.025 197.228 391.761C197.04 391.366 197.148 390.871 197.47 390.641L757.761 2.05299C758.083 1.82226 758.486 1.9541 758.674 2.34965C758.862 2.74519 758.754 3.23962 758.432 3.47035L198.141 392.091C198.034 392.157 197.926 392.19 197.819 392.19Z" fill="#E8E8FF"/>
<path d="M278.022 392.19C277.807 392.19 277.592 392.058 277.458 391.794C277.27 391.399 277.35 390.904 277.673 390.674L784.611 2.08597C784.934 1.85523 785.336 1.95411 785.524 2.34966C785.712 2.7452 785.632 3.23963 785.31 3.47036L278.371 392.058C278.263 392.157 278.156 392.19 278.022 392.19Z" fill="#E8E8FF"/>
<path d="M358.251 392.19C358.036 392.19 357.822 392.058 357.687 391.827C357.472 391.465 357.553 390.937 357.848 390.673L811.435 2.11871C811.731 1.85501 812.16 1.9539 812.375 2.31648C812.59 2.67906 812.509 3.20645 812.214 3.47014L358.627 392.058C358.52 392.157 358.385 392.19 358.251 392.19Z" fill="#E8E8FF"/>
<path d="M438.454 392.19C438.266 392.19 438.051 392.091 437.917 391.893C437.675 391.531 437.729 391.003 438.025 390.74L838.232 2.15201C838.528 1.88831 838.957 1.92128 839.172 2.28386C839.414 2.64644 839.36 3.17382 839.065 3.43752L438.857 392.025C438.75 392.157 438.588 392.19 438.454 392.19Z" fill="#E8E8FF"/>
<path d="M518.657 392.19C518.469 392.19 518.281 392.091 518.173 391.926C517.932 391.596 517.932 391.069 518.227 390.772L865.083 2.1846C865.351 1.88794 865.781 1.88794 866.023 2.25052C866.264 2.58014 866.264 3.10754 865.969 3.4042L519.113 391.992C518.979 392.124 518.818 392.19 518.657 392.19Z" fill="#E8E8FF"/>
<path d="M598.886 392.19C598.725 392.19 598.564 392.124 598.429 391.959C598.161 391.663 598.134 391.135 598.403 390.806L891.879 2.21793C892.121 1.88831 892.551 1.85534 892.819 2.18496C893.088 2.48162 893.115 3.00901 892.846 3.33863L599.369 391.926C599.235 392.124 599.047 392.19 598.886 392.19Z" fill="#E8E8FF"/>
<path d="M679.089 392.19C678.955 392.19 678.793 392.124 678.686 392.025C678.391 391.761 678.337 391.234 678.552 390.871L918.677 2.2837C918.891 1.92112 919.321 1.85519 919.616 2.11888C919.912 2.38258 919.965 2.90998 919.75 3.27256L679.626 391.86C679.492 392.091 679.277 392.19 679.089 392.19Z" fill="#E8E8FF"/>
<path d="M759.291 392.19C759.184 392.19 759.05 392.157 758.942 392.058C758.62 391.827 758.513 391.333 758.701 390.937L945.473 2.34965C945.661 1.9541 946.064 1.82226 946.386 2.05299C946.708 2.28372 946.816 2.77815 946.628 3.17369L759.855 391.761C759.748 392.058 759.533 392.19 759.291 392.19Z" fill="#E8E8FF"/>
<path d="M839.521 392.19C839.441 392.19 839.333 392.157 839.252 392.124C838.903 391.959 838.742 391.465 838.903 391.036L972.297 2.44834C972.431 2.01984 972.834 1.82206 973.183 2.01983C973.532 2.18464 973.693 2.67908 973.532 3.10758L840.139 391.695C840.031 392.025 839.763 392.19 839.521 392.19Z" fill="#E8E8FF"/>
<path d="M919.724 392.19C919.67 392.19 919.616 392.19 919.562 392.157C919.213 392.058 918.998 391.597 919.079 391.168L999.121 2.58048C999.201 2.15198 999.577 1.85532 999.926 1.98717C1000.28 2.08606 1000.49 2.54752 1000.41 2.97602L920.368 391.564C920.287 391.959 920.019 392.19 919.724 392.19Z" fill="#E8E8FF"/>
<path d="M999.926 392.19C999.899 392.19 999.899 392.19 999.873 392.19C999.497 392.157 999.228 391.761 999.255 391.3L1025.94 2.71217C1025.97 2.25071 1026.27 1.88813 1026.67 1.95405C1027.05 1.98701 1027.31 2.38256 1027.29 2.84403L1000.6 391.432C1000.57 391.86 1000.28 392.19 999.926 392.19Z" fill="#E8E8FF"/>
<path d="M1080.16 392.19C1079.81 392.19 1079.51 391.86 1079.48 391.432L1052.79 2.84403C1052.77 2.38256 1053.04 1.98701 1053.41 1.95405C1053.84 1.88813 1054.11 2.25071 1054.14 2.71217L1080.83 391.3C1080.85 391.761 1080.58 392.157 1080.21 392.19C1080.18 392.19 1080.16 392.19 1080.16 392.19Z" fill="#E8E8FF"/>
<path d="M1160.36 392.19C1160.06 392.19 1159.79 391.926 1159.71 391.564L1079.67 2.97602C1079.59 2.54752 1079.81 2.08606 1080.16 1.98717C1080.5 1.85532 1080.88 2.15198 1080.96 2.58048L1161 391.168C1161.08 391.597 1160.87 392.058 1160.52 392.157C1160.47 392.19 1160.41 392.19 1160.36 392.19Z" fill="#E8E8FF"/>
<path d="M1240.56 392.19C1240.29 392.19 1240.05 391.992 1239.94 391.696L1106.55 3.10795C1106.42 2.67944 1106.58 2.21797 1106.9 2.0202C1107.25 1.85539 1107.62 2.05317 1107.79 2.44871L1241.18 391.036C1241.31 391.465 1241.15 391.926 1240.83 392.124C1240.75 392.19 1240.67 392.19 1240.56 392.19Z" fill="#E8E8FF"/>
<path d="M1320.79 392.19C1320.58 392.19 1320.33 392.058 1320.23 391.795L1133.46 3.2069C1133.27 2.81135 1133.37 2.31692 1133.7 2.08619C1134.02 1.85546 1134.42 1.98731 1134.61 2.38285L1321.38 390.971C1321.57 391.366 1321.46 391.861 1321.14 392.091C1321.01 392.157 1320.9 392.19 1320.79 392.19Z" fill="#E8E8FF"/>
<path d="M1401.79 392.161C1401.58 392.161 1401.39 392.062 1401.26 391.831L1161.13 3.24326C1160.92 2.88068 1160.97 2.35328 1161.26 2.08959C1161.56 1.82589 1161.99 1.89183 1162.2 2.25441L1402.33 390.842C1402.54 391.205 1402.49 391.732 1402.19 391.996C1402.09 392.128 1401.93 392.161 1401.79 392.161Z" fill="#E8E8FF"/>
<path d="M1481.2 392.19C1481.01 392.19 1480.85 392.091 1480.71 391.926L1187.24 3.33839C1186.99 3.00878 1186.99 2.48138 1187.26 2.18472C1187.53 1.88806 1187.96 1.92103 1188.2 2.21769L1481.68 390.805C1481.92 391.135 1481.92 391.662 1481.65 391.959C1481.54 392.124 1481.36 392.19 1481.2 392.19Z" fill="#E8E8FF"/>
<path d="M1561.43 392.19C1561.26 392.19 1561.1 392.124 1560.97 391.959L1214.11 3.37167C1213.84 3.07501 1213.82 2.54763 1214.06 2.21801C1214.3 1.88839 1214.73 1.85543 1215 2.15208L1561.85 390.74C1562.12 391.036 1562.15 391.564 1561.91 391.893C1561.77 392.124 1561.61 392.19 1561.43 392.19Z" fill="#E8E8FF"/>
<path d="M1641.63 392.19C1641.49 392.19 1641.33 392.124 1641.2 392.025L1240.99 3.43718C1240.7 3.14052 1240.64 2.6461 1240.88 2.28352C1241.13 1.92094 1241.55 1.85501 1241.82 2.15167L1642.03 390.739C1642.33 391.036 1642.38 391.53 1642.14 391.893C1642.03 392.091 1641.82 392.19 1641.63 392.19Z" fill="#E8E8FF"/>
<path d="M1721.83 392.19C1721.7 392.19 1721.56 392.157 1721.46 392.058L1267.9 3.47014C1267.6 3.20645 1267.52 2.67906 1267.73 2.31648C1267.95 1.9539 1268.38 1.85501 1268.67 2.11871L1722.23 390.706C1722.53 390.97 1722.61 391.497 1722.39 391.86C1722.26 392.091 1722.05 392.19 1721.83 392.19Z" fill="#E8E8FF"/>
<path d="M1802.06 392.19C1801.93 392.19 1801.82 392.157 1801.71 392.058L1294.77 3.47036C1294.45 3.23963 1294.37 2.71224 1294.56 2.34966C1294.75 1.95411 1295.18 1.85523 1295.47 2.08597L1802.41 390.674C1802.73 390.904 1802.81 391.432 1802.62 391.794C1802.49 392.058 1802.28 392.19 1802.06 392.19Z" fill="#E8E8FF"/>
<path d="M1882.26 392.19C1882.16 392.19 1882.05 392.157 1881.94 392.091L1321.65 3.50355C1321.33 3.27282 1321.22 2.77839 1321.41 2.38285C1321.6 1.98731 1322 1.85546 1322.32 2.08619L1882.61 390.674C1882.93 390.905 1883.04 391.399 1882.85 391.795C1882.72 392.058 1882.51 392.19 1882.26 392.19Z" fill="#E8E8FF"/>
<path d="M1962.47 392.19C1962.36 392.19 1962.25 392.157 1962.17 392.091L1348.53 3.50312C1348.21 3.30535 1348.07 2.81092 1348.23 2.38242C1348.39 1.98688 1348.82 1.82207 1349.15 2.01984L1962.79 390.608C1963.11 390.805 1963.24 391.3 1963.08 391.728C1962.95 392.025 1962.73 392.19 1962.47 392.19Z" fill="#E8E8FF"/>
<path d="M2042.7 392.19C2042.59 392.19 2042.51 392.157 2042.4 392.124L1375.38 3.53646C1375.06 3.33869 1374.89 2.84427 1375.06 2.44872C1375.22 2.05318 1375.62 1.8554 1375.94 2.05317L2042.96 390.641C2043.29 390.839 2043.45 391.333 2043.29 391.729C2043.18 392.025 2042.94 392.19 2042.7 392.19Z" fill="#E8E8FF"/>
<path d="M2122.9 392.19C2122.82 392.19 2122.71 392.157 2122.63 392.124L1402.26 3.53615C1401.91 3.33838 1401.77 2.87692 1401.91 2.44841C1402.07 2.01991 1402.44 1.8551 1402.79 2.0199L2123.17 390.608C2123.52 390.805 2123.65 391.267 2123.52 391.695C2123.41 392.025 2123.17 392.19 2122.9 392.19Z" fill="#E8E8FF"/>
<path d="M2203.13 392.19C2203.05 392.19 2202.97 392.157 2202.89 392.124L1429.13 3.53624C1428.78 3.37143 1428.62 2.87701 1428.76 2.4485C1428.89 2.02 1429.29 1.82223 1429.64 1.98704L2203.4 390.575C2203.75 390.74 2203.91 391.234 2203.77 391.662C2203.64 391.992 2203.37 392.19 2203.13 392.19Z" fill="#E8E8FF"/>
<path d="M2283.33 392.19C2283.25 392.19 2283.17 392.19 2283.09 392.124L1455.98 3.53608C1455.63 3.37127 1455.47 2.90981 1455.61 2.4813C1455.74 2.0528 1456.12 1.82207 1456.47 2.01984L2283.57 390.608C2283.92 390.772 2284.08 391.234 2283.95 391.662C2283.84 391.992 2283.6 392.19 2283.33 392.19Z" fill="#E8E8FF"/>
<path d="M2363.53 392.19C2363.45 392.19 2363.37 392.19 2363.32 392.157L1482.86 3.56909C1482.51 3.40428 1482.32 2.94281 1482.46 2.51431C1482.59 2.0858 1482.97 1.88803 1483.32 2.01987L2363.77 390.608C2364.12 390.772 2364.31 391.234 2364.18 391.662C2364.07 391.992 2363.8 392.19 2363.53 392.19Z" fill="#E8E8FF"/>
<path d="M2443.76 392.19C2443.68 392.19 2443.63 392.19 2443.55 392.157L1509.71 3.56938C1509.36 3.43753 1509.17 2.94311 1509.28 2.5146C1509.39 2.0861 1509.79 1.85536 1510.14 1.98721L2443.98 390.575C2444.33 390.707 2444.51 391.201 2444.41 391.63C2444.3 391.992 2444.03 392.19 2443.76 392.19Z" fill="#E8E8FF"/>
<path d="M2523.97 392.19C2523.88 392.19 2523.83 392.19 2523.75 392.157L1536.56 3.56914C1536.21 3.43729 1536.02 2.97582 1536.13 2.54732C1536.24 2.11881 1536.62 1.88808 1536.96 2.01993L2524.15 390.608C2524.5 390.739 2524.69 391.201 2524.58 391.629C2524.5 391.992 2524.23 392.19 2523.97 392.19Z" fill="#E8E8FF"/>
<path d="M2604.17 392.19C2604.11 392.19 2604.03 392.19 2603.98 392.157L1563.44 3.56924C1563.09 3.43739 1562.88 2.97592 1562.98 2.54742C1563.09 2.11891 1563.47 1.88819 1563.82 1.98707L2604.36 390.575C2604.71 390.707 2604.92 391.168 2604.81 391.597C2604.73 391.959 2604.46 392.19 2604.17 392.19Z" fill="#E8E8FF"/>
<path d="M2684.4 392.19C2684.34 392.19 2684.26 392.19 2684.21 392.157L1590.29 3.56941C1589.94 3.43756 1589.73 2.97609 1589.83 2.54759C1589.94 2.11908 1590.29 1.85539 1590.67 1.98724L2684.58 390.575C2684.93 390.707 2685.15 391.168 2685.04 391.597C2684.93 391.959 2684.67 392.19 2684.4 392.19Z" fill="#E8E8FF"/>
<path d="M2764.6 392.19C2764.55 392.19 2764.49 392.19 2764.41 392.157L1617.14 3.56941C1616.79 3.43756 1616.58 3.00905 1616.68 2.54759C1616.79 2.11908 1617.14 1.85539 1617.52 1.98724L2764.79 390.575C2765.14 390.707 2765.35 391.135 2765.24 391.597C2765.16 391.959 2764.9 392.19 2764.6 392.19Z" fill="#E8E8FF"/>
<path d="M2844.8 392.19C2844.75 392.19 2844.7 392.19 2844.64 392.157L1644.02 3.569C1643.67 3.43715 1643.45 3.00865 1643.53 2.54718C1643.64 2.11867 1643.99 1.85498 1644.37 1.95386L2844.99 390.542C2845.34 390.673 2845.55 391.102 2845.47 391.563C2845.37 391.959 2845.1 392.19 2844.8 392.19Z" fill="#E8E8FF"/>
<path d="M2925.03 392.19C2924.98 392.19 2924.92 392.19 2924.87 392.157L1670.87 3.56934C1670.52 3.47045 1670.31 3.00899 1670.39 2.58048C1670.47 2.15198 1670.84 1.85532 1671.19 1.98717L2925.19 390.575C2925.54 390.674 2925.76 391.135 2925.68 391.564C2925.6 391.959 2925.33 392.19 2925.03 392.19Z" fill="#E8E8FF"/>
<path d="M3005.23 392.19C3005.18 392.19 3005.13 392.19 3005.07 392.157L1697.72 3.56934C1697.37 3.47045 1697.13 3.00899 1697.24 2.58048C1697.32 2.15198 1697.69 1.85532 1698.04 1.98717L3005.4 390.575C3005.74 390.674 3005.99 391.135 3005.88 391.564C3005.8 391.959 3005.53 392.19 3005.23 392.19Z" fill="#E8E8FF"/>
<path d="M3085.44 392.19C3085.38 392.19 3085.33 392.19 3085.28 392.157L1724.57 3.56929C1724.22 3.4704 1723.98 3.00894 1724.06 2.58043C1724.14 2.15193 1724.52 1.85526 1724.87 1.95415L3085.57 390.542C3085.92 390.641 3086.16 391.102 3086.08 391.531C3086.03 391.926 3085.76 392.19 3085.44 392.19Z" fill="#E8E8FF"/>
<path d="M3165.67 392.19C3165.61 392.19 3165.56 392.19 3165.53 392.157L1751.45 3.56929C1751.1 3.4704 1750.86 3.0419 1750.94 2.58043C1751.02 2.15193 1751.37 1.85526 1751.74 1.95415L3165.83 390.542C3166.18 390.641 3166.42 391.069 3166.34 391.531C3166.23 391.926 3165.96 392.19 3165.67 392.19Z" fill="#E8E8FF"/>
<path d="M3245.87 392.19C3245.82 392.19 3245.76 392.19 3245.74 392.157L1778.3 3.56891C1777.95 3.47002 1777.71 3.04152 1777.79 2.58005C1777.87 2.11859 1778.24 1.85488 1778.59 1.95377L3246.03 390.541C3246.38 390.64 3246.62 391.069 3246.54 391.53C3246.46 391.926 3246.17 392.19 3245.87 392.19Z" fill="#E8E8FF"/>
<path d="M3326.07 392.19C3326.02 392.19 3325.99 392.19 3325.94 392.19L1805.15 3.60248C1804.77 3.50359 1804.56 3.07509 1804.64 2.61362C1804.72 2.18512 1805.07 1.88847 1805.44 1.98735L3326.23 390.575C3326.61 390.674 3326.82 391.102 3326.74 391.564C3326.66 391.926 3326.39 392.19 3326.07 392.19Z" fill="#E8E8FF"/>
<path d="M3406.3 392.19C3406.25 392.19 3406.22 392.19 3406.17 392.19L1832 3.60232C1831.62 3.50344 1831.41 3.07493 1831.46 2.64643C1831.54 2.21792 1831.86 1.92127 1832.24 1.9872L3406.41 390.575C3406.79 390.674 3407 391.102 3406.95 391.531C3406.89 391.926 3406.6 392.19 3406.3 392.19Z" fill="#E8E8FF"/>
<path d="M3486.5 392.19C3486.45 392.19 3486.42 392.19 3486.37 392.19L1858.85 3.60202C1858.47 3.50314 1858.26 3.07463 1858.31 2.64612C1858.39 2.21762 1858.72 1.88801 1859.09 1.9869L3486.61 390.575C3486.99 390.673 3487.2 391.102 3487.15 391.531C3487.1 391.926 3486.83 392.19 3486.5 392.19Z" fill="#E8E8FF"/>
<path d="M3566.71 392.19C3566.68 392.19 3566.63 392.19 3566.57 392.19L1885.7 3.60202C1885.32 3.50314 1885.08 3.07463 1885.16 2.64612C1885.24 2.21762 1885.57 1.88801 1885.94 1.9869L3566.82 390.575C3567.19 390.673 3567.43 391.102 3567.35 391.531C3567.33 391.926 3567.03 392.19 3566.71 392.19Z" fill="#E8E8FF"/>
<path d="M3646.94 392.19C3646.91 392.19 3646.86 392.19 3646.83 392.19L1912.58 3.60241C1912.2 3.50352 1911.96 3.07501 1912.04 2.64651C1912.12 2.18504 1912.44 1.88839 1912.82 1.98728L3647.07 390.575C3647.45 390.674 3647.69 391.102 3647.61 391.531C3647.53 391.926 3647.26 392.19 3646.94 392.19Z" fill="#E8E8FF"/>
</g>
<defs>
<clipPath id="clip0_185_37">
<rect width="7637.42" height="385.37" fill="white" transform="translate(-1824 0.972656)"/>
</clipPath>
</defs>
</svg>
