<svg width="174" height="113" viewBox="0 0 174 113" fill="none" xmlns="http://www.w3.org/2000/svg">
<path d="M45.1601 112.425C22.0464 112.425 -1.06717 106.745 -21.7257 95.7911C-52.3642 79.5418 -76.6754 52.4215 -92.0346 17.348C-101.885 -5.15179 -105.787 -26.3849 -105.677 -46.5174C-121.456 -47.4518 -136.785 -49.2169 -151.256 -52.1346C-209.16 -63.8361 -244.309 -92.4099 -258.69 -139.497L-258.7 -139.528C-268.81 -180.52 -256.325 -217.078 -244.06 -240.522C-228.211 -270.83 -202.932 -297.442 -174.699 -313.525C-129.919 -339.036 -85.6474 -334.696 -56.2764 -301.937C-18.4024 -259.689 -40.4381 -216.538 -65.9469 -166.554C-84.2003 -130.806 -104.12 -91.787 -104.649 -47.5038C-65.8472 -45.2818 -24.3704 -47.971 13.5236 -50.4318C81.8964 -54.8653 140.938 -58.6966 163.463 -34.2136C171.137 -25.8658 174.151 -14.8183 172.684 -0.427551C169.64 29.3195 157.584 55.5157 137.804 75.3263C119.391 93.7664 95.3593 105.925 68.2936 110.493C60.639 111.791 52.9045 112.425 45.1601 112.425ZM-104.659 -46.4655C-104.759 -26.468 -100.887 -5.40097 -91.1164 16.912C-57.4839 93.7353 13.1044 118.748 68.134 109.465C125.199 99.8404 165.848 56.6578 171.696 -0.541748C173.133 -14.6106 170.209 -25.3881 162.744 -33.4972C140.539 -57.6271 81.7067 -53.8166 13.5934 -49.3935C-24.3305 -46.9327 -65.8172 -44.2435 -104.659 -46.4655ZM-257.732 -139.798C-243.461 -93.116 -208.571 -64.781 -151.066 -53.1625C-136.665 -50.2552 -121.386 -48.5005 -105.667 -47.5661C-105.128 -92.0258 -85.1384 -131.18 -66.8352 -167.042C-41.506 -216.673 -19.6199 -259.523 -57.0149 -301.231C-86.0566 -333.626 -129.869 -337.883 -174.23 -312.611C-228.581 -281.639 -274.688 -208.533 -257.732 -139.798Z" fill="#E4E4FF"/>
<path d="M37.0658 95.9156C15.8185 95.9156 -5.42889 90.6929 -24.4108 80.6215C-52.5743 65.6908 -74.9194 40.751 -89.0311 8.5224C-98.083 -12.15 -101.666 -31.6492 -101.576 -50.1411C-116.067 -51.0029 -130.139 -52.6227 -143.422 -55.3015C-196.655 -66.0582 -228.95 -92.327 -242.174 -135.603L-242.184 -135.634C-251.485 -173.314 -239.998 -206.913 -228.731 -228.468C-214.16 -256.325 -190.927 -280.788 -164.979 -295.562C-123.811 -319.007 -83.113 -315.03 -56.1072 -284.91C-21.2871 -246.067 -41.5364 -206.394 -64.9894 -160.46C-81.7557 -127.629 -100.049 -91.7871 -100.548 -51.1275C-64.8996 -49.0925 -26.816 -51.5636 7.99417 -53.8167C70.8281 -57.8868 125.099 -61.4066 145.808 -38.8964C152.873 -31.2234 155.648 -21.0585 154.291 -7.82031C151.496 19.5283 140.408 43.6064 122.225 61.818C105.299 78.7629 83.2032 89.9454 58.3332 94.1401C51.2973 95.3341 44.1815 95.9156 37.0658 95.9156ZM-100.568 -50.0789C-100.658 -31.7218 -97.095 -12.3888 -88.1329 8.09671C-57.2349 78.6695 7.60493 101.647 58.1635 93.1225C110.578 84.2763 147.923 44.6135 153.293 -7.92413C154.61 -20.8405 151.925 -30.7354 145.079 -38.18C124.69 -60.3372 70.6385 -56.8381 8.05405 -52.7784C-26.786 -50.5149 -64.8896 -48.0438 -100.568 -50.0789ZM-241.236 -135.904C-228.132 -93.0226 -196.076 -66.9926 -143.242 -56.319C-130.019 -53.6506 -116.007 -52.0412 -101.576 -51.1794C-101.067 -92.0259 -82.7038 -127.992 -65.8876 -160.937C-42.6143 -206.529 -22.5146 -245.901 -56.8557 -284.193C-83.5322 -313.94 -123.771 -317.855 -164.51 -294.649C-214.449 -266.2 -256.804 -199.053 -241.236 -135.904Z" fill="#E4E4FF"/>
<path d="M29.6209 80.7559C10.0901 80.7559 -9.4407 75.9589 -26.8957 66.6974C-52.7837 52.9711 -73.3225 30.056 -86.2965 0.423126C-94.6098 -18.5672 -97.9032 -36.4778 -97.8233 -53.4642C-111.127 -54.2533 -124.051 -55.7381 -136.246 -58.2092C-185.178 -68.0938 -214.868 -92.2445 -227.024 -132.032L-227.034 -132.063C-235.577 -166.7 -225.028 -197.59 -214.669 -217.4C-201.276 -243.005 -179.919 -265.494 -156.066 -279.075C-118.222 -300.63 -80.8075 -296.965 -55.9773 -269.273C-23.9616 -233.567 -42.5742 -197.091 -64.131 -154.864C-79.53 -124.712 -96.3263 -91.7876 -96.7954 -54.4506C-64.0511 -52.5817 -29.0713 -54.8452 2.90453 -56.9218C60.6586 -60.67 110.529 -63.8991 129.57 -43.2059C136.067 -36.1455 138.622 -26.7905 137.375 -14.6114C134.8 10.5257 124.61 32.6621 107.894 49.4098C92.3351 64.9946 72.0258 75.2633 49.1617 79.1257C42.7047 80.2159 36.1578 80.7559 29.6209 80.7559ZM-96.8154 -53.4019C-96.8852 -36.5504 -93.6218 -18.806 -85.3883 -0.00256348C-57.0052 64.8284 2.5652 85.937 49.002 78.1082C97.1454 69.9888 131.447 33.5551 136.387 -14.7048C137.594 -26.5621 135.129 -35.6367 128.852 -42.4687C110.129 -62.8193 60.469 -59.6006 2.9644 -55.8731C-29.0314 -53.8069 -64.0311 -51.5434 -96.8154 -53.4019ZM-226.076 -132.323C-214.04 -92.9401 -184.599 -69.0282 -136.067 -59.2164C-123.931 -56.766 -111.067 -55.2916 -97.8233 -54.4922C-97.3443 -92.0161 -80.4781 -125.055 -65.0192 -155.331C-43.6421 -197.205 -25.1791 -233.38 -56.7158 -268.547C-81.2166 -295.874 -118.182 -299.457 -155.597 -278.14C-201.465 -252.017 -240.377 -190.332 -226.076 -132.323Z" fill="#E4E4FF"/>
<path d="M22.7849 66.8227C4.8309 66.8227 -13.1231 62.4099 -29.1709 53.9063C-52.9631 41.291 -71.8452 20.2241 -83.7713 -7.02075C-91.406 -24.4641 -94.4399 -40.9106 -94.37 -56.5162C-106.586 -57.243 -118.442 -58.6135 -129.639 -60.8666C-174.619 -69.9517 -201.914 -92.1504 -213.092 -128.729L-213.102 -128.761C-220.956 -160.605 -211.255 -188.992 -201.735 -207.204C-189.429 -230.742 -169.789 -251.404 -147.873 -263.894C-113.082 -283.715 -78.6815 -280.341 -55.8473 -254.882C-26.4064 -222.041 -43.5221 -188.514 -63.3323 -149.703C-77.4739 -122.012 -92.903 -91.7766 -93.3421 -57.4922C-63.2724 -55.779 -31.1369 -57.866 -1.76587 -59.766C51.3176 -63.2028 97.1556 -66.1827 114.66 -47.1508C120.638 -40.6511 122.994 -32.0436 121.846 -20.8404C119.481 2.27197 110.11 22.6225 94.7504 38.01C80.4491 52.3385 61.7766 61.7766 40.7588 65.3275C34.8107 66.3243 28.7928 66.8227 22.7849 66.8227ZM-93.3621 -56.4539C-93.4219 -40.9937 -90.418 -24.7029 -82.8631 -7.44641C-56.7855 52.1101 -2.07524 71.495 40.5891 64.2996C84.8104 56.8447 116.317 23.3805 120.848 -20.9546C121.956 -31.8359 119.7 -40.1631 113.932 -46.4343C96.7365 -65.1132 51.118 -62.1645 -1.71597 -58.7381C-31.097 -56.8277 -63.2425 -54.7511 -93.3621 -56.4539ZM-212.134 -129.041C-201.076 -92.8668 -174.03 -70.9069 -129.45 -61.8945C-118.312 -59.6414 -106.506 -58.2916 -94.36 -57.5545C-93.901 -92.0258 -78.412 -122.375 -64.2106 -150.191C-44.57 -188.66 -27.614 -221.885 -56.5659 -254.176C-79.0607 -279.272 -113.013 -282.563 -147.384 -262.991C-189.539 -238.986 -225.277 -182.316 -212.134 -129.041Z" fill="#E4E4FF"/>
<path d="M16.4979 54.0097C0.000976562 54.0097 -16.5059 49.95 -31.2563 42.1317C-53.1324 30.5339 -70.4876 11.1698 -81.4556 -13.8739C-88.4715 -29.8947 -91.2559 -45.0019 -91.196 -59.3303C-102.404 -60.0052 -113.292 -61.2512 -123.571 -63.3278C-164.918 -71.686 -190.008 -92.0885 -200.287 -125.719L-200.297 -125.75C-207.523 -155.03 -198.6 -181.122 -189.848 -197.87C-178.531 -219.508 -160.487 -238.498 -140.337 -249.982C-108.352 -268.204 -76.7151 -265.099 -55.7272 -241.696C-28.6515 -211.503 -44.3899 -180.676 -62.6034 -144.99C-75.5873 -119.551 -89.7589 -91.7978 -90.178 -60.3167C-62.5535 -58.7489 -33.0527 -60.6593 -6.07683 -62.4141C42.7053 -65.5809 84.8407 -68.3116 100.948 -50.806C106.457 -44.8254 108.613 -36.9032 107.565 -26.593C105.389 -5.34949 96.7768 13.3606 82.6551 27.5125C69.5115 40.678 52.3459 49.3686 33.0147 52.6288C27.5557 53.5633 22.0268 54.0097 16.4979 54.0097ZM-90.188 -59.268C-90.2379 -45.0746 -87.4835 -30.1335 -80.5474 -14.2996C-56.5954 40.4081 -6.3363 58.2148 32.8451 51.6113C73.4636 44.7585 102.405 14.0251 106.567 -26.6968C107.585 -36.6852 105.509 -44.327 100.22 -50.0792C84.4415 -67.2318 42.5157 -64.5218 -6.01695 -61.3758C-32.9928 -59.6107 -62.5235 -57.7002 -90.188 -59.268ZM-199.339 -126.02C-189.179 -92.7945 -164.339 -72.6205 -123.391 -64.3453C-113.172 -62.2791 -102.344 -61.0331 -91.196 -60.3686C-90.7669 -92.0366 -76.5354 -119.915 -63.4916 -145.467C-45.4578 -180.8 -29.8791 -211.316 -56.4657 -240.98C-77.1242 -264.019 -108.302 -267.041 -139.868 -249.068C-178.571 -227.004 -211.395 -174.955 -199.339 -126.02Z" fill="#E4E4FF"/>
<path d="M10.7291 42.2462C-4.44041 42.2462 -19.6199 38.5188 -33.1727 31.3338C-53.2824 20.6705 -69.2404 2.86378 -79.3201 -20.1448C-85.7572 -34.8574 -88.3221 -48.729 -88.2822 -61.8945C-98.5715 -62.5071 -108.561 -63.6596 -118.003 -65.5701C-156.016 -73.2535 -179.08 -92.0154 -188.521 -122.925L-188.531 -122.957C-195.168 -149.869 -186.974 -173.864 -178.93 -189.252C-168.531 -209.145 -151.944 -226.599 -133.412 -237.158C-104.001 -253.916 -74.919 -251.061 -55.6177 -229.527C-30.7177 -201.753 -45.1786 -173.428 -61.925 -140.618C-73.8511 -117.267 -86.855 -91.7766 -87.2542 -62.8705C-61.8851 -61.4273 -34.7895 -63.1924 -10.0192 -64.7914C34.8208 -67.6986 73.5431 -70.2113 88.3534 -54.1073C93.4232 -48.6044 95.4092 -41.3156 94.4412 -31.8256C92.4452 -12.2953 84.5211 4.90924 71.5371 17.919C59.4514 30.0255 43.673 38.01 25.8987 41.0107C20.8888 41.8309 15.8089 42.2462 10.7291 42.2462ZM-87.2642 -61.8426C-87.3041 -48.8224 -84.7692 -35.1066 -78.412 -20.5809C-56.4161 29.6621 -10.2487 46.0256 25.749 39.962C63.0542 33.6699 89.6308 5.43875 93.4532 -31.9606C94.3913 -41.1183 92.4851 -48.1372 87.6348 -53.4117C73.1439 -69.1626 34.6312 -66.6707 -9.95934 -63.7738C-34.7396 -62.1645 -61.8552 -60.4098 -87.2642 -61.8426ZM-187.573 -123.237C-178.242 -92.7215 -155.427 -74.1983 -117.813 -66.598C-108.442 -64.7083 -98.5016 -63.5558 -88.2722 -62.9432C-87.863 -92.0362 -74.7892 -117.651 -62.8033 -141.116C-46.2365 -173.573 -31.9252 -201.597 -56.3363 -228.831C-75.3082 -249.992 -103.941 -252.764 -132.923 -236.255C-168.491 -215.998 -198.651 -168.185 -187.573 -123.237Z" fill="#E4E4FF"/>
<path d="M5.41972 31.4376C-8.52229 31.4376 -22.4743 28.0113 -34.9393 21.3973C-53.4222 11.5958 -68.0927 -4.76768 -77.3641 -25.9281C-83.2822 -39.4363 -85.6375 -52.1761 -85.5976 -64.2722C-95.0387 -64.8433 -104.21 -65.9024 -112.873 -67.6467C-147.813 -74.7071 -169.02 -91.9532 -177.713 -120.382L-177.723 -120.413C-183.83 -145.155 -176.296 -167.219 -168.89 -181.371C-159.33 -199.655 -144.08 -215.707 -127.044 -225.405C-99.9987 -240.813 -73.2524 -238.186 -55.508 -218.386C-32.604 -192.844 -45.9073 -166.793 -61.3064 -136.641C-72.2544 -115.19 -84.2004 -91.7974 -84.5797 -65.2586C-61.2864 -63.94 -36.3963 -65.5597 -13.652 -67.0341C27.5653 -69.7025 63.1539 -72.0179 76.7765 -57.2015C81.4372 -52.1346 83.2735 -45.4272 82.3853 -36.6952C78.8224 -1.87083 54.0921 24.4084 19.3717 30.2747C14.761 31.0534 10.0903 31.4376 5.41972 31.4376ZM-84.5896 -64.21C-84.6196 -52.2592 -82.2942 -39.6751 -76.4559 -26.3538C-56.2465 19.7983 -13.8416 34.8328 19.2121 29.2572C53.4733 23.4739 77.8843 -2.45229 81.3972 -36.7886C82.2555 -45.1988 80.5091 -51.6259 76.058 -56.4643C62.7547 -70.9277 27.3757 -68.6331 -13.5921 -65.9751C-36.3465 -64.5111 -61.2465 -62.9017 -84.5896 -64.21ZM-176.755 -120.683C-168.192 -92.6592 -147.234 -75.6416 -112.683 -68.6642C-104.081 -66.9303 -94.9688 -65.8712 -85.5876 -65.3105C-85.1984 -92.0362 -73.1925 -115.564 -62.1846 -137.119C-46.9651 -166.928 -33.8215 -192.668 -56.2365 -217.67C-73.6516 -237.096 -99.9488 -239.65 -126.565 -224.481C-159.24 -205.885 -186.934 -161.976 -176.755 -120.683Z" fill="#E4E4FF"/>
<path d="M0.539276 21.5008C-12.285 21.5008 -25.1093 18.3548 -36.5663 12.2704C-53.5622 3.25801 -67.0451 -11.7869 -75.568 -31.2445C-80.9971 -43.6521 -83.1728 -55.3536 -83.1428 -66.453C-91.8054 -66.9721 -100.229 -67.9481 -108.173 -69.5575C-140.298 -76.0468 -159.799 -91.9119 -167.783 -118.046L-167.793 -118.077C-173.402 -140.826 -166.476 -161.114 -159.679 -174.124C-150.887 -190.934 -136.875 -205.688 -121.216 -214.607C-96.3463 -228.769 -71.7557 -226.361 -55.4284 -208.149C-34.3707 -184.652 -46.5961 -160.709 -60.7477 -132.976C-70.7976 -113.29 -81.7656 -91.7977 -82.1248 -67.4394C-60.7278 -66.235 -37.8836 -67.7197 -16.9855 -69.0695C20.8984 -71.5199 53.6128 -73.6484 66.1476 -60.026C70.439 -55.3536 72.1356 -49.1862 71.3073 -41.1498C68.0338 -9.12885 45.2895 15.0323 13.3636 20.421C9.13205 21.1478 4.84065 21.5008 0.539276 21.5008ZM-82.1248 -66.3907C-82.1448 -55.4263 -80.0091 -43.8909 -74.6598 -31.6702C-56.0971 10.7233 -17.1552 24.5222 13.2039 19.4035C44.6707 14.0978 67.0858 -9.7103 70.3093 -41.2536C71.0977 -48.9682 69.5009 -54.8656 65.4191 -59.2991C53.2036 -72.5685 20.7088 -70.4608 -16.9257 -68.0208C-37.8237 -66.671 -60.6879 -65.1863 -82.1248 -66.3907ZM-166.825 -118.336C-158.961 -92.5972 -139.709 -76.9813 -107.983 -70.5646C-100.099 -68.976 -91.7356 -68.0104 -83.1328 -67.4809C-82.7636 -92.0261 -71.7357 -113.643 -61.626 -133.444C-47.654 -160.823 -35.5782 -184.465 -56.157 -207.422C-72.1549 -225.26 -96.2864 -227.596 -120.737 -213.673C-150.727 -196.593 -176.176 -156.255 -166.825 -118.336Z" fill="#E4E4FF"/>
<path d="M-3.9416 12.3639C-15.728 12.3639 -27.5243 9.46704 -38.0631 3.88101C-53.6918 -4.40456 -66.0869 -18.2346 -73.9212 -36.1244C-78.9112 -47.5145 -80.9072 -58.2608 -80.8872 -68.4568C-88.8412 -68.9344 -96.5558 -69.8274 -103.861 -71.3018C-133.402 -77.272 -151.326 -91.8496 -158.671 -115.886L-158.681 -115.917C-163.841 -136.839 -157.474 -155.487 -151.216 -167.448C-143.132 -182.898 -130.248 -196.468 -115.857 -204.66C-92.9929 -217.691 -70.3683 -215.469 -55.3584 -198.721C-35.9873 -177.114 -47.2248 -155.092 -60.2386 -129.602C-69.4701 -111.525 -79.5399 -91.7977 -79.8792 -69.4432C-60.2386 -68.3323 -39.2508 -69.7028 -20.0692 -70.9384C14.7509 -73.2018 44.8205 -75.1434 56.3474 -62.6112C60.2995 -58.3127 61.8563 -52.6229 61.0979 -45.2302C58.0839 -15.7842 37.1759 6.43523 7.82475 11.3879C3.96251 12.042 0.0104675 12.3639 -3.9416 12.3639ZM-79.8593 -68.3945C-79.8792 -58.3439 -77.9032 -47.7533 -73.003 -36.5501C-55.9572 2.38588 -20.189 15.0635 7.69505 10.36C36.597 5.4904 57.1757 -16.3761 60.1398 -45.3444C60.8584 -52.4152 59.3913 -57.8351 55.6588 -61.8948C44.4513 -74.074 14.5912 -72.1428 -19.9794 -69.9001C-39.1709 -68.6541 -60.1788 -67.2939 -79.8593 -68.3945ZM-157.693 -116.187C-150.468 -92.5556 -132.793 -78.2064 -103.652 -72.3193C-96.416 -70.8553 -88.7514 -69.9727 -80.8673 -69.4951C-80.518 -92.0469 -70.3883 -111.889 -61.0969 -130.08C-48.2627 -155.227 -37.1749 -176.938 -56.067 -198.005C-70.7476 -214.379 -92.9131 -216.528 -115.358 -203.746C-142.913 -188.047 -166.276 -151.012 -157.693 -116.187Z" fill="#E4E4FF"/>
<path d="M-8.05362 3.97441C-18.8919 3.97441 -29.7301 1.30598 -39.4207 -3.82318C-53.7918 -11.4443 -65.189 -24.1634 -72.3845 -40.5995C-76.9653 -51.0551 -78.8017 -60.9293 -78.7917 -70.2947C-86.087 -70.7412 -93.1728 -71.5614 -99.8694 -72.9112C-127.025 -78.3934 -143.512 -91.8081 -150.258 -113.913L-150.268 -113.945C-155.019 -133.184 -149.16 -150.326 -143.402 -161.322C-135.977 -175.526 -124.121 -187.996 -110.887 -195.534C-89.8495 -207.515 -69.0512 -205.47 -55.2389 -190.062C-37.4147 -170.178 -47.754 -149.942 -59.7199 -126.498C-68.1929 -109.906 -77.4344 -91.7978 -77.7637 -71.2707C-59.7299 -70.2636 -40.4586 -71.5095 -22.8439 -72.6516C9.16183 -74.7282 36.8064 -76.5245 47.4151 -64.989C51.0578 -61.0331 52.4949 -55.7897 51.7963 -48.9889C49.0318 -21.9102 29.8004 -1.47665 2.80458 3.07106C-0.798187 3.68365 -4.43089 3.97441 -8.05362 3.97441ZM-77.7837 -70.2324C-77.7937 -61.0124 -75.9873 -51.3043 -71.4863 -41.0356C-55.8278 -5.27679 -22.9837 6.36246 2.62495 2.04317C29.1617 -2.43188 48.0638 -22.5125 50.7783 -49.1031C51.437 -55.5925 50.0997 -60.5555 46.6666 -64.283C36.3772 -75.4654 8.95226 -73.6795 -22.804 -71.6237C-40.4187 -70.4712 -59.7 -69.2253 -77.7837 -70.2324ZM-149.31 -114.204C-142.673 -92.5038 -126.446 -79.3279 -99.6797 -73.9184C-93.053 -72.579 -86.0172 -71.7691 -78.7917 -71.3226C-78.4524 -92.0262 -69.151 -110.259 -60.6181 -126.975C-48.8318 -150.067 -38.6522 -170.012 -55.9874 -189.345C-69.4704 -204.38 -89.8195 -206.353 -110.428 -194.61C-135.727 -180.208 -157.194 -146.184 -149.31 -114.204Z" fill="#E4E4FF"/>
</svg>
