<svg width="21" height="19" viewBox="0 0 21 19" fill="none" xmlns="http://www.w3.org/2000/svg">
<g clip-path="url(#clip0_185_612)">
<path d="M0.836029 16.4054V11.5072C0.850533 11.4735 0.862202 11.4386 0.870915 11.4029C1.04205 10.2562 1.86375 9.30443 2.99472 9.05055C3.47606 8.94202 3.98945 8.97222 4.4887 8.94532C4.67397 8.93541 4.86019 8.94532 5.05913 8.94532V8.67776C5.05913 6.40484 5.05913 4.13177 5.05913 1.85853C5.05913 1.5754 5.12136 1.32341 5.35284 1.13702C5.53387 0.988844 5.74743 0.962891 5.97183 0.962891C9.43435 0.962891 12.8972 0.962891 16.3603 0.962891C17.3263 0.962891 18.2932 0.962891 19.2587 0.962891C19.7858 0.962891 20.1073 1.27386 20.1073 1.7835C20.1073 6.3608 20.1073 10.9381 20.1073 15.5154C20.1155 16.1162 19.9558 16.7074 19.6462 17.2222C18.957 18.3547 17.942 18.9281 16.6182 18.9295C12.5032 18.9333 8.38793 18.9333 4.27231 18.9295C4.15964 18.9295 4.04649 18.9295 3.93382 18.9389C3.28467 18.9915 2.637 18.8211 2.09755 18.4558C1.5581 18.0906 1.15904 17.5523 0.966145 16.9296C0.913344 16.7579 0.87893 16.5823 0.836029 16.4054ZM6.59176 2.50832V2.76738C6.59176 7.15593 6.59648 11.5445 6.58375 15.933C6.58375 16.3214 6.47061 16.7097 6.40083 17.0967C6.38292 17.1944 6.32776 17.2854 6.28345 17.3949C6.37019 17.3987 6.42488 17.4034 6.48145 17.4034C9.85597 17.4034 13.2305 17.4026 16.605 17.4011C16.7867 17.4024 16.9679 17.381 17.1443 17.3374C18.0042 17.1175 18.5865 16.3195 18.5836 15.3946C18.5704 11.1693 18.578 6.94405 18.578 2.71878V2.50832H6.59176ZM5.05913 10.487C4.54998 10.487 4.06912 10.4681 3.58685 10.4912C2.95135 10.5219 2.40826 11.0646 2.38186 11.6969C2.35829 12.2669 2.36725 12.8384 2.36725 13.4094C2.36725 14.3258 2.36112 15.2422 2.37809 16.1576C2.39223 16.9447 3.17953 17.6422 4.13418 17.3543C4.70792 17.1807 5.05772 16.6635 5.05819 15.9967C5.06039 14.2212 5.06039 12.4451 5.05819 10.6687L5.05913 10.487Z" fill="white"/>
<path d="M12.5804 10.9808C11.4829 10.9808 10.3854 10.985 9.2879 10.9808C8.72217 10.9779 8.35304 10.4499 8.55623 9.94261C8.60195 9.81472 8.68303 9.70246 8.79003 9.61891C8.89704 9.53537 9.02555 9.48398 9.16061 9.47072C9.24144 9.46043 9.32286 9.45555 9.40434 9.4561C11.5179 9.4561 13.6315 9.4561 15.7451 9.4561C16.2052 9.4561 16.49 9.63258 16.6045 9.98367C16.6432 10.0972 16.6543 10.2183 16.6368 10.337C16.6194 10.4557 16.5739 10.5685 16.5043 10.6661C16.4346 10.7637 16.3427 10.8433 16.2362 10.8983C16.1297 10.9532 16.0116 10.982 15.8917 10.9822C15.2709 10.9926 14.65 10.985 14.0291 10.9855L12.5804 10.9808Z" fill="white"/>
<path d="M11.6493 14.4459C10.853 14.4459 10.0563 14.4497 9.2596 14.4459C9.09493 14.4474 8.93439 14.3943 8.80299 14.295C8.67159 14.1956 8.57671 14.0556 8.53312 13.8966C8.43884 13.5809 8.55622 13.2237 8.84191 13.059C8.98814 12.9746 9.15309 12.9281 9.32183 12.9236C10.8776 12.9137 12.4333 12.9203 13.989 12.9165C14.6853 12.9165 14.9767 13.5795 14.7188 14.0453C14.5646 14.3246 14.3181 14.4468 14.0036 14.4464C13.2198 14.4464 12.4358 14.4464 11.6517 14.4464L11.6493 14.4459Z" fill="white"/>
<path d="M11.6389 7.28594C10.8549 7.28594 10.0709 7.2883 9.28694 7.28594C8.94751 7.28594 8.69105 7.1288 8.56235 6.81406C8.44402 6.52432 8.4921 6.24779 8.70378 6.00807C8.86501 5.82734 9.07668 5.75844 9.31098 5.75844C10.8728 5.75844 12.4347 5.75373 13.9961 5.75844C14.4859 5.75844 14.8117 6.08877 14.806 6.53517C14.8004 6.98157 14.4647 7.28594 13.9721 7.28594C13.1942 7.28594 12.4168 7.28594 11.6389 7.28594Z" fill="white"/>
</g>
<defs>
<clipPath id="clip0_185_612">
<rect width="19.2727" height="17.9878" fill="white" transform="translate(0.836029 0.962891)"/>
</clipPath>
</defs>
</svg>
