<svg width="21" height="25" viewBox="0 0 21 25" fill="none" xmlns="http://www.w3.org/2000/svg">
<g clip-path="url(#clip0_185_739)">
<path d="M4.75064 6.09673C4.46013 2.74348 7.1551 0.128713 10.2612 0.00525205C11.9443 -0.0618129 13.4022 0.513574 14.5892 1.72151C15.7763 2.92944 16.2981 4.38886 16.2496 6.09445C16.7502 6.09445 17.2205 6.09445 17.6908 6.09445C19.0561 6.09445 19.8995 6.93276 19.9875 8.31293C20.1331 10.5992 20.3106 12.8901 20.473 15.1795C20.613 17.164 20.7526 19.149 20.8916 21.1345C20.9319 21.7137 20.991 22.2929 21.0001 22.8729C21.0052 23.319 20.8674 23.755 20.6069 24.1163C20.3464 24.4777 19.9771 24.7453 19.5536 24.8795C19.3003 24.9563 19.037 24.9949 18.7724 24.9938C13.2565 25.0009 7.74042 25.0009 2.22406 24.9938C0.851159 24.9969 -0.0757353 24.0244 0.00466638 22.6397C0.103272 20.9478 0.239045 19.2582 0.359647 17.5679C0.483537 15.8303 0.607932 14.0925 0.732832 12.3544C0.834472 10.9391 0.918666 9.52619 1.03244 8.10868C1.13029 6.90228 2.02078 6.09673 3.23059 6.09673C3.72969 6.09216 4.22879 6.09673 4.75064 6.09673ZM4.80449 7.92578H3.1957C2.96056 7.92578 2.85589 8.05762 2.83996 8.28092C2.76259 9.38139 2.68523 10.4824 2.60786 11.5839C2.48397 13.3316 2.35932 15.0789 2.23392 16.8256C2.09435 18.7817 1.9558 20.7377 1.81825 22.6938C1.79247 23.0695 1.89411 23.1678 2.27336 23.1678H18.7352C19.1099 23.1678 19.2078 23.0665 19.1827 22.6869C19.1243 21.8037 19.0591 20.9204 18.9961 20.0371C18.8338 17.7676 18.6712 15.498 18.5084 13.2285C18.3916 11.5854 18.2766 9.9423 18.1633 8.29921C18.1504 8.10945 18.0875 7.93721 17.8834 7.93111C17.3479 7.91511 16.8116 7.92578 16.2496 7.92578V8.29311C16.2496 9.69309 16.2496 11.0931 16.2496 12.4931C16.2533 12.7048 16.1829 12.9111 16.0505 13.0759C15.9181 13.2407 15.7322 13.3534 15.5254 13.3944C15.3186 13.4354 15.1041 13.402 14.9193 13.3C14.7346 13.1981 14.5914 13.0341 14.5149 12.8368C14.4618 12.6745 14.4362 12.5045 14.439 12.3338C14.433 10.9719 14.439 9.61003 14.439 8.24815C14.439 8.14679 14.4299 8.04543 14.4254 7.94331H6.56878V8.30683C6.56878 9.66871 6.56878 11.0306 6.56878 12.3925C6.56878 12.996 6.18346 13.4114 5.64947 13.4076C5.11548 13.4038 4.74685 12.98 4.75747 12.3757C4.77188 11.5191 4.79387 10.6617 4.80449 9.80512C4.81056 9.19011 4.80449 8.5728 4.80449 7.92578ZM14.4011 6.08149C14.612 4.73105 13.7989 3.15502 12.5048 2.37844C11.8325 1.98146 11.0583 1.79329 10.2798 1.83764C9.50121 1.88199 8.75313 2.15687 8.12978 2.62765C6.97837 3.49187 6.41328 5.0176 6.61505 6.07921L14.4011 6.08149Z" fill="#333333"/>
</g>
<defs>
<clipPath id="clip0_185_739">
<rect width="21" height="25" fill="white"/>
</clipPath>
</defs>
</svg>
