<svg width="26" height="26" viewBox="0 0 26 26" fill="none" xmlns="http://www.w3.org/2000/svg">
<path d="M12.1875 0H13.8125C13.9791 0.0208203 14.1451 0.0441797 14.3117 0.0619531C16.8832 0.338203 19.1867 1.27512 21.1859 2.91586C23.6778 4.96234 25.2286 7.57809 25.8004 10.76C25.8852 11.2328 25.9345 11.7117 26 12.1875V13.8125C25.9815 13.8768 25.9675 13.9423 25.9579 14.0085C25.8411 15.5827 25.4643 17.097 24.7645 18.5118C22.7947 22.4961 19.631 24.9371 15.2633 25.7969C14.785 25.8908 14.2985 25.9335 13.8125 26H12.1875C11.8701 25.9609 11.5522 25.9269 11.2364 25.8817C8.65871 25.511 6.37914 24.4821 4.42812 22.7551C2.16023 20.7477 0.744453 18.2493 0.203125 15.2648C0.115781 14.7845 0.0670312 14.297 0 13.8125V12.1875C0.0391016 11.8701 0.0721094 11.5517 0.117812 11.2354C0.524063 8.4109 1.71387 5.96477 3.71008 3.92285C5.65906 1.9302 8.01176 0.681992 10.7611 0.197539C11.2338 0.116289 11.7117 0.0655078 12.1875 0ZM8.53125 12.4653C6.59598 9.90996 7.12512 6.69094 9.05988 4.84148C11.0241 2.96258 14.0055 2.7168 16.2231 4.25496C17.3403 5.03039 18.1061 6.07395 18.4696 7.3841C18.9815 9.23152 18.6073 10.9246 17.4764 12.4566C20.1678 13.9339 21.8385 16.1601 22.552 19.1323C25.3327 14.9729 25.1113 8.65516 20.6375 4.57945C16.1804 0.516953 9.40063 0.644414 5.05172 4.88414C0.794219 9.03145 0.797266 15.2176 3.45922 19.1359C3.7625 17.7199 4.37343 16.388 5.24875 15.2344C6.12342 14.0788 7.24481 13.1328 8.53125 12.4653ZM13.0457 24.3841C13.2742 24.3704 13.5698 24.3562 13.8648 24.3334C16.4902 24.1302 18.7571 23.1121 20.7127 21.3611C21.0128 21.092 21.1479 20.8335 21.0961 20.408C20.7193 17.3347 19.1483 15.112 16.383 13.7399C16.2363 13.6673 16.1317 13.681 15.9915 13.7627C13.9972 14.9287 12.0025 14.9283 10.0075 13.7617C9.86527 13.6784 9.76117 13.6693 9.61543 13.7419C6.71887 15.1834 5.14465 17.5163 4.89277 20.7406C4.89388 20.8777 4.94855 21.0089 5.04512 21.1062C7.25309 23.2477 9.9059 24.3196 13.0432 24.3841H13.0457ZM13 4.875C12.1971 4.875 11.4122 5.11292 10.7444 5.55871C10.0767 6.0045 9.55595 6.63817 9.24807 7.3797C8.94019 8.12122 8.85894 8.93735 9.01459 9.72503C9.17023 10.5127 9.55579 11.2366 10.1226 11.8053C10.6893 12.374 11.4119 12.762 12.1991 12.9203C12.9862 13.0786 13.8026 13.0001 14.5452 12.6947C15.2877 12.3893 15.9232 11.8707 16.3712 11.2045C16.8192 10.5382 17.0598 9.75411 17.0625 8.95121C17.0635 8.41679 16.9592 7.8874 16.7556 7.3933C16.5519 6.89919 16.2529 6.45004 15.8757 6.07151C15.4984 5.69298 15.0503 5.39248 14.5569 5.18718C14.0635 4.98188 13.5344 4.8758 13 4.875Z" fill="#333333"/>
</svg>
