<svg width="39" height="27" viewBox="0 0 39 27" fill="none" xmlns="http://www.w3.org/2000/svg">
<g clip-path="url(#clip0_185_782)">
<path d="M0 1.72218C0.211838 1.3397 0.371531 0.910551 0.645454 0.585898C1.05316 0.101454 1.63751 0 2.24401 0C7.05469 0.00473453 11.8654 0.00563634 16.6762 0.00270544C23.3783 0.00270544 30.0804 0.00270544 36.7824 0.00270544C37.9525 0.00270544 38.7671 0.645249 38.9659 1.72489C38.9985 1.90413 38.9985 2.09165 38.9985 2.27528C39.0001 9.75786 39.0003 17.2405 38.9993 24.7232C38.9993 26.1277 38.1722 26.9975 36.822 26.9978C25.2712 26.9999 13.7203 26.9999 2.16938 26.9978C1.0556 26.9978 0.497493 26.5479 0 25.2797L0 1.72218ZM1.53452 2.56578V24.2611C1.6859 24.0751 1.7915 23.9493 1.89302 23.8199C4.20064 20.8614 6.5082 17.9026 8.81571 14.9435C9.1905 14.4625 9.55649 13.9723 9.94905 13.5063C10.2261 13.1782 10.6688 13.1618 10.9756 13.4254C11.2699 13.6777 11.3278 14.103 11.1122 14.4587C11.0651 14.5364 11.0063 14.6065 10.9504 14.6786C8.25939 18.1289 5.5684 21.5792 2.87741 25.0294C2.78648 25.1459 2.70012 25.2661 2.59273 25.4099H36.4014C36.3075 25.2787 36.244 25.1831 36.1733 25.0932C33.9773 22.2777 31.7809 19.4626 29.5841 16.6478C29.041 15.9516 28.4937 15.259 27.9575 14.5572C27.6579 14.165 27.6913 13.7159 28.0191 13.4297C28.3545 13.137 28.8028 13.2002 29.1272 13.5871C29.1688 13.6368 29.2069 13.6896 29.2468 13.7406C31.8904 17.1292 34.5342 20.5176 37.178 23.9058C37.2595 24.0098 37.3455 24.1087 37.4606 24.2487V2.58387C37.3073 2.698 37.194 2.779 37.084 2.86456C31.9673 6.8472 26.8506 10.8298 21.7339 14.8123C20.3234 15.9095 18.6737 15.9033 17.2651 14.8071C13.214 11.6542 9.16334 8.50152 5.11311 5.349C3.93741 4.43405 2.76139 3.51978 1.53452 2.56578ZM2.79039 1.58269C2.92076 1.6909 2.97844 1.74163 3.0389 1.78864C8.10247 5.73115 13.1663 9.6732 18.2304 13.6148C19.041 14.2453 19.9871 14.2257 20.8312 13.5688C25.8543 9.65911 30.8767 5.74862 35.8984 1.83734C35.9833 1.77122 36.0613 1.69648 36.1931 1.58269H2.79039Z" fill="#00009B"/>
</g>
<defs>
<clipPath id="clip0_185_782">
<rect width="39" height="27" fill="white"/>
</clipPath>
</defs>
</svg>
