<svg width="21" height="26" viewBox="0 0 21 26" fill="none" xmlns="http://www.w3.org/2000/svg">
<path d="M17.7629 19.0181H16.38L16.3864 18.1893C16.3864 17.821 16.6796 17.5197 17.0377 17.5197H17.1259C17.4849 17.5197 17.7789 17.821 17.7789 18.1893L17.7629 19.0181ZM12.5756 17.242C12.2248 17.242 11.9378 17.4853 11.9378 17.7831V21.814C11.9378 22.1113 12.2248 22.3539 12.5756 22.3539C12.9279 22.3539 13.2152 22.1113 13.2152 21.814V17.7831C13.2152 17.485 12.9279 17.242 12.5756 17.242ZM21 14.9873V22.6555C21 24.4949 19.4541 26 17.5644 26H3.43588C1.5456 26 0 24.4949 0 22.6555V14.9873C0 13.1479 1.5456 11.6425 3.43588 11.6425H17.5644C19.4541 11.6425 21 13.1479 21 14.9873ZM4.37836 23.4881L4.37724 15.4105L6.12864 15.4111V14.2142L1.45992 14.207V15.3836L2.91732 15.388V23.4881H4.37836ZM9.62836 16.6137H8.16816V20.9271C8.16816 21.5511 8.20484 21.8631 8.16592 21.9732C8.0472 22.3077 7.51352 22.663 7.30548 22.0093C7.2702 21.8949 7.30128 21.5497 7.30072 20.9569L7.29484 16.6137H5.84276L5.84724 20.8887C5.84836 21.5439 5.83296 22.0324 5.85228 22.2548C5.88784 22.6469 5.87524 23.1039 6.22776 23.365C6.88464 23.8533 8.1438 23.2922 8.4588 22.5943L8.456 23.4849L9.62864 23.4864L9.62836 16.6137ZM14.2996 21.5531L14.2965 17.9631C14.2954 16.5949 13.3034 15.7756 11.9568 16.8827L11.9627 14.2136L10.5042 14.2159L10.4972 23.4286L11.6967 23.4107L11.8059 22.837C13.3384 24.2875 14.3018 23.2934 14.2996 21.5531ZM18.8695 21.0773L17.7747 21.0834C17.7741 21.1282 17.7724 21.1799 17.7719 21.2362V21.8666C17.7719 22.204 17.5017 22.4787 17.1735 22.4787H16.959C16.6303 22.4787 16.3601 22.204 16.3601 21.8666V21.7967V21.1033V20.2086H18.8672V19.2351C18.8672 18.5236 18.8496 17.8123 18.7925 17.4056C18.613 16.1188 16.8624 15.9146 15.9782 16.5733C15.7007 16.779 15.4888 17.0543 15.3656 17.424C15.2412 17.7941 15.1794 18.2997 15.1794 18.9419V21.0825C15.1799 24.6411 19.3693 24.1381 18.8695 21.0773ZM13.2532 9.45591C13.3286 9.64484 13.4456 9.79796 13.6044 9.91351C13.7612 10.0273 13.9616 10.0845 14.2019 10.0845C14.4124 10.0845 14.5989 10.0259 14.7613 9.90484C14.9232 9.78438 15.0595 9.6044 15.171 9.36433L15.1432 9.9554H16.7709V2.81378H15.4896V8.372C15.4896 8.67302 15.2494 8.91945 14.9556 8.91945C14.6636 8.91945 14.4225 8.67302 14.4225 8.372V2.81378H13.0852V7.63071C13.0852 8.24431 13.0962 8.65338 13.1138 8.8608C13.132 9.06678 13.1779 9.26438 13.2532 9.45591ZM8.32076 5.42244C8.32076 4.73691 8.3762 4.2016 8.48624 3.81564C8.59712 3.43113 8.7962 3.12202 9.0846 2.88889C9.37216 2.6546 9.74036 2.53731 10.1881 2.53731C10.5647 2.53731 10.8872 2.61358 11.1566 2.76293C11.4274 2.91316 11.6362 3.10816 11.781 3.3488C11.9286 3.59031 12.0288 3.83847 12.0823 4.0924C12.1369 4.3498 12.1638 4.73807 12.1638 5.26182V7.06796C12.1638 7.73038 12.138 8.21773 12.0879 8.52713C12.0383 8.8374 11.9319 9.12513 11.767 9.39496C11.6046 9.66189 11.3949 9.86151 11.1406 9.98891C10.8836 10.1175 10.5896 10.1804 10.2575 10.1804C9.88652 10.1804 9.57404 10.1276 9.31644 10.0172C9.058 9.90744 8.85836 9.74191 8.71612 9.52207C8.57248 9.30193 8.4714 9.03384 8.41036 8.72127C8.34904 8.40898 8.31992 7.93924 8.31992 7.31322L8.32076 5.42244ZM9.5956 8.25933C9.5956 8.66378 9.88736 8.99398 10.2427 8.99398C10.5983 8.99398 10.8889 8.66378 10.8889 8.25933V4.45756C10.8889 4.05369 10.5983 3.72349 10.2427 3.72349C9.88736 3.72349 9.5956 4.05369 9.5956 4.45756V8.25933ZM5.09096 10.179H6.62648L6.62816 4.70167L8.44256 0.00953333H6.76312L5.79852 3.49469L4.8202 0H3.15812L5.08844 4.70427L5.09096 10.179Z" fill="#F61C0D"/>
</svg>
