<svg width="35" height="35" viewBox="0 0 35 35" fill="none" xmlns="http://www.w3.org/2000/svg">
<g clip-path="url(#clip0_185_777)">
<path d="M0 9.63712C0.0512888 9.23279 0.0801388 8.82365 0.158675 8.42492C0.356818 7.4309 0.801388 6.55237 1.51142 5.82617C2.45164 4.86537 3.35922 3.86454 4.37157 2.98381C5.91304 1.6441 7.58694 1.65151 9.07051 3.04066C10.6496 4.51928 12.1637 6.07217 13.6384 7.65468C14.7345 8.82965 14.7233 10.6323 13.6584 11.8417C12.8697 12.7383 12.0004 13.5652 11.1541 14.4095C10.9906 14.5722 10.959 14.6783 11.0662 14.8953C11.9144 16.6107 13.1131 18.0679 14.4087 19.4525C15.7376 20.872 17.1994 22.1397 18.8426 23.1868C19.3104 23.4848 19.8113 23.731 20.3316 24.0204C20.9697 23.3753 21.5752 22.7248 22.2237 22.1201C22.6951 21.6797 23.1793 21.2237 23.7349 20.9119C24.9017 20.2565 26.326 20.4221 27.2899 21.3496C28.9067 22.9055 30.5012 24.488 32.0401 26.1206C33.1837 27.3338 33.1931 29.1699 32.0876 30.4267C31.1181 31.5287 30.0811 32.5749 29.0259 33.5964C28.2195 34.377 27.2079 34.792 26.0904 34.9357C26.0134 34.9457 25.9393 34.9777 25.8638 34.9995H24.5637C24.4884 34.9795 24.4141 34.9529 24.3375 34.9395C23.5997 34.805 22.849 34.7193 22.1257 34.5305C19.5571 33.858 17.2138 32.6646 14.9872 31.2566C9.40335 27.7254 5.10985 23.0131 2.10665 17.1195C1.26219 15.4642 0.601041 13.7313 0.240416 11.902C0.124015 11.3137 0.078536 10.7114 0 10.1155V9.63712ZM2.01449 9.92977C2.05135 10.3261 2.08241 10.723 2.12768 11.1186C2.14772 11.2987 2.1924 11.4764 2.23226 11.654C2.7732 14.068 3.78576 16.2898 5.07579 18.3812C8.50973 23.9478 13.0796 28.2998 18.9799 31.2002C20.796 32.0931 22.6707 32.8143 24.7148 32.9911C25.9748 33.1002 27.0827 32.8015 27.9814 31.8639C28.7227 31.0909 29.4796 30.3333 30.2275 29.5668C30.3397 29.4534 30.445 29.3334 30.5431 29.2075C31.0239 28.584 31.0239 27.9313 30.4936 27.3472C29.9575 26.7577 29.3817 26.2041 28.8187 25.6392C27.9418 24.7585 27.0673 23.8777 26.1795 23.0084C25.5368 22.3795 24.8532 22.3757 24.1789 22.971C24.0765 23.0612 23.9785 23.1579 23.8826 23.2544C23.0996 24.0351 22.3216 24.8201 21.5337 25.5951C20.9857 26.134 20.3745 26.2641 19.7221 25.9404C19.061 25.612 18.4017 25.2669 17.7788 24.8723C15.6429 23.522 13.8009 21.8298 12.1462 19.93C11.0135 18.629 9.97948 17.2588 9.24441 15.6865C8.62233 14.3566 8.70547 13.9943 9.77332 12.9657C10.5362 12.2307 11.296 11.4899 12.022 10.7196C12.6164 10.0895 12.5976 9.45737 12.0378 8.79803C11.9715 8.71996 11.9028 8.6435 11.8303 8.57104C10.5014 7.23994 9.17128 5.91044 7.83977 4.58254C7.68791 4.43161 7.51501 4.29049 7.32809 4.18841C6.74267 3.86814 6.14744 4.00486 5.5424 4.59855C4.78589 5.34096 4.05602 6.1106 3.28749 6.84041C2.39555 7.68631 1.97201 8.70375 2.01449 9.92977Z" fill="#00009B"/>
<path d="M19.4703 0C19.8894 0.0858711 20.3959 0.16874 20.8916 0.294244C23.9272 1.06308 26.6249 2.47325 28.9559 4.57079C31.3745 6.74719 33.1536 9.35735 34.2036 12.4373C34.5326 13.4021 34.7445 14.4087 34.9721 15.4052C35.1016 15.9732 34.7698 16.4354 34.2267 16.5583C33.7156 16.674 33.2145 16.3922 33.0646 15.8577C32.9078 15.3003 32.8132 14.7256 32.6599 14.1669C31.6294 10.4086 29.5111 7.38152 26.4041 5.04958C24.371 3.52292 22.088 2.5311 19.5865 2.0503C19.397 2.01387 19.204 1.97764 19.0255 1.91018C18.581 1.74184 18.3301 1.27446 18.4149 0.809271C18.4966 0.352692 18.9175 0.00260216 19.4703 0Z" fill="#00009B"/>
<path d="M19.2047 6.35457C20.1094 6.49309 21.0525 6.7517 21.9442 7.16645C25.5945 8.86425 27.8251 11.6856 28.6358 15.6305C28.756 16.2153 28.4395 16.7366 27.8929 16.8663C27.3734 16.9894 26.8653 16.6661 26.6948 16.1057C26.4672 15.3566 26.3204 14.5708 25.998 13.8652C24.6226 10.8529 22.2846 9.01498 19.0348 8.34222C18.4447 8.22012 18.1264 7.87704 18.1204 7.36561C18.1146 6.78933 18.5571 6.34757 19.2047 6.35457Z" fill="#00009B"/>
</g>
<defs>
<clipPath id="clip0_185_777">
<rect width="35" height="35" fill="white"/>
</clipPath>
</defs>
</svg>
