<svg width="12" height="23" viewBox="0 0 12 23" fill="none" xmlns="http://www.w3.org/2000/svg">
<path d="M0.383154 12.2498H2.98714V22.629C2.98714 22.834 3.15864 23 3.3703 23H7.78546C7.99711 23 8.16861 22.834 8.16861 22.629V12.2987H11.1621C11.3568 12.2987 11.5205 12.1573 11.5427 11.9701L11.9974 8.14897C12.0099 8.04384 11.9755 7.93856 11.9028 7.85969C11.8301 7.78075 11.726 7.73557 11.6168 7.73557H8.16877V5.3403C8.16877 4.61825 8.57031 4.25211 9.36237 4.25211C9.47525 4.25211 11.6168 4.25211 11.6168 4.25211C11.8285 4.25211 12 4.08599 12 3.88114V0.373713C12 0.16879 11.8285 0.00274516 11.6168 0.00274516H8.50985C8.48793 0.00170645 8.43927 0 8.36755 0C7.82845 0 5.9546 0.102461 4.4744 1.42088C2.83434 2.8819 3.06232 4.63124 3.1168 4.93454V7.73549H0.383154C0.1715 7.73549 0 7.90154 0 8.10646V11.8788C0 12.0837 0.1715 12.2498 0.383154 12.2498Z" fill="#3B579D"/>
</svg>
