<svg width="34" height="35" viewBox="0 0 34 35" fill="none" xmlns="http://www.w3.org/2000/svg">
<g clip-path="url(#clip0_185_785)">
<path d="M16.0737 35H18.1331C18.2403 34.9796 18.3466 34.9484 18.4545 34.9401C20.8922 34.7533 23.189 34.0724 25.3328 32.8576C31.7753 29.2076 35.1847 21.1008 33.6238 14.074C32.8819 10.7345 31.5389 7.70636 29.2577 5.19251C25.323 0.856709 20.3617 -0.505337 14.7909 0.159626C11.9575 0.497868 9.36605 1.60781 7.03049 3.30226C3.31548 5.99731 1.04199 9.64885 0.264041 14.2687C0.14935 14.9505 0.0868058 15.6416 0 16.3278V18.6537C0.0200079 18.7744 0.0497834 18.8944 0.0584482 19.0161C0.227806 21.3967 0.7885 23.672 1.908 25.7677C4.58826 30.7855 8.81213 33.5909 14.1741 34.7223C14.7995 34.854 15.4401 34.9093 16.0737 35ZM4.73604 7.07546C4.79386 7.09964 4.81906 7.10255 4.83308 7.11716C5.90658 8.23002 7.0913 9.19478 8.40079 9.99909C8.47326 10.0435 8.52021 10.2282 8.49705 10.3274C8.08901 12.0777 7.83591 13.8624 7.74084 15.6596C7.71895 16.0757 7.70051 16.492 7.68035 16.9112H1.11209C1.27042 13.2066 2.47342 9.9441 4.73604 7.07546ZM4.75179 27.8929C2.72359 25.6756 0.684364 20.0752 1.17558 18.0729H7.69059C7.73785 20.3861 8.00945 22.6499 8.54982 24.8492C7.87444 25.333 7.20173 25.7729 6.57582 26.2745C5.9499 26.7761 5.3703 27.3399 4.75195 27.8929H4.75179ZM32.8515 18.0713C33.157 20.5765 31.1066 26.1311 29.223 27.9036C29.16 27.8455 29.0937 27.7886 29.0327 27.7252C28.0458 26.7023 26.9552 25.8138 25.7473 25.0857C25.4952 24.9337 25.4678 24.7874 25.5335 24.5162C25.9163 22.9338 26.1479 21.326 26.2458 19.6981C26.2782 19.1571 26.3056 18.6159 26.3354 18.0711L32.8515 18.0713ZM32.8955 16.911H26.3365C26.3263 16.8277 26.3126 16.7624 26.3113 16.6969C26.2669 14.55 26.012 12.4304 25.506 10.3471C25.4565 10.1433 25.5118 10.0469 25.6811 9.94377C26.9014 9.20201 28.0245 8.30246 29.0229 7.26705C29.0905 7.19713 29.166 7.13516 29.2547 7.05405C31.5242 9.93712 32.7324 13.1985 32.8956 16.911H32.8955ZM17.566 1.18246C17.6279 1.18246 17.672 1.17597 17.7134 1.18359C17.833 1.20565 17.9526 1.22885 18.0703 1.25967C19.3555 1.59662 20.343 2.39931 21.1928 3.40446C22.3412 4.7631 23.1064 6.34772 23.7079 8.02318C23.8823 8.50986 24.0293 9.00546 24.1916 9.50576C22.0805 10.5927 19.8935 11.1751 17.566 11.264V1.18246ZM16.4386 33.8085C16.3737 33.8044 16.3302 33.806 16.2883 33.7987C15.1321 33.5982 14.1809 32.9965 13.3596 32.1677C11.5272 30.3165 10.5681 27.9721 9.81788 25.4785C11.9132 24.3916 14.1074 23.8085 16.4386 23.7185V33.8085ZM24.1632 25.4827C23.7379 27.3527 22.5793 29.8193 21.4484 31.2654C20.8685 32.0068 20.2117 32.6623 19.4102 33.1492C18.8454 33.4921 18.2472 33.7419 17.5716 33.8133V23.7373C19.2406 23.6427 22.5889 24.5301 24.1632 25.4827ZM16.4416 1.16185V11.2651C14.106 11.164 11.9149 10.5914 9.76637 9.47738C10.1705 8.43459 10.5297 7.38467 10.9794 6.37741C11.6633 4.84373 12.5579 3.45167 13.8492 2.37254C14.598 1.74619 15.4313 1.30185 16.4416 1.16185ZM8.78614 18.0716H16.4317V22.5938C14.0063 22.6859 11.7246 23.2855 9.54061 24.3567C9.05758 22.2632 8.826 20.1924 8.78614 18.0716ZM8.80882 16.9144C8.69413 15.6794 9.23702 11.3384 9.59165 10.646C11.7542 11.719 14.0427 12.2956 16.4373 12.3937V16.9144H8.80882ZM24.464 24.3596C22.2554 23.2661 19.9679 22.6861 17.5682 22.5897V18.0744H25.2214C25.1768 20.1953 24.9505 22.2666 24.464 24.3596ZM25.1887 16.9094H17.5649V12.3909C19.9857 12.3068 22.2778 11.7122 24.4518 10.6323C24.8717 12.1324 25.3193 15.9591 25.189 16.9094H25.1887ZM21.0842 1.70028C23.9683 2.47718 26.426 3.98231 28.5101 6.1988C27.4996 7.28181 26.3991 8.1966 25.1472 8.95663C24.2885 6.21778 23.1326 3.6976 21.0845 1.70028H21.0842ZM28.5101 28.7908C26.4251 31.0023 23.969 32.5058 21.0899 33.2845C23.1316 31.2837 24.2893 28.766 25.148 26.033C26.4021 26.793 27.5001 27.7112 28.5101 28.7908ZM8.85955 26.0289C9.71642 28.7608 10.8717 31.2813 12.9533 33.2692C11.156 33.1706 6.40882 30.268 5.53179 28.7447C6.51832 27.6968 7.6093 26.7828 8.85955 26.0289ZM5.49713 6.19069C7.58598 3.98036 10.037 2.4801 12.9057 1.70547C10.8641 3.70571 9.7169 6.22751 8.85798 8.94657C7.60236 8.18606 6.50965 7.27484 5.49713 6.19069Z" fill="#00009B"/>
</g>
<defs>
<clipPath id="clip0_185_785">
<rect width="34" height="35" fill="white" transform="matrix(1 0 0 -1 0 35)"/>
</clipPath>
</defs>
</svg>
