<svg width="23" height="27" viewBox="0 0 23 27" fill="none" xmlns="http://www.w3.org/2000/svg">
<g clip-path="url(#clip0_188_27)">
<path d="M23 7.313C21.4544 7.30921 19.9731 6.67398 18.8802 5.54624C17.7873 4.41849 17.1717 2.89003 17.168 1.29517H12.7747V18.8042C12.7725 19.533 12.5611 20.2448 12.1671 20.8497C11.7732 21.4547 11.2144 21.9256 10.5613 22.2031C9.90814 22.4805 9.18999 22.5521 8.49748 22.4087C7.80498 22.2654 7.16916 21.9135 6.67031 21.3975C6.17146 20.8816 5.83194 20.2247 5.69461 19.5098C5.55729 18.7949 5.62832 18.054 5.89873 17.3807C6.16915 16.7074 6.62683 16.1319 7.21398 15.7268C7.80114 15.3217 8.49145 15.1052 9.19775 15.1047C9.57845 15.104 9.95726 15.16 10.3225 15.2709V10.6629C8.71702 10.4264 7.07984 10.7017 5.63026 11.452C4.18067 12.2024 2.98791 13.3919 2.21175 14.8612C1.43558 16.3306 1.11309 18.0096 1.28747 19.6733C1.46184 21.337 2.12476 22.9061 3.18742 24.1702C4.25007 25.4343 5.66172 26.3332 7.23325 26.7464C8.80478 27.1596 10.4612 27.0673 11.9805 26.4821C13.4998 25.8968 14.8095 24.8464 15.7342 23.4716C16.6588 22.0968 17.1543 20.4633 17.1542 18.7899V9.5224C18.7997 10.9112 20.8603 11.6696 22.9861 11.6688L23 7.313Z" fill="#FF1352"/>
<path d="M21.7586 6.03224C20.213 6.02845 18.7318 5.39322 17.6389 4.26547C16.546 3.13773 15.9304 1.60927 15.9267 0.0144043H11.5278V17.5091C11.5278 18.238 11.3183 18.9505 10.9259 19.5565C10.5335 20.1625 9.9757 20.6349 9.32312 20.9138C8.67054 21.1927 7.95246 21.2657 7.25968 21.1235C6.5669 20.9813 5.93055 20.6303 5.43109 20.1149C4.93162 19.5995 4.59148 18.9429 4.45368 18.228C4.31588 17.5132 4.3866 16.7722 4.65691 16.0988C4.92722 15.4255 5.38497 14.8499 5.97228 14.445C6.55958 14.04 7.25007 13.8239 7.95642 13.8239C8.33712 13.8232 8.71593 13.8792 9.08115 13.9901V9.38216C7.47569 9.1456 5.83851 9.42093 4.38892 10.1713C2.93934 10.9216 1.74658 12.1111 0.970414 13.5805C0.194251 15.0498 -0.128242 16.7288 0.0461339 18.3925C0.22051 20.0563 0.883427 21.6253 1.94608 22.8894C3.00874 24.1536 4.42038 25.0524 5.99192 25.4656C7.56345 25.8788 9.21982 25.7866 10.7391 25.2013C12.2585 24.616 13.5682 23.5656 14.4928 22.1908C15.4175 20.8161 15.913 19.1825 15.9128 17.5091V8.24164C17.559 9.62919 19.6192 10.3874 21.7448 10.388L21.7586 6.03224Z" fill="#00F1EA"/>
<path d="M21.7586 7.16415C20.3723 6.85866 19.1406 6.04398 18.2928 4.87164C17.1445 3.99764 16.3455 2.72061 16.0461 1.28101H12.7747V18.79C12.7758 19.598 12.5196 20.3839 12.0454 21.0269C11.5713 21.6698 10.9055 22.1342 10.1506 22.3485C9.39562 22.5628 8.59334 22.5151 7.86722 22.2129C7.14109 21.9106 6.53135 21.3705 6.13184 20.6756C5.4598 20.2628 4.93768 19.6337 4.64567 18.885C4.35365 18.1363 4.30789 17.3094 4.51542 16.5313C4.72294 15.7531 5.17227 15.0668 5.7944 14.5777C6.41653 14.0886 7.17705 13.8238 7.95918 13.8239C8.33988 13.8232 8.71869 13.8792 9.0839 13.9901V10.5829C7.59388 10.6019 6.13901 11.0526 4.88511 11.8834C3.63121 12.7142 2.62872 13.8918 1.99188 15.2819C1.35504 16.6721 1.10947 18.2189 1.28316 19.746C1.45685 21.2732 2.04281 22.7193 2.97427 23.9195C4.14439 24.8892 5.55643 25.4977 7.04737 25.6746C8.53831 25.8515 10.0473 25.5897 11.4002 24.9194C12.7531 24.2491 13.8947 23.1977 14.6932 21.8864C15.4917 20.5752 15.9145 19.0577 15.9128 17.5091V8.24163C17.559 9.62918 19.6191 10.3874 21.7447 10.388L21.7586 7.16415Z" fill="black"/>
</g>
<defs>
<clipPath id="clip0_188_27">
<rect width="23" height="27" fill="white"/>
</clipPath>
</defs>
</svg>
