<svg width="16" height="19" viewBox="0 0 16 19" fill="none" xmlns="http://www.w3.org/2000/svg">
<path d="M8 2C9.609 2 11.12 2.614 12.254 3.73C13.379 4.837 14 6.309 14 7.87C14 9.431 13.38 10.9 12.255 12.009L8 16.193L3.746 12.007C2.621 10.9 2.001 9.431 2.001 7.868C2.001 6.305 2.621 4.836 3.746 3.727C4.88 2.614 6.392 2 8 2ZM8 0C5.953 0 3.904 0.768 2.343 2.305C-0.781 5.379 -0.781 10.362 2.343 13.436L8 18.999L13.657 13.434C16.781 10.362 16.781 5.378 13.657 2.305C12.096 0.768 10.048 0 8 0Z" fill="#00009B"/>
<path d="M8.00001 5.49902C8.66801 5.49902 9.29601 5.75902 9.76801 6.23002C10.744 7.20602 10.744 8.79202 9.76801 9.76702C9.29501 10.239 8.66801 10.498 8.00001 10.498C7.33201 10.498 6.70501 10.238 6.23201 9.76702C5.25601 8.79102 5.25601 7.20502 6.23201 6.23002C6.70501 5.75902 7.33301 5.49902 8.00001 5.49902ZM8.00001 4.49902C7.10401 4.49902 6.20801 4.84102 5.52501 5.52302C4.15801 6.89002 4.15801 9.10702 5.52501 10.474C6.20901 11.158 7.10301 11.498 8.00001 11.498C8.89701 11.498 9.79201 11.156 10.475 10.474C11.841 9.10702 11.841 6.89002 10.475 5.52302C9.79201 4.84002 8.89601 4.49902 8.00001 4.49902Z" fill="#00009B"/>
</svg>
