<svg width="4" height="8" viewBox="0 0 4 8" fill="none" xmlns="http://www.w3.org/2000/svg">
<path d="M2 2.28506H3V3.24765H2V2.28506Z" fill="#888888"/>
<path d="M0 2.28506H1V3.24765H0V2.28506Z" fill="#888888"/>
<path d="M1 3.24765H2V4.21025H1V3.24765Z" fill="#888888"/>
<path d="M0 0.359863H1V1.32246H0V0.359863Z" fill="#888888"/>
<path d="M1 1.32246H2V2.28506H1V1.32246Z" fill="#888888"/>
<path d="M3 3.24765H4V4.21025H3V3.24765Z" fill="#888888"/>
<path d="M2 4.21025H3V5.17285H2V4.21025Z" fill="#888888"/>
<path d="M1 5.17285H2V6.13544H1V5.17285Z" fill="#888888"/>
<path d="M0 6.13544H1V7.09804H0V6.13544Z" fill="#888888"/>
<path d="M0 4.21025H1V5.17285H0V4.21025Z" fill="#888888"/>
</svg>
