<svg width="32" height="30" viewBox="0 0 32 30" fill="none" xmlns="http://www.w3.org/2000/svg">
<g clip-path="url(#clip0_363_551)">
<path d="M0 3.74658H7.43703C7.85451 5.6157 8.27199 7.47733 8.68947 9.36643H9.0652C11.7838 9.36643 14.5022 9.36477 17.2203 9.36144C17.4391 9.36144 17.5418 9.42138 17.6286 9.63202C17.8474 10.1674 18.1079 10.6852 18.3642 11.2372H15.6748C15.7808 12.5036 15.8835 13.7349 15.9871 14.973H19.883C19.9387 14.3335 19.9943 13.6975 20.05 13.0647C20.6236 13.4177 21.1797 13.7557 21.7291 14.1054C21.7566 14.1322 21.7782 14.1644 21.7926 14.1999C21.8069 14.2355 21.8137 14.2736 21.8126 14.3119C21.8126 14.5192 21.7909 14.7282 21.775 14.9863H22.1032C23.0216 14.9863 23.9401 14.9638 24.8527 14.9921C25.9448 15.0254 26.9977 14.8356 28.0389 14.5392C28.0857 14.5259 28.1341 14.515 28.2326 14.4901C27.538 17.1693 26.8533 19.8094 26.1603 22.4827H8.79301C8.65802 22.4759 8.52269 22.482 8.38888 22.5011C8.1658 22.5457 7.96663 22.6698 7.82858 22.8502C7.69052 23.0305 7.62302 23.2548 7.63866 23.4812C7.65431 23.7075 7.75203 23.9204 7.91359 24.0802C8.07516 24.24 8.28951 24.3356 8.51663 24.3494C8.62017 24.3569 8.72537 24.3494 8.82891 24.3494H26.3506V26.2135H24.3517C24.7174 27.6397 24.3617 28.7945 23.1168 29.5621C22.1265 30.179 21.0728 30.1391 20.116 29.473C18.9837 28.6887 18.6656 27.5764 19.0205 26.2418H14.9834C15.3425 27.6397 14.9834 28.7945 13.7418 29.5629C12.7482 30.1765 11.7095 30.1174 10.736 29.4797C9.69393 28.7928 9.37164 27.7987 9.63883 26.2243C9.26309 26.2243 8.89237 26.231 8.52248 26.2243C7.20991 26.1993 6.06935 25.2652 5.81302 24.0105C5.545 22.7009 6.18124 21.4046 7.39945 20.8734C7.74429 20.7235 8.13756 20.6744 8.51413 20.6145C8.74708 20.5778 8.99006 20.6078 9.2656 20.6078C8.15259 15.6007 7.04626 10.6253 5.93325 5.62153H0V3.74658ZM9.93607 14.9688H14.1042C14.0007 13.7199 13.898 12.4936 13.7944 11.2589H9.11113C9.38917 12.5069 9.66137 13.7324 9.93607 14.9688ZM21.2999 20.6053C22.4154 20.6053 23.4758 20.6053 24.5363 20.5986C24.5811 20.5919 24.6237 20.5743 24.6602 20.5475C24.6967 20.5207 24.7261 20.4853 24.7458 20.4446C25.0631 19.2624 25.3679 18.0768 25.6802 16.8729H21.6122C21.5087 18.1109 21.406 19.339 21.2999 20.6053ZM11.1885 20.5861H14.576C14.4716 19.3373 14.3689 18.1093 14.2654 16.8795H10.3611C10.6391 18.1284 10.9113 19.3531 11.1885 20.5861ZM16.1474 16.8737C16.2534 18.1376 16.3561 19.3648 16.458 20.5828H19.4213C19.524 19.334 19.6258 18.1101 19.7277 16.8737H16.1474ZM12.3065 28.0976C12.4926 28.0989 12.6749 28.045 12.8302 27.9428C12.9855 27.8406 13.1068 27.6947 13.1787 27.5236C13.2507 27.3525 13.27 27.1639 13.2342 26.9818C13.1984 26.7997 13.1091 26.6324 12.9777 26.501C12.8463 26.3696 12.6787 26.2801 12.4962 26.244C12.3137 26.2078 12.1245 26.2265 11.9527 26.2978C11.7809 26.3691 11.6342 26.4896 11.5313 26.6442C11.4284 26.7988 11.3739 26.9804 11.3747 27.1659C11.3784 27.4118 11.4779 27.6465 11.6521 27.8204C11.8264 27.9943 12.0617 28.0937 12.3082 28.0976H12.3065ZM21.6849 26.226C21.499 26.2268 21.3176 26.2827 21.1636 26.3864C21.0096 26.4902 20.89 26.6372 20.8199 26.8089C20.7498 26.9805 20.7324 27.1691 20.7699 27.3506C20.8074 27.5321 20.8981 27.6984 21.0305 27.8285C21.1629 27.9585 21.3311 28.0465 21.5137 28.0811C21.6963 28.1157 21.8851 28.0955 22.0561 28.023C22.2272 27.9506 22.3728 27.8291 22.4745 27.674C22.5763 27.5188 22.6295 27.3371 22.6275 27.1518C22.6225 26.9054 22.5212 26.6706 22.345 26.4977C22.1689 26.3247 21.932 26.2272 21.6849 26.226Z" fill="#00009B"/>
<path d="M18.875 6.53901C18.881 4.80428 19.5756 3.14249 20.807 1.91709C22.0385 0.691691 23.7064 0.00241111 25.4462 0C29.0708 0 32.014 2.96312 31.9998 6.58813C31.9899 8.323 31.2913 9.98333 30.0569 11.2059C28.8224 12.4286 27.1527 13.1139 25.4128 13.1121C21.8041 13.1013 18.87 10.1507 18.875 6.53901ZM22.6374 7.50978H24.5127V9.34144H26.3914V7.47981H28.2283V5.6032H26.3621V3.77154H24.4835V5.63234H22.6374V7.50978Z" fill="#00009B"/>
</g>
<defs>
<clipPath id="clip0_363_551">
<rect width="32" height="30" fill="white"/>
</clipPath>
</defs>
</svg>
