<svg width="7" height="7" viewBox="0 0 7 7" fill="none" xmlns="http://www.w3.org/2000/svg">
<path d="M3 0L4 0V1L3 1V0Z" fill="#333333"/>
<path d="M4 1L5 1V2L4 2V1Z" fill="#333333"/>
<path d="M5 2H6V3L5 3V2Z" fill="#333333"/>
<path d="M6 3H7L7 4H6L6 3Z" fill="#333333"/>
<path d="M5 4L6 4V5H5V4Z" fill="#333333"/>
<path d="M4 5H5V6H4V5Z" fill="#333333"/>
<path d="M3 6L4 6V7L3 7V6Z" fill="#333333"/>
<path d="M0 0L1 0L1 1L0 1L0 0Z" fill="#333333"/>
<path d="M1 1L2 1L2 2H1V1Z" fill="#333333"/>
<path d="M2 2L3 2V3H2V2Z" fill="#333333"/>
<path d="M3 3H4L4 4H3V3Z" fill="#333333"/>
<path d="M2 4H3V5H2V4Z" fill="#333333"/>
<path d="M1 5H2L2 6H1V5Z" fill="#333333"/>
<path d="M0 6H1L1 7H0L0 6Z" fill="#333333"/>
</svg>
