<svg width="7" height="7" viewBox="0 0 7 7" fill="none" xmlns="http://www.w3.org/2000/svg">
<path d="M4 7L3 7L3 6L4 6L4 7Z" fill="#333333"/>
<path d="M3 6L2 6L2 5L3 5L3 6Z" fill="#333333"/>
<path d="M2 5L1 5L1 4L2 4L2 5Z" fill="#333333"/>
<path d="M1 4L2.62268e-07 4L3.49691e-07 3L1 3L1 4Z" fill="#333333"/>
<path d="M2 3L1 3L1 2L2 2L2 3Z" fill="#333333"/>
<path d="M3 2L2 2L2 1L3 1L3 2Z" fill="#333333"/>
<path d="M4 1L3 1L3 -3.49691e-07L4 -2.62268e-07L4 1Z" fill="#333333"/>
<path d="M7 7L6 7L6 6L7 6L7 7Z" fill="#333333"/>
<path d="M6 6L5 6L5 5L6 5L6 6Z" fill="#333333"/>
<path d="M5 5L4 5L4 4L5 4L5 5Z" fill="#333333"/>
<path d="M4 4L3 4L3 3L4 3L4 4Z" fill="#333333"/>
<path d="M5 3L4 3L4 2L5 2L5 3Z" fill="#333333"/>
<path d="M6 2L5 2L5 1L6 1L6 2Z" fill="#333333"/>
<path d="M7 1L6 1L6 -8.74228e-08L7 0L7 1Z" fill="#333333"/>
</svg>
