<svg width="241" height="58" viewBox="0 0 241 58" fill="none" xmlns="http://www.w3.org/2000/svg">
<path d="M1.79983 0H0V57.8226H1.79983V0Z" fill="black"/>
<path d="M4.51418 0H2.71435V57.8226H4.51418V0Z" fill="black"/>
<path d="M35.9966 0H34.1968V57.8226H35.9966V0Z" fill="black"/>
<path d="M41.573 0H39.7732V57.8226H41.573V0Z" fill="black"/>
<path d="M56.1488 0H54.3489V57.8226H56.1488V0Z" fill="black"/>
<path d="M58.9222 0H57.1223V57.8226H58.9222V0Z" fill="black"/>
<path d="M61.9614 0H60.1615V57.8226H61.9614V0Z" fill="black"/>
<path d="M78.7498 0H76.95V57.8226H78.7498V0Z" fill="black"/>
<path d="M93.2371 0H91.4372V57.8226H93.2371V0Z" fill="black"/>
<path d="M99.0791 0H97.2793V57.8226H99.0791V0Z" fill="black"/>
<path d="M101.794 0H99.9938V57.8226H101.794V0Z" fill="black"/>
<path d="M104.626 0H102.826V57.8226H104.626V0Z" fill="black"/>
<path d="M124.601 0H122.801V57.8226H124.601V0Z" fill="black"/>
<path d="M127.434 0H125.634V57.8226H127.434V0Z" fill="black"/>
<path d="M136.079 0H134.279V57.8226H136.079V0Z" fill="black"/>
<path d="M147.556 0H145.757V57.8226H147.556V0Z" fill="black"/>
<path d="M150.241 0H148.441V57.8226H150.241V0Z" fill="black"/>
<path d="M159.004 0H157.205V57.8226H159.004V0Z" fill="black"/>
<path d="M164.67 0H162.87V57.8226H164.67V0Z" fill="black"/>
<path d="M176.324 0H174.524V57.8226H176.324V0Z" fill="black"/>
<path d="M187.743 0H185.943V57.8226H187.743V0Z" fill="black"/>
<path d="M196.358 0H194.559V57.8226H196.358V0Z" fill="black"/>
<path d="M201.846 0H200.046V57.8226H201.846V0Z" fill="black"/>
<path d="M216.156 0H214.357V57.8226H216.156V0Z" fill="black"/>
<path d="M232.561 0H228.165V57.8226H232.561V0Z" fill="black"/>
<path d="M241 0H236.604V57.8226H241V0Z" fill="black"/>
<path d="M221.29 0H219.491V57.8226H221.29V0Z" fill="black"/>
<path d="M224.182 0H222.382V57.8226H224.182V0Z" fill="black"/>
<path d="M235.453 0H233.653V57.8226H235.453V0Z" fill="black"/>
<path d="M227.103 0.177366H225.303V58H227.103V0.177366Z" fill="black"/>
<path d="M173.374 0H171.574V57.8226H173.374V0Z" fill="black"/>
<path d="M113.271 0H111.471V57.8226H113.271V0Z" fill="black"/>
<path d="M24.6665 0H22.8667V57.8226H24.6665V0Z" fill="black"/>
<path d="M21.5391 0H17.3493V57.8226H21.5391V0Z" fill="black"/>
<path d="M33.0756 0H28.8858V57.8226H33.0756V0Z" fill="black"/>
<path d="M47.2086 0H43.0188V57.8226H47.2086V0Z" fill="black"/>
<path d="M52.9621 0H48.7724V57.8226H52.9621V0Z" fill="black"/>
<path d="M70.2523 0H66.0626V57.8226H70.2523V0Z" fill="black"/>
<path d="M75.8288 0H71.639V57.8226H75.8288V0Z" fill="black"/>
<path d="M84.6214 0H80.4316V57.8226H84.6214V0Z" fill="black"/>
<path d="M90.1685 0H85.9787V57.8226H90.1685V0Z" fill="black"/>
<path d="M110.262 0H106.072V57.8226H110.262V0Z" fill="black"/>
<path d="M118.848 0H114.658V57.8226H118.848V0Z" fill="black"/>
<path d="M132.715 0H128.525V57.8226H132.715V0Z" fill="black"/>
<path d="M141.655 0H137.466V57.8226H141.655V0Z" fill="black"/>
<path d="M156.142 0H151.953V57.8226H156.142V0Z" fill="black"/>
<path d="M170.305 0H166.115V57.8226H170.305V0Z" fill="black"/>
<path d="M181.606 0H177.416V57.8226H181.606V0Z" fill="black"/>
<path d="M192.877 0H188.687V57.8226H192.877V0Z" fill="black"/>
<path d="M207.305 0H203.115V57.8226H207.305V0Z" fill="black"/>
<path d="M213.117 0H208.927V57.8226H213.117V0Z" fill="black"/>
<path d="M15.5198 0H13.72V57.8226H15.5198V0Z" fill="black"/>
<path d="M9.94344 0H5.8422V57.8226H9.94344V0Z" fill="black"/>
</svg>
