<svg width="18" height="20" viewBox="0 0 18 20" fill="none" xmlns="http://www.w3.org/2000/svg">
<g clip-path="url(#clip0_539_681)">
<path d="M0.00555157 10.0045C0.00555157 8.48512 0.0112723 6.96492 -0.000169204 5.44471C-0.00949502 5.32535 0.0178963 5.20598 0.0784159 5.10226C0.138936 4.99854 0.229761 4.91529 0.338991 4.86343C3.1182 3.28268 5.89277 1.69628 8.66271 0.10422C8.76232 0.0363479 8.88046 0 9.00146 0C9.12247 0 9.24061 0.0363479 9.34022 0.10422C12.1134 1.69466 14.8896 3.27945 17.6688 4.85859C17.8969 4.98857 17.9957 5.1347 17.9957 5.40757C17.9859 8.43829 17.9859 11.4685 17.9957 14.4981C17.9957 14.821 17.896 15.014 17.6116 15.1755C14.8711 16.7379 12.1333 18.3071 9.39824 19.883C9.1261 20.0404 8.91606 20.038 8.64147 19.883C5.88841 18.298 3.12964 16.7234 0.365143 15.1593C0.101987 15.01 -0.000169204 14.8356 -0.000169204 14.532C0.0129068 13.0247 0.00555157 11.515 0.00555157 10.0045ZM0.7468 5.94041C0.73781 6.04698 0.724734 6.12287 0.724734 6.19876C0.724734 8.89578 0.7231 11.5933 0.719831 14.2914C0.713805 14.3696 0.732403 14.4478 0.773075 14.5151C0.813748 14.5825 0.874507 14.6357 0.947027 14.6677C3.43638 16.0794 5.92328 17.4949 8.40773 18.9142C8.47685 18.9488 8.54778 18.9798 8.62022 19.0071C8.62675 18.9433 8.63166 18.9134 8.63166 18.8835C8.63166 16.1386 8.63384 13.391 8.6382 10.6407C8.6382 10.4381 8.53849 10.363 8.39302 10.2782C5.93145 8.87883 3.47152 7.47757 1.01322 6.07443C0.933134 6.03164 0.853043 5.9945 0.7468 5.94041ZM9.36719 19.0329C9.47506 18.9788 9.53064 18.9522 9.58131 18.9255C12.0772 17.5035 14.5742 16.0821 17.0722 14.6612C17.261 14.5546 17.2774 14.419 17.2774 14.2422C17.2774 11.5834 17.2774 8.92484 17.2774 6.26657C17.2774 6.16324 17.2668 6.0607 17.2594 5.92427C17.1344 5.98966 17.0535 6.02841 16.9758 6.07281C16.0997 6.57013 15.2318 7.07552 14.3516 7.56073C14.1383 7.6786 14.055 7.80292 14.059 8.05077C14.0746 9.02765 14.0656 10.0045 14.0656 10.9814C14.0656 11.0524 14.0656 11.1227 14.0656 11.1929C14.0525 11.4844 13.9111 11.6547 13.6806 11.6361C13.411 11.6143 13.33 11.4375 13.3309 11.1945C13.3309 10.2984 13.3309 9.40225 13.3309 8.50611V8.16784C13.2328 8.21224 13.1952 8.22597 13.1609 8.24857C11.9513 8.93642 10.7459 9.62911 9.53145 10.3081C9.35574 10.4066 9.368 10.5349 9.368 10.6851C9.368 13.3638 9.368 16.0425 9.368 18.7213L9.36719 19.0329ZM12.9304 7.51713C12.8487 7.46304 12.7915 7.42348 12.7318 7.38957C10.237 5.96652 7.74412 4.54265 5.25313 3.11799C5.19215 3.07608 5.11931 3.0543 5.04504 3.05575C4.97077 3.0572 4.89887 3.08181 4.8396 3.12606C4.47429 3.34565 4.10408 3.55152 3.73059 3.76223L1.10312 5.25903C1.17994 5.30989 1.22816 5.34622 1.28047 5.37609C3.79216 6.80829 6.30548 8.23781 8.82044 9.66463C8.87971 9.69001 8.94381 9.7025 9.0084 9.70124C9.07298 9.69999 9.13653 9.68502 9.19475 9.65736C10.3642 9.00504 11.5264 8.33818 12.6893 7.67456C12.7653 7.63177 12.8356 7.57929 12.9304 7.51713ZM5.78435 2.59241C8.41018 4.08759 10.9829 5.55855 13.5605 7.02385C13.6382 7.06745 13.7951 7.04242 13.8825 6.99317C14.8305 6.45872 15.7728 5.91942 16.7151 5.38013C16.7738 5.34209 16.8303 5.30086 16.8843 5.2566C16.7592 5.18233 16.6555 5.11855 16.55 5.05881C14.3189 3.78645 12.0707 2.54397 9.86816 1.2256C9.22907 0.842121 8.76242 0.792873 8.14131 1.2256C7.41232 1.73099 6.60324 2.12255 5.78435 2.58838V2.59241Z" fill="#949494"/>
</g>
<defs>
<clipPath id="clip0_539_681">
<rect width="18" height="20" fill="white"/>
</clipPath>
</defs>
</svg>
