<svg width="21" height="18" viewBox="0 0 21 18" fill="none" xmlns="http://www.w3.org/2000/svg">
<g clip-path="url(#clip0_539_673)">
<path d="M0 12.3081C0 11.8414 0 11.3747 0 10.908C0 10.6824 0.0782579 10.4965 0.298694 10.4099C0.992262 10.1415 1.29633 9.58452 1.40446 8.90644C1.50183 8.30139 1.40147 7.71357 1.0072 7.22549C0.829714 7.01958 0.613108 6.8505 0.369784 6.72792C0.119478 6.59788 0 6.43341 0 6.1579C0.00418172 5.58135 0 5.00243 0 4.4247C0.0101556 3.64152 0.470145 3.07151 1.23839 2.9011C1.29195 2.89384 1.34198 2.87042 1.38172 2.834C1.42146 2.79758 1.449 2.74991 1.46062 2.69744C1.63983 2.1482 1.81905 1.60134 2.00424 1.05389C2.29636 0.181057 3.07416 -0.20014 3.95531 0.103868C6.55594 0.998079 9.15598 1.89367 11.7554 2.79066C11.8879 2.83637 12.0268 2.86063 12.167 2.8625C14.5566 2.86666 16.9509 2.88388 19.3422 2.85597C20.215 2.84528 21.0323 3.47408 20.9988 4.51555C20.9815 5.05528 20.991 5.59679 20.9988 6.13712C21.003 6.434 20.8841 6.61629 20.6039 6.73504C19.9701 7.00402 19.6971 7.54791 19.5943 8.18086C19.4988 8.76928 19.6039 9.33217 19.9528 9.83331C20.1159 10.0843 20.3553 10.2769 20.6362 10.3831C20.8865 10.4728 20.9946 10.6527 20.9946 10.9098C20.9946 11.8284 21.0036 12.7469 20.991 13.6649C20.9803 14.4285 20.4976 14.9919 19.7365 15.1493C19.6063 15.176 19.5573 15.2366 19.5185 15.3553C19.3494 15.8838 19.1702 16.4087 18.994 16.9347C18.6953 17.8189 17.9378 18.1995 17.0525 17.9002C14.4558 17.0206 11.8582 16.1405 9.25952 15.2597C9.11987 15.2122 8.97343 15.1873 8.82582 15.1861C6.44144 15.1814 4.05707 15.1802 1.67269 15.1825C0.627258 15.1825 0 14.5632 0 13.5289C0 13.1224 0 12.7154 0 12.3081ZM4.29343 14.2414C4.29343 14.0663 4.28925 13.9255 4.29343 13.786C4.30478 13.4761 4.48997 13.2748 4.76298 13.2694C5.04674 13.2647 5.24089 13.4683 5.25164 13.7896C5.25642 13.9344 5.25164 14.0793 5.25164 14.2414H19.2962C19.356 14.2414 19.4157 14.2414 19.4755 14.2414C19.8178 14.2159 20.0257 14.0104 20.028 13.6673C20.0346 12.8603 20.0328 12.0528 20.028 11.2459C20.0267 11.2117 20.0182 11.1783 20.0031 11.1476C19.9879 11.1169 19.9665 11.0897 19.9402 11.0677C19.0884 10.5334 18.6762 9.74246 18.6194 8.77225C18.5537 7.64885 18.9283 6.70951 19.9038 6.05815C19.9383 6.0305 19.9667 5.9961 19.9872 5.95708C20.0078 5.91806 20.0201 5.87526 20.0233 5.83133C20.0352 5.39432 20.0298 4.95731 20.0286 4.5203C20.0286 3.996 19.8429 3.80778 19.3189 3.80778H5.25702C5.25702 3.96216 5.2612 4.08744 5.25702 4.21213C5.24447 4.5298 5.04495 4.74058 4.76776 4.73405C4.49057 4.72752 4.30777 4.52148 4.29522 4.21569C4.29044 4.08566 4.29522 3.95503 4.29522 3.81253C3.33223 3.81253 2.4021 3.80362 1.47197 3.81728C1.17327 3.82143 0.972549 4.05478 0.967172 4.36295C0.958809 4.85934 0.961198 5.35572 0.967172 5.85152C0.968546 5.88547 0.976885 5.91878 0.991678 5.94941C1.00647 5.98004 1.0274 6.00735 1.0532 6.02965C1.90866 6.57057 2.32504 7.36859 2.37701 8.34533C2.43675 9.46161 2.05681 10.3914 1.09561 11.0422C1.05867 11.0721 1.02834 11.1093 1.00655 11.1514C0.98475 11.1935 0.971955 11.2396 0.968964 11.2868C0.959406 12.0587 0.961198 12.8271 0.964185 13.5972C0.964185 14.03 1.17387 14.2355 1.60936 14.2385C2.08728 14.242 2.56519 14.2385 3.0431 14.2385L4.29343 14.2414ZM2.40927 2.85003H8.97039C8.85091 2.80134 8.79117 2.77344 8.73143 2.75206L5.97389 1.80085C5.18772 1.53009 4.40216 1.25755 3.6154 0.989172C3.30774 0.884669 3.0664 0.950577 2.97201 1.20352C2.77129 1.74147 2.59864 2.29011 2.40927 2.85003ZM12.0708 15.1944C12.2088 15.2479 12.2877 15.2823 12.3695 15.3102C13.0517 15.5426 13.7346 15.7741 14.418 16.0049C15.4029 16.3386 16.3884 16.6725 17.3744 17.0066C17.7442 17.1313 17.9587 17.0256 18.0841 16.6586C18.2269 16.2389 18.3643 15.8167 18.5023 15.3951C18.522 15.3357 18.5358 15.2704 18.5561 15.1944H12.0708Z" fill="#949494"/>
<path d="M15.1512 6.85871C15.1154 6.91809 15.0664 7.04575 14.9774 7.13481C13.4899 8.62081 11.999 10.1034 10.5047 11.5827C10.2759 11.8089 9.9874 11.8107 9.78787 11.6053C9.58835 11.3998 9.60866 11.1368 9.83148 10.9129C11.321 9.42853 12.8119 7.9457 14.3041 6.46445C14.4684 6.30057 14.6548 6.24416 14.8722 6.3457C15.0634 6.42942 15.1536 6.58083 15.1512 6.85871Z" fill="#949494"/>
<path d="M10.1438 8.29868C9.83732 8.30055 9.53716 8.21179 9.28153 8.04368C9.0259 7.87556 8.82634 7.63569 8.70822 7.35456C8.5901 7.07342 8.55876 6.76373 8.61819 6.46484C8.67761 6.16596 8.82512 5.89139 9.04194 5.67605C9.25877 5.4607 9.53513 5.31431 9.83588 5.25547C10.1366 5.19664 10.4482 5.22803 10.731 5.34565C11.0137 5.46327 11.2549 5.66181 11.4238 5.91602C11.5928 6.17023 11.6818 6.46864 11.6797 6.77329C11.6749 7.17657 11.5115 7.56196 11.2245 7.84703C10.9374 8.1321 10.5496 8.29421 10.1438 8.29868ZM10.7251 6.75786C10.7227 6.6425 10.6861 6.5304 10.6199 6.43565C10.5537 6.3409 10.4607 6.26772 10.3528 6.22529C10.2448 6.18287 10.1266 6.1731 10.0131 6.1972C9.8996 6.22131 9.79578 6.27822 9.71469 6.36078C9.6336 6.44335 9.57887 6.54789 9.55736 6.66128C9.53585 6.77466 9.54854 6.89183 9.59381 6.99808C9.63909 7.10432 9.71494 7.1949 9.81184 7.25843C9.90874 7.32197 10.0224 7.35563 10.1385 7.35518C10.2168 7.35553 10.2944 7.34022 10.3667 7.31014C10.439 7.28007 10.5044 7.23585 10.5592 7.18012C10.6139 7.12439 10.6568 7.05829 10.6853 6.98574C10.7138 6.9132 10.7273 6.8357 10.7251 6.75786Z" fill="#949494"/>
<path d="M14.6828 9.74708C14.9886 9.74766 15.2873 9.83835 15.5412 10.0077C15.7951 10.177 15.9928 10.4173 16.1093 10.6983C16.2258 10.9793 16.2558 11.2883 16.1956 11.5862C16.1354 11.8842 15.9877 12.1577 15.7711 12.3722C15.5546 12.5867 15.2789 12.7326 14.9789 12.7914C14.6789 12.8502 14.3681 12.8192 14.0858 12.7025C13.8036 12.5857 13.5624 12.3884 13.393 12.1354C13.2235 11.8825 13.1333 11.5853 13.1338 11.2814C13.1339 11.0795 13.1742 10.8796 13.2521 10.6932C13.3301 10.5067 13.4443 10.3374 13.5882 10.1949C13.732 10.0524 13.9028 9.93949 14.0906 9.86265C14.2785 9.7858 14.4797 9.74653 14.6828 9.74708ZM14.6739 11.8662C14.7904 11.8662 14.9044 11.8319 15.0014 11.7677C15.0984 11.7035 15.1741 11.6121 15.219 11.5052C15.2639 11.3983 15.276 11.2805 15.2538 11.1668C15.2315 11.0531 15.1759 10.9484 15.0939 10.8661C15.0119 10.7837 14.9073 10.7272 14.7931 10.7038C14.6789 10.6805 14.5603 10.6912 14.4523 10.7346C14.3442 10.7781 14.2515 10.8523 14.1858 10.948C14.1201 11.0437 14.0843 11.1566 14.083 11.2725C14.0819 11.3502 14.0964 11.4274 14.1256 11.4995C14.1548 11.5716 14.1982 11.6372 14.2532 11.6925C14.3082 11.7477 14.3737 11.7916 14.4459 11.8214C14.5182 11.8512 14.5956 11.8665 14.6739 11.8662Z" fill="#949494"/>
<path d="M4.29518 6.41256C4.29518 6.24987 4.28801 6.08718 4.29518 5.92568C4.31071 5.63236 4.49948 5.44295 4.76592 5.43998C5.03236 5.43701 5.23726 5.61811 5.24861 5.91499C5.26175 6.25383 5.26175 6.59307 5.24861 6.9327C5.23786 7.22484 5.03713 7.40772 4.7707 7.40772C4.50426 7.40772 4.3137 7.21712 4.29757 6.9238C4.28801 6.75457 4.29518 6.58416 4.29518 6.41256Z" fill="#949494"/>
<path d="M4.29518 8.98901C4.29518 8.82692 4.28801 8.66422 4.29518 8.50213C4.31131 8.20524 4.49889 8.02058 4.76712 8.01761C5.03534 8.01464 5.23726 8.19931 5.24861 8.49263C5.26175 8.83107 5.26175 9.1713 5.24861 9.50975C5.23726 9.80128 5.03534 9.98476 4.76712 9.98476C4.49889 9.98476 4.31131 9.79178 4.29518 9.49906C4.28801 9.32865 4.29518 9.15883 4.29518 8.98901Z" fill="#949494"/>
<path d="M4.29438 11.5641C4.29438 11.4097 4.28901 11.2541 4.29438 11.0998C4.30693 10.7898 4.49092 10.5957 4.76751 10.5933C5.0441 10.5909 5.24184 10.7827 5.2508 11.0885C5.26116 11.4127 5.26116 11.7371 5.2508 12.0617C5.24184 12.3675 5.04291 12.5622 4.76811 12.5598C4.49331 12.5575 4.30693 12.358 4.29438 12.051C4.28901 11.8889 4.29438 11.7268 4.29438 11.5641Z" fill="#949494"/>
</g>
<defs>
<clipPath id="clip0_539_673">
<rect width="21" height="18" fill="white"/>
</clipPath>
</defs>
</svg>
