<svg width="17" height="17" viewBox="0 0 17 17" fill="none" xmlns="http://www.w3.org/2000/svg">
<g clip-path="url(#clip0_539_661)">
<path d="M9.64249 0C9.93063 0.0901424 10.2378 0.142698 10.5036 0.27708C11.4406 0.750078 11.945 1.52643 11.9969 2.57621C12.0199 3.0399 12.0066 3.50558 12.0013 3.97026C11.9966 4.3621 11.7038 4.65115 11.33 4.64649C10.9636 4.64217 10.6801 4.35611 10.6748 3.97092C10.6691 3.56146 10.6748 3.15199 10.6728 2.74253C10.6701 1.89233 10.1065 1.32885 9.25475 1.32819C7.08819 1.32819 4.92164 1.32819 2.75508 1.32819C1.89365 1.33052 1.33203 1.89166 1.33203 2.75383C1.33203 6.58239 1.33203 10.4112 1.33203 14.2402C1.33203 15.111 1.89365 15.6705 2.76874 15.6705C4.92397 15.6705 7.07942 15.6705 9.23509 15.6705C10.1172 15.6705 10.6728 15.1117 10.6738 14.2265C10.6738 13.8394 10.6718 13.4518 10.6738 13.0647C10.6765 12.6459 10.9573 12.3492 11.343 12.3522C11.7228 12.3552 12.0039 12.6485 12.0013 13.058C11.9979 13.6108 12.0242 14.168 11.9639 14.7152C11.826 15.9615 10.7291 16.9468 9.4726 16.9927C9.06321 17.0077 8.65281 16.9983 8.24275 16.9987C6.40287 16.9987 4.56321 16.9987 2.72377 16.9987C1.5269 16.9973 0.532561 16.3121 0.155146 15.2048C0.0584541 14.9168 0.0086324 14.6151 0.00757792 14.3114C-0.00197127 10.4329 -0.00352579 6.55434 0.00291436 2.67567C0.00491303 1.3202 0.945952 0.242819 2.28739 0.0299366C2.31319 0.0227371 2.3381 0.0126965 2.36168 0L9.64249 0Z" fill="#949494"/>
<path d="M15.1756 7.86782C14.7988 7.49428 14.4571 7.16298 14.124 6.82303C13.8551 6.54828 13.8455 6.16177 14.0876 5.89666C14.3298 5.63156 14.7389 5.58765 14.9974 5.83646C15.5563 6.37365 16.1083 6.9185 16.6389 7.48397C16.8808 7.74076 16.9807 8.07106 16.9977 8.43895C17.0234 9.00209 16.8185 9.44349 16.4208 9.82534C15.9617 10.2664 15.5214 10.7251 15.0663 11.1718C14.7982 11.4359 14.4334 11.4592 14.1649 11.2407C13.8511 10.9862 13.8268 10.5505 14.1203 10.2461C14.4138 9.94176 14.7236 9.64073 15.0234 9.33904C15.061 9.30112 15.0963 9.2612 15.1566 9.19568H7.27353C6.90477 9.19568 6.65327 9.03735 6.55534 8.74663C6.52244 8.65078 6.51202 8.54867 6.52487 8.44817C6.53773 8.34767 6.57351 8.25145 6.62948 8.16693C6.68544 8.08242 6.76009 8.01186 6.84767 7.96069C6.93524 7.90953 7.03342 7.87912 7.13462 7.87181C7.20124 7.86616 7.26786 7.86816 7.33448 7.86816H15.1756V7.86782Z" fill="#949494"/>
</g>
<defs>
<clipPath id="clip0_539_661">
<rect width="17" height="17" fill="white"/>
</clipPath>
</defs>
</svg>
