<svg width="18" height="21" viewBox="0 0 18 21" fill="none" xmlns="http://www.w3.org/2000/svg">
<g clip-path="url(#clip0_539_697)">
<path d="M6.594 0.000178649C6.78223 0.109745 6.84817 0.265877 6.84592 0.478435C6.8369 1.22294 6.85043 1.96799 6.83465 2.71249C6.82777 2.85067 6.76737 2.98121 6.66557 3.07789C6.59569 3.1387 6.40351 3.14747 6.32292 3.09542C6.26946 3.05647 6.22492 3.00713 6.19213 2.95054C6.15933 2.89395 6.139 2.83136 6.13243 2.76672C6.1144 2.10933 6.12341 1.45522 6.12341 0.798916C6.12877 0.696538 6.12877 0.593961 6.12341 0.491583C6.10827 0.397603 6.12088 0.301375 6.15979 0.214092C6.1987 0.126808 6.26231 0.0520578 6.34321 -0.00146484L6.594 0.000178649Z" fill="#949494"/>
<path d="M11.6577 0C11.8307 0.122166 11.8831 0.285968 11.8797 0.493048C11.8696 1.2244 11.8764 1.95521 11.8752 2.68437C11.8752 2.98075 11.7484 3.14564 11.5219 3.14729C11.2953 3.14893 11.1589 2.9802 11.1589 2.69204C11.1589 1.95411 11.164 1.21618 11.1555 0.478256C11.1505 0.265698 11.2153 0.109566 11.4046 0H11.6577Z" fill="#949494"/>
<path d="M9.12646 0C9.31019 0.113401 9.36655 0.278298 9.36373 0.485378C9.35527 1.09566 9.36091 1.69828 9.36091 2.30801C9.36238 2.36288 9.36012 2.41778 9.35415 2.47236C9.3271 2.67615 9.18507 2.80106 8.98895 2.79394C8.9446 2.79549 8.90039 2.78831 8.85897 2.77282C8.81755 2.75734 8.77977 2.73387 8.74792 2.70383C8.71607 2.67379 8.6908 2.6378 8.67363 2.59802C8.65645 2.55824 8.64773 2.5155 8.64799 2.47236C8.63897 1.7558 8.63503 1.03924 8.65532 0.32322C8.65532 0.213654 8.79734 0.108471 8.87342 0.00109566L9.12646 0Z" fill="#949494"/>
<path d="M14.1461 0C14.3389 0.102444 14.4166 0.258576 14.4014 0.47223C14.389 0.655753 14.4014 0.840373 14.3975 1.02444C14.3907 1.2496 14.2436 1.39642 14.0368 1.39587C13.83 1.39533 13.6868 1.2496 13.6812 1.02116C13.6767 0.837085 13.6908 0.652467 13.6778 0.468943C13.662 0.254741 13.7381 0.0986095 13.9353 0H14.1461Z" fill="#949494"/>
<path d="M4.06405 0C4.2613 0.0986096 4.33682 0.254741 4.32217 0.469491C4.30864 0.659041 4.32217 0.852973 4.31709 1.04143C4.30977 1.25398 4.1638 1.39478 3.9626 1.39587C3.91504 1.3967 3.86779 1.38816 3.8237 1.37078C3.77961 1.3534 3.73959 1.32753 3.70606 1.29472C3.67252 1.26192 3.64616 1.22286 3.62855 1.17989C3.61094 1.13693 3.60246 1.09095 3.60361 1.04471C3.59515 0.813529 3.57317 0.576318 3.61262 0.35116C3.63517 0.224611 3.7693 0.116688 3.85327 0H4.06405Z" fill="#949494"/>
<path d="M16.2013 6.98381V5.77858C16.2013 4.60988 16.2013 3.44117 16.2013 2.27246C16.1981 2.19731 16.201 2.12204 16.2097 2.04731C16.2162 1.97129 16.2511 1.90021 16.3078 1.84745C16.3645 1.79468 16.439 1.76386 16.5174 1.76079C16.7012 1.74216 16.8358 1.81941 16.8905 1.99143C16.9145 2.08394 16.9243 2.17936 16.9198 2.27466C16.9198 4.15371 16.9213 6.03296 16.9243 7.91238C16.924 8.02617 16.9502 8.13854 17.001 8.24108C19.718 13.4027 16.6392 19.6518 10.8017 20.8198C5.92505 21.795 1.14763 18.7101 0.178845 13.9528C-0.225802 11.9674 0.0559854 10.0686 0.988701 8.25861C1.04335 8.14984 1.0726 8.03068 1.07436 7.90964C1.07925 6.05798 1.08038 4.20612 1.07775 2.35409C1.07775 2.30588 1.07775 2.25822 1.07775 2.21056C1.08056 1.91035 1.20399 1.75586 1.44069 1.75586C1.67739 1.75586 1.79743 1.90542 1.79743 2.21001C1.79743 3.70742 1.79743 5.20482 1.79743 6.70222V6.98436C3.67188 4.72072 6.05354 3.50618 8.99935 3.50618C11.9451 3.50618 14.3229 4.71798 16.2013 6.98381ZM8.99991 4.19645C4.43496 4.19645 0.731711 7.79405 0.725512 12.2381C0.723415 14.3707 1.59216 16.4169 3.14095 17.9274C4.68973 19.4378 6.79192 20.289 8.98582 20.2939C13.5508 20.3027 17.2771 16.6821 17.2732 12.2408C17.2726 10.1079 16.4008 8.06242 14.8495 6.554C13.2981 5.04558 11.1941 4.19761 8.99991 4.19645Z" fill="#949494"/>
<path d="M3.60039 3.12279C3.60039 2.90366 3.59644 2.68726 3.60039 2.46923C3.60433 2.25119 3.76213 2.09451 3.96164 2.0967C4.16114 2.09889 4.31387 2.25283 4.31556 2.47525C4.32007 2.92447 4.32007 3.3737 4.31556 3.82292C4.31556 4.05027 4.16734 4.19161 3.956 4.18996C3.74466 4.18832 3.60659 4.04808 3.60151 3.81908C3.59644 3.59009 3.60039 3.35617 3.60039 3.12279Z" fill="#949494"/>
<path d="M13.681 3.14779C13.681 2.92318 13.677 2.69802 13.681 2.47396C13.6849 2.2499 13.8376 2.0976 14.0383 2.09815C14.2389 2.09869 14.3939 2.25428 14.3961 2.47451C14.4014 2.92373 14.4014 3.37295 14.3961 3.82217C14.3933 4.05062 14.2474 4.1925 14.0371 4.19196C13.8269 4.19141 13.686 4.05007 13.681 3.82162C13.6759 3.59318 13.681 3.3724 13.681 3.14779Z" fill="#949494"/>
<path d="M5.24101 15.9231C5.32272 15.436 5.42079 14.8641 5.51434 14.2911C5.68341 13.2639 5.76118 13.5378 5.04432 12.8152C4.69772 12.4663 4.34605 12.1217 3.99438 11.7782C3.64271 11.4347 3.50182 11.0211 3.67371 10.545C3.8456 10.0689 4.22263 9.8668 4.7135 9.8016C5.36048 9.71614 6.00408 9.61041 6.6505 9.52221C6.74124 9.51331 6.82769 9.4802 6.90029 9.42655C6.97289 9.37289 7.02882 9.30078 7.06191 9.21816C7.36512 8.58816 7.68185 7.96308 7.9811 7.33198C8.18286 6.90906 8.50692 6.65322 8.99103 6.64993C9.48416 6.64665 9.81441 6.90413 10.0201 7.33472C10.3177 7.9598 10.631 8.57775 10.9292 9.20283C10.9646 9.29145 11.0251 9.3686 11.1035 9.42546C11.1819 9.48232 11.2752 9.5166 11.3727 9.5244C12.0608 9.61699 12.7473 9.72546 13.4337 9.83064C13.8845 9.90021 14.1894 10.1478 14.3354 10.5669C14.4814 10.986 14.3918 11.3821 14.0756 11.7048C13.5872 12.204 13.0892 12.6956 12.5816 13.1795C12.4981 13.2522 12.4365 13.3455 12.4033 13.4495C12.37 13.5535 12.3664 13.6643 12.3928 13.7701C12.5183 14.4552 12.6359 15.1417 12.7456 15.8294C12.8183 16.2846 12.6757 16.6725 12.2834 16.9442C11.8912 17.2159 11.4854 17.1946 11.074 16.9722C10.4727 16.6473 9.86513 16.3334 9.26605 16.0058C9.18673 15.9562 9.09438 15.9298 9.00005 15.9298C8.90571 15.9298 8.81336 15.9562 8.73404 16.0058C8.11411 16.3433 7.49417 16.678 6.86804 16.9985C6.08637 17.3978 5.22353 16.867 5.24101 15.9231ZM5.96069 15.9746C5.94942 16.3553 6.23853 16.535 6.55244 16.3706C7.17237 16.0469 7.78892 15.7231 8.4004 15.3884C8.80505 15.1693 9.19561 15.1693 9.59969 15.3884C10.1931 15.7127 10.7939 16.0244 11.3902 16.3449C11.544 16.4276 11.6956 16.4961 11.8613 16.3811C12.027 16.266 12.0619 16.0945 12.0304 15.9066C11.9143 15.2268 11.805 14.5453 11.6798 13.8665C11.597 13.414 11.7086 13.0349 12.0484 12.7089C12.5382 12.2384 13.0161 11.7557 13.5013 11.2802C13.645 11.1394 13.7267 10.986 13.6535 10.7828C13.587 10.5921 13.4314 10.5335 13.2483 10.5089C12.5883 10.4124 11.9301 10.3067 11.269 10.2201C10.8114 10.1604 10.4913 9.9424 10.2957 9.53481C9.99363 8.90371 9.68084 8.27809 9.37708 7.64753C9.29705 7.48318 9.19673 7.34732 8.99103 7.3528C8.79547 7.35718 8.70191 7.49031 8.62583 7.64808C8.32207 8.27809 8.00985 8.90481 7.70721 9.53536C7.51615 9.93418 7.20393 10.1582 6.75533 10.2191C6.08749 10.3094 5.42135 10.4113 4.75464 10.5094C4.47736 10.5499 4.31336 10.6814 4.33027 10.9033C4.34584 11.0427 4.40686 11.1736 4.50441 11.2769C4.9874 11.7732 5.48391 12.257 5.98041 12.7407C6.12328 12.8737 6.2303 13.0388 6.29202 13.2215C6.35374 13.4041 6.36828 13.5988 6.33434 13.7882C6.30616 13.9772 6.2684 14.1651 6.23628 14.3535C6.14272 14.9008 6.04861 15.4552 5.96069 15.9746Z" fill="#949494"/>
<path d="M9.19687 4.89992C12.6347 4.93388 15.6554 7.32352 16.4005 10.7776C16.751 12.4008 16.538 13.9704 15.7929 15.4665C15.6594 15.7344 15.4728 15.8237 15.2621 15.7256C15.0513 15.6275 15.0141 15.4331 15.1465 15.1602C16.6236 12.1121 15.6537 8.60983 12.8099 6.72967C10.4953 5.19903 7.34722 5.23245 5.06192 6.8113C5.00557 6.85074 4.94921 6.89347 4.88947 6.92908C4.70405 7.03865 4.49497 7.00194 4.3862 6.84362C4.35696 6.80655 4.33618 6.76384 4.32526 6.71835C4.31433 6.67286 4.31351 6.62562 4.32284 6.5798C4.33218 6.53397 4.35145 6.49061 4.37938 6.45259C4.40731 6.41458 4.44326 6.38279 4.48482 6.35934C4.88383 6.10624 5.28115 5.84328 5.70609 5.6362C6.73968 5.1322 7.84485 4.89773 9.19687 4.89992Z" fill="#949494"/>
<path d="M8.94096 19.5985C5.37466 19.6867 2.0755 16.9777 1.52545 13.316C1.29556 11.8467 1.53454 10.3443 2.21019 9.01111C2.29304 8.84676 2.40406 8.72131 2.61145 8.7372C2.87633 8.7613 3.00596 9.01988 2.87464 9.28119C2.60108 9.8277 2.40124 10.4062 2.28007 11.0025C1.58462 14.4357 3.8361 17.8668 7.35224 18.6924C9.37716 19.1673 11.2522 18.8052 12.9677 17.6559C13.0622 17.5875 13.1685 17.5361 13.2816 17.5041C13.4326 17.4696 13.5555 17.5425 13.6316 17.6762C13.6685 17.7356 13.6846 17.8051 13.6775 17.8743C13.6704 17.9434 13.6404 18.0084 13.5921 18.0596C13.5456 18.1105 13.4923 18.1553 13.4338 18.1928C12.1584 19.0819 10.7348 19.5443 8.94096 19.5985Z" fill="#949494"/>
</g>
<defs>
<clipPath id="clip0_539_697">
<rect width="18" height="21" fill="white"/>
</clipPath>
</defs>
</svg>
