<svg width="15" height="20" viewBox="0 0 15 20" fill="none" xmlns="http://www.w3.org/2000/svg">
<g clip-path="url(#clip0_539_670)">
<path d="M7.34164 19.9999C6.97182 19.8937 6.73265 19.6412 6.52735 19.3328C4.8785 16.8641 3.22666 14.3975 1.57182 11.9328C0.858459 10.8682 0.345555 9.72255 0.107076 8.46119C-0.0920021 7.40132 -0.0049053 6.35915 0.297168 5.33332C0.727424 3.84374 1.62895 2.52815 2.87067 1.57783C3.78467 0.849578 4.86842 0.356898 6.02413 0.14425C8.61767 -0.322719 10.8898 0.343699 12.7817 2.14895C13.9755 3.28778 14.6764 4.69821 14.9246 6.32443C15.1852 8.04868 14.7753 9.64631 13.9098 11.1228C13.2373 12.2711 12.4665 13.3644 11.7283 14.4746C10.6492 16.0974 9.55777 17.7114 8.47943 19.3335C8.27205 19.6419 8.03426 19.8937 7.66445 19.9999H7.34164ZM7.50339 19.1708C7.58426 19.0612 7.64164 18.9857 7.69901 18.9054C8.60178 17.5589 9.50869 16.2138 10.4059 14.8633C11.3142 13.4971 12.2336 12.1404 13.1094 10.7504C13.6679 9.86726 14.0035 8.86522 14.0882 7.82813C14.2333 6.09912 13.7232 4.54505 12.5889 3.22992C11.0191 1.40969 8.9944 0.643212 6.58127 0.933195C5.52564 1.06295 4.52124 1.45639 3.66353 2.07611C2.50297 2.88136 1.64073 4.03733 1.20754 5.36871C0.918597 6.23798 0.804542 7.13108 0.931039 8.04527C1.10662 9.28077 1.60155 10.3944 2.29072 11.4271C3.96537 13.9348 5.64417 16.4391 7.32712 18.9401C7.37205 19.0095 7.42735 19.0721 7.50339 19.1708Z" fill="#949494"/>
<path d="M7.50756 11.2916C6.72237 11.2924 5.95456 11.064 5.30116 10.6352C4.64777 10.2064 4.13812 9.59644 3.83663 8.88248C3.53515 8.16853 3.45535 7.38258 3.60733 6.62397C3.7593 5.86537 4.13624 5.16815 4.69049 4.62045C5.24473 4.07274 5.95142 3.69913 6.72123 3.54683C7.49104 3.39453 8.28942 3.47037 9.01547 3.76478C9.74152 4.05919 10.3627 4.55895 10.8004 5.20089C11.2381 5.84283 11.4727 6.59815 11.4746 7.37138C11.4757 7.88534 11.3739 8.39448 11.1751 8.8697C10.9763 9.34492 10.6844 9.77691 10.316 10.141C9.94755 10.505 9.5099 10.794 9.02802 10.9915C8.54614 11.1889 8.02948 11.2909 7.50756 11.2916ZM7.52554 4.3388C5.85134 4.30885 4.44259 5.66823 4.40941 7.34415C4.37692 8.99828 5.75388 10.3951 7.44604 10.4244C7.85353 10.4303 8.2582 10.3571 8.63692 10.2089C9.01564 10.0606 9.36096 9.84035 9.65315 9.56059C9.94533 9.28083 10.1786 8.94708 10.3397 8.57844C10.5008 8.2098 10.5865 7.8135 10.5919 7.41222C10.6175 5.74924 9.24051 4.36875 7.52554 4.3388Z" fill="#949494"/>
</g>
<defs>
<clipPath id="clip0_539_670">
<rect width="15" height="20" fill="white"/>
</clipPath>
</defs>
</svg>
