<svg width="18" height="18" viewBox="0 0 18 18" fill="none" xmlns="http://www.w3.org/2000/svg">
<g clip-path="url(#clip0_539_664)">
<path d="M0 9.53029V8.47323C0.0110051 8.41157 0.0237711 8.34991 0.032135 8.28736C0.0761555 7.96276 0.0999266 7.63463 0.161115 7.31311C0.48425 5.55581 1.33495 3.93876 2.59985 2.67745C3.94424 1.32133 5.55979 0.464226 7.44696 0.138739C7.78635 0.0801605 8.12927 0.0440442 8.47043 0H9.52693C9.57799 0.0101302 9.62861 0.0224626 9.68012 0.0303905C10.1687 0.106587 10.6679 0.147548 11.1495 0.264265C15.7673 1.37066 18.7422 6.01292 17.8406 10.686C17.4652 12.6288 16.5579 14.2849 15.0973 15.6154C13.0138 17.5142 10.5513 18.2713 7.76082 17.9163C5.98371 17.6908 4.4179 16.961 3.07528 15.7744C1.49362 14.3769 0.504475 12.6381 0.140426 10.553C0.079237 10.2134 0.0440205 9.87076 0 9.53029ZM6.86368 9.88265C4.81277 8.40364 4.81277 5.77772 6.12326 4.2833C7.51299 2.69771 9.87733 2.50436 11.4352 3.84903C12.1999 4.50969 12.6643 5.3386 12.7558 6.34633C12.8905 7.81917 12.3156 8.98635 11.1363 9.88C13.13 10.6882 14.4106 12.1192 14.9987 14.1774C17.5717 11.2978 17.816 6.30185 14.33 3.12626C10.8731 -0.0281883 5.55099 0.459381 2.68525 4.19874C-0.0154071 7.71831 1.01776 12.0853 3.00176 14.1593C3.58459 12.1073 4.87395 10.6909 6.86368 9.88177V9.88265ZM9.14175 16.9517C9.33015 16.9363 9.66999 16.9196 10.0063 16.8782C11.3316 16.7176 12.5925 16.2156 13.6657 15.4212C14.1288 15.083 14.1214 15.0733 13.984 14.5091C13.3395 11.8633 10.8114 10.1927 8.13368 10.6446C5.94894 11.0111 4.22333 12.7944 3.92663 14.9962C3.92589 15.0279 3.932 15.0594 3.94453 15.0885C3.95707 15.1176 3.97574 15.1436 3.99927 15.1649C5.45591 16.3404 7.12296 16.9262 9.14175 16.9509V16.9517ZM8.98988 9.47568C10.4844 9.48625 11.7117 8.27151 11.7324 6.76123C11.7535 5.27386 10.524 4.02652 9.02421 4.00803C7.52443 3.98953 6.28613 5.20779 6.26456 6.72467C6.24211 8.22086 7.47513 9.46423 8.98988 9.4748V9.47568Z" fill="#949494"/>
</g>
<defs>
<clipPath id="clip0_539_664">
<rect width="18" height="18" fill="white"/>
</clipPath>
</defs>
</svg>
