<svg width="21" height="14" viewBox="0 0 21 14" fill="none" xmlns="http://www.w3.org/2000/svg">
<g clip-path="url(#clip0_539_666)">
<path d="M0 12.9446V1.05602C0.170215 0.347691 0.708032 -0.00546601 1.56013 -0.000435288C5.05261 0.0206937 8.54509 0.00862001 12.0376 0.00862001C14.5605 0.00862001 17.082 0.00459544 19.6039 0.0146569C19.8478 0.0178559 20.0889 0.066866 20.314 0.159039C20.7083 0.321028 20.8918 0.667142 21 1.05501V12.9446C20.8298 13.6514 20.292 14.0046 19.4399 14.0011C15.9474 13.9799 12.4549 13.9925 8.96243 13.9925C6.43997 13.9925 3.91802 13.996 1.39607 13.986C1.15215 13.9828 0.911115 13.9338 0.685986 13.8416C0.291724 13.6781 0.108179 13.331 0 12.9446ZM0.838257 5.77383V6.00021C0.838257 8.19562 0.838257 10.3914 0.838257 12.5874C0.838257 13.0402 0.972583 13.1715 1.43862 13.1715H19.5675C20.029 13.1715 20.1612 13.0372 20.1612 12.5804C20.1612 10.3847 20.1612 8.18891 20.1612 5.99317C20.1612 5.92173 20.1546 5.84979 20.151 5.77383H0.838257ZM20.1489 3.29469C20.1535 3.21671 20.1602 3.15785 20.1607 3.09899C20.1607 2.52298 20.1607 1.94746 20.1607 1.37195C20.1607 0.974519 20.0069 0.828125 19.6019 0.828125H1.39504C0.990015 0.828125 0.840308 0.979047 0.839282 1.37496C0.836719 1.95048 0.839282 2.52599 0.839282 3.10151C0.839282 3.1649 0.848511 3.22828 0.853638 3.29469H20.1489Z" fill="#949494"/>
<path d="M7.56894 8.23732C8.7912 8.23732 10.0136 8.23732 11.2362 8.23732C11.5305 8.23732 11.6859 8.33793 11.7377 8.55023C11.752 8.60362 11.7547 8.65935 11.7458 8.71385C11.7369 8.76834 11.7164 8.82041 11.6858 8.86669C11.6551 8.91297 11.6149 8.95245 11.5678 8.9826C11.5207 9.01274 11.4676 9.03289 11.4121 9.04173C11.3377 9.05156 11.2626 9.05509 11.1875 9.0523H3.85292C3.55556 9.04626 3.36842 8.89282 3.36432 8.64984C3.36022 8.3983 3.54941 8.23782 3.86061 8.23682C4.64606 8.23682 5.43151 8.23682 6.21901 8.23682L7.56894 8.23732Z" fill="#949494"/>
<path d="M5.8649 10.6987C5.18866 10.6987 4.51292 10.6987 3.83668 10.6987C3.58033 10.6987 3.41217 10.5719 3.37166 10.3616C3.35285 10.2586 3.37568 10.1525 3.43532 10.0657C3.49495 9.97889 3.58669 9.91832 3.69107 9.8968C3.75884 9.8859 3.82751 9.88135 3.89615 9.88322H7.91158C8.20587 9.89127 8.39659 10.0512 8.39659 10.2897C8.39659 10.5282 8.20433 10.6967 7.91261 10.6982C7.22867 10.7012 6.54781 10.6987 5.8649 10.6987Z" fill="#949494"/>
</g>
<defs>
<clipPath id="clip0_539_666">
<rect width="21" height="14" fill="white"/>
</clipPath>
</defs>
</svg>
