<svg width="51" height="63" viewBox="0 0 51 63" fill="none" xmlns="http://www.w3.org/2000/svg">
<g clip-path="url(#clip0_332_33)">
<path d="M30.0051 56.9014H24.033V62.4245H30.0051V56.9014Z" fill="#E1E1FF"/>
<path d="M31.9454 55.0326C28.6416 55.0096 25.3344 55.0211 22.0255 55.0211C21.9297 55.0211 21.8288 55.0211 21.7329 55.0211C21.4236 55.0326 21.2571 54.9011 21.2588 54.5575C21.2588 53.208 21.2588 51.8584 21.2588 50.4185C24.9771 51.3764 28.885 51.382 32.6061 50.4349C32.628 50.6519 32.6549 50.8245 32.6549 50.9987C32.6549 52.0836 32.633 53.1702 32.6684 54.2551C32.6852 54.8386 32.5086 55.0375 31.9454 55.0326Z" fill="#E1E1FF"/>
<path d="M27.88 47.5845C40.0268 47.5845 49.8736 37.9575 49.8736 26.082C49.8736 14.2066 40.0268 4.57959 27.88 4.57959C15.7333 4.57959 5.88647 14.2066 5.88647 26.082C5.88647 37.9575 15.7333 47.5845 27.88 47.5845Z" fill="#E1E1FF"/>
<path d="M25.22 1.20983C25.0435 1.74242 24.5794 1.83447 24.0616 1.86735C12.8437 2.54295 3.71739 10.7044 2.14366 21.6241C1.16176 28.4508 3.01459 34.5673 7.54916 39.8784C7.67022 40.0198 7.79632 40.1579 7.90897 40.3058C8.26373 40.7661 8.24523 41.2921 7.85853 41.6307C7.76064 41.7173 7.64499 41.7824 7.51931 41.8218C7.39362 41.8612 7.26079 41.8739 7.12967 41.8591C6.99855 41.8444 6.87216 41.8024 6.75894 41.7361C6.64572 41.6698 6.54828 41.5806 6.4731 41.4745C5.49288 40.2253 4.44037 39.0088 3.61483 37.6642C-4.64894 24.1062 1.82925 6.61298 17.0655 1.39558C18.9251 0.759432 20.9326 0.530945 22.8678 0.113422C23.036 0.0789021 23.1873 0.0378072 23.3487 0H24.6063C25.0855 0.276157 25.405 0.644367 25.22 1.20983Z" fill="#00009B"/>
<path d="M50.746 21.5602C49.5691 13.4908 45.2665 7.37261 38.0839 3.23025C35.1247 1.52235 31.8915 0.547582 28.4801 0.141565C27.7167 0.0511567 27.2292 0.358546 27.1636 0.94538C27.1031 1.49112 27.5234 1.88399 28.2396 1.97604C28.744 2.04015 29.235 2.12234 29.731 2.20288C40.0426 3.89763 48.2425 12.6673 49.0126 22.8489C49.517 29.4504 47.6355 35.3335 43.0774 40.2435C37.5744 46.1711 30.6507 48.6844 22.4979 47.7738C18.1045 47.2806 14.1954 45.5875 10.7285 42.9114C10.1384 42.4544 9.60033 42.4775 9.23548 42.9295C8.87063 43.3815 8.97992 43.896 9.57175 44.3514C11.776 46.0943 14.2728 47.4503 16.9511 48.3589C17.3832 48.5036 17.5295 48.7058 17.5211 49.148C17.4925 50.5205 17.4942 51.8947 17.5211 53.2689C17.543 54.6793 18.4089 55.5144 19.843 55.5505C20.0851 55.5505 20.3273 55.5505 20.6047 55.5505C20.6047 57.4491 20.6047 59.2524 20.6047 61.0556C20.6047 62.4495 21.1612 63.0018 22.5668 63.0018H28.4195C29.8756 63.0018 30.4203 62.466 30.422 61.0293V55.6048C30.5763 55.5729 30.7334 55.5563 30.8911 55.5555C32.374 55.7018 33.6098 54.7451 33.5224 52.9353C33.4619 51.7073 33.5375 50.4696 33.4989 49.2449C33.482 48.7288 33.667 48.5151 34.1579 48.3359C45.4918 44.2708 52.4391 33.1604 50.746 21.5602ZM28.4868 61.1082H22.5164V55.5851H28.4868V61.1082ZM30.8407 53.7111C27.2998 53.6881 23.7589 53.6996 20.2197 53.6996C20.1154 53.6996 20.0095 53.6996 19.9052 53.6996C19.569 53.7111 19.4008 53.5796 19.4008 53.2361C19.4008 51.8865 19.4008 50.537 19.4008 49.097C23.3935 50.0549 27.5632 50.0606 31.5586 49.1134C31.5805 49.3304 31.6107 49.503 31.6107 49.6773C31.6107 50.7622 31.5855 51.8487 31.6242 52.9336C31.6376 53.5188 31.4409 53.7177 30.8356 53.7128L30.8407 53.7111Z" fill="#00009B"/>
<path d="M45.0211 30.3676C42.4991 38.082 37.1861 42.8884 29.0484 44.4484C18.1466 46.536 7.3087 39.0534 5.48949 28.3063C5.2995 27.1787 5.22888 26.0297 5.10278 24.8905C5.10278 15.1921 12.4586 6.79236 22.323 5.27678C26.5339 4.61776 30.8501 5.27503 34.6565 7.15491C38.4629 9.03479 41.5652 12.0413 43.5213 15.7461C43.7006 16.0599 43.7697 16.4225 43.7181 16.7784C43.6575 17.0217 43.2893 17.311 43.0203 17.3537C42.7513 17.3965 42.3932 17.2173 42.1443 17.0398C41.9594 16.9099 41.882 16.6305 41.7627 16.4135C39.9758 13.1303 37.1942 10.4678 33.799 8.79066C30.4039 7.11355 26.5613 6.50397 22.7979 7.04546C19.0345 7.58695 15.5345 9.25301 12.7775 11.8153C10.0205 14.3776 8.14142 17.7108 7.39781 21.358C5.2995 31.6136 12.6554 41.5767 23.2444 42.8013C27.9829 43.3604 32.759 42.1068 36.5741 39.3028C40.3891 36.4987 42.9477 32.3613 43.7147 27.7556C44.1065 25.4216 44.0121 23.0342 43.4373 20.7367C43.3969 20.5723 43.3582 20.4178 43.3246 20.2583C43.1935 19.6435 43.449 19.18 43.982 19.06C44.515 18.94 44.9757 19.2014 45.1421 19.8161C46.0938 23.3421 46.1543 26.8877 45.0211 30.3676Z" fill="#00009B"/>
<path d="M37.1661 33.979C36.813 34.4179 36.3977 34.6366 35.8563 34.3933C35.2611 34.1303 35.1838 33.4448 35.6882 32.8333C36.8678 31.3852 37.7086 29.7019 38.1513 27.9019C38.3195 27.2444 38.3985 26.5869 38.5364 25.8291C37.4838 25.8291 36.5187 25.8604 35.5688 25.811C35.2234 25.7963 34.8966 25.6541 34.6541 25.4132C34.5692 25.2823 34.5176 25.1334 34.5035 24.979C34.4895 24.8246 34.5135 24.6691 34.5734 24.5256C34.665 24.3866 34.7862 24.2686 34.9286 24.1795C35.0711 24.0905 35.2315 24.0324 35.399 24.0094C36.3977 23.947 37.4031 23.9864 38.4422 23.9864C38.4994 21.7377 37.1139 18.4567 35.3149 16.5713C34.6289 17.2551 33.9413 17.934 33.2603 18.6194C32.9358 18.9482 32.5575 19.0731 32.1204 18.9055C31.4831 18.6622 31.3453 17.9077 31.8682 17.3784C32.5508 16.6863 33.2738 16.0305 34.0539 15.2941C31.8463 13.4448 29.3731 12.4519 26.4543 12.1906V14.7286C26.4543 15.7346 26.1617 16.157 25.4858 16.1423C24.8385 16.1275 24.5661 15.7165 24.5644 14.7417V12.1955C21.7467 12.4015 19.0723 13.4918 16.9396 15.3039C17.676 15.996 18.3889 16.6485 19.0782 17.3241C19.5456 17.7828 19.5692 18.2775 19.1909 18.6868C18.8126 19.0961 18.2628 19.0978 17.8021 18.6622C17.0943 17.9948 16.4217 17.2913 15.6735 16.5433C13.8204 18.6231 12.7067 21.234 12.4992 23.9848C13.508 23.9848 14.4546 23.9848 15.3944 23.9848C16.1241 23.9848 16.5596 24.3415 16.5545 24.9053C16.5495 25.4691 16.1124 25.8209 15.3776 25.8275C14.4394 25.8275 13.5012 25.8275 12.5193 25.8275C12.6151 27.51 13.0832 29.1521 13.8913 30.6405C14.3203 31.3906 14.7935 32.1156 15.3087 32.812C15.7425 33.4234 15.766 33.91 15.3087 34.2815C14.8514 34.653 14.2679 34.5264 13.7955 33.9347C10.3437 29.5145 9.58372 24.6439 11.7005 19.5137C13.8392 14.3242 17.8374 11.178 23.5775 10.458C31.9943 9.40599 39.2997 15.0508 40.3102 23.3437C40.791 27.2872 39.6897 30.8493 37.1661 33.979Z" fill="#00009B"/>
<path d="M33.1945 31.2402L28.887 27.0321C29.8184 25.3193 29.7713 23.687 28.438 22.2734C26.977 20.7265 25.2015 20.6542 23.2377 21.5961C22.7215 21.0602 22.2036 20.4981 21.6522 19.9671C21.2032 19.5348 20.6333 19.5315 20.2533 19.9079C19.8733 20.2844 19.875 20.8022 20.3273 21.269C20.7796 21.7358 21.2049 22.1517 21.6639 22.5725C21.9229 22.8092 22.0002 22.9999 21.8321 23.3583C21.5098 24.075 21.4165 24.8701 21.5645 25.6396C21.7125 26.409 22.0949 27.1167 22.6615 27.67C23.2281 28.2232 23.9525 28.5962 24.7397 28.7399C25.5269 28.8836 26.3401 28.7914 27.0728 28.4754C27.4427 28.311 27.6243 28.4031 27.8681 28.6398C29.1946 29.9548 30.533 31.2534 31.868 32.5569C32.5724 33.2457 33.0651 33.3492 33.5342 32.912C34.0033 32.4747 33.8973 31.9273 33.1945 31.2402ZM25.4839 26.9664C25.0676 26.9609 24.6623 26.8349 24.3191 26.6045C23.9759 26.3741 23.7101 26.0495 23.5553 25.6716C23.4005 25.2938 23.3636 24.8796 23.4493 24.4812C23.5349 24.0829 23.7393 23.7182 24.0366 23.4333C24.3339 23.1483 24.7108 22.9558 25.1199 22.88C25.529 22.8042 25.9518 22.8485 26.3352 23.0073C26.7185 23.1661 27.0452 23.4323 27.274 23.7724C27.5028 24.1125 27.6235 24.5112 27.6209 24.9182C27.6125 25.4652 27.383 25.9868 26.9827 26.369C26.5823 26.7512 26.0435 26.963 25.4839 26.9582V26.9664Z" fill="#00009B"/>
</g>
<defs>
<clipPath id="clip0_332_33">
<rect width="51" height="63" fill="white"/>
</clipPath>
</defs>
</svg>
