<svg width="38" height="54" viewBox="0 0 38 54" fill="none" xmlns="http://www.w3.org/2000/svg">
<g clip-path="url(#clip0_332_27)">
<path d="M37.4354 3.97805C37.4417 4.23498 37.3539 4.48538 37.1885 4.68223C37.0231 4.87907 36.7915 5.00883 36.5371 5.04713C36.3623 5.0657 36.1862 5.07087 36.0106 5.06261H5.09809C4.93992 5.0687 4.78154 5.06635 4.62362 5.05557C4.36193 5.03316 4.11811 4.91372 3.94011 4.72076C3.76211 4.52779 3.66281 4.27527 3.66175 4.01285C3.66069 3.75044 3.75795 3.49712 3.93438 3.30273C4.11082 3.10834 4.35367 2.98694 4.61517 2.96242C4.7909 2.95045 4.96713 2.94764 5.14315 2.95398H36.0021C36.1778 2.94597 36.3537 2.95068 36.5287 2.96805C36.7744 3.00351 36.9997 3.12408 37.1655 3.30869C37.3312 3.4933 37.4267 3.73021 37.4354 3.97805Z" fill="#E1E1FF"/>
<path d="M34.1563 28.0269C34.1563 27.5486 34.1563 26.1419 34.1563 24.3048V24.2316C34.1563 19.1858 34.1563 10.975 34.1676 9.66957C34.1676 9.31367 34.0648 9.24756 33.7227 9.24756C25.6384 9.25881 17.5536 9.25881 9.4683 9.24756C9.10928 9.24756 9.03748 9.34603 9.03748 9.68223C9.04874 19.6331 9.03748 29.5841 9.05296 39.5364C9.06563 45.678 13.6132 50.7899 19.8025 51.7071C26.4831 52.6918 32.8864 48.1158 33.9719 41.5888C34.1 40.8114 34.1631 40.0246 34.1606 39.2368C34.1606 35.5015 34.1606 31.7677 34.1606 28.0353L34.1563 28.0269Z" fill="#E1E1FF"/>
<path d="M36.5077 0.476868C36.1515 0.251797 35.7446 0.161769 35.3658 0H2.64418C2.60476 0.0281338 2.56956 0.0717412 2.52591 0.0829947C0.898346 0.468428 -0.140706 1.87793 0.0169824 3.48156C0.0959652 4.26748 0.467626 4.99505 1.05829 5.52006C1.64895 6.04506 2.41548 6.32916 3.20594 6.31604C3.62832 6.31604 3.70857 6.44123 3.70857 6.83651C3.69731 17.3257 3.69449 27.8154 3.70012 38.3056C3.70012 38.9555 3.72124 39.6039 3.78178 40.2524C4.3886 46.6922 9.22343 52.1713 15.5493 53.6033C16.1716 53.744 16.8164 53.7552 17.4218 54H20.3784C21.0402 53.8762 21.7075 53.782 22.3608 53.6258C29.5412 51.9111 34.3029 45.8806 34.3099 38.5081C34.3155 33.2012 34.3155 27.8932 34.3099 22.5844C34.3163 22.4263 34.312 22.2679 34.2972 22.1103C34.2646 21.8557 34.1398 21.6219 33.9465 21.4529C33.7531 21.2839 33.5045 21.1915 33.2476 21.193C32.9907 21.1946 32.7433 21.29 32.552 21.4614C32.3607 21.6327 32.2388 21.868 32.2093 22.123C32.1954 22.298 32.1921 22.4737 32.1994 22.6491C32.1994 27.9007 32.1994 33.1561 32.1994 38.4153C32.202 39.2586 32.1361 40.1006 32.0023 40.9333C30.8605 47.9189 24.132 52.8156 17.1121 51.7648C13.9764 51.3129 11.1087 49.7475 9.03424 47.3553C6.95973 44.963 5.81731 41.9041 5.81624 38.7388C5.79371 28.0874 5.81624 17.4373 5.80075 6.78587C5.80075 6.42576 5.87537 6.32166 6.2527 6.32166C14.75 6.33385 23.2445 6.33385 31.7362 6.32166C32.0952 6.32166 32.2079 6.39059 32.2036 6.7718C32.1811 8.68771 32.1924 10.6036 32.1938 12.5195C32.1938 13.3087 32.6162 13.8179 33.2652 13.8053C33.9143 13.7926 34.3029 13.2988 34.3029 12.5392C34.3029 10.6768 34.3226 8.81291 34.2916 6.95045C34.2831 6.46374 34.3719 6.309 34.8998 6.31322C35.5821 6.3082 36.2438 6.07946 36.7833 5.66216C37.3228 5.24486 37.7102 4.6621 37.886 4.00344C38.0648 3.34564 38.0274 2.64786 37.7792 2.01293C37.5311 1.378 37.0853 0.839525 36.5077 0.476868ZM3.06937 2.11847C3.2451 2.10651 3.42133 2.10369 3.59735 2.11003H34.4563C34.632 2.10203 34.8079 2.10673 34.9829 2.1241C35.2344 2.15771 35.4651 2.28112 35.6326 2.47153C35.8001 2.66195 35.8929 2.90649 35.8939 3.15997C35.895 3.41345 35.8041 3.65873 35.6382 3.8505C35.4723 4.04226 35.2425 4.16754 34.9913 4.20319C34.8165 4.22175 34.6404 4.22693 34.4648 4.21866C24.1597 4.2196 13.8555 4.22007 3.55229 4.22007C3.39425 4.22851 3.23586 4.22851 3.07782 4.22007C2.81613 4.19765 2.57231 4.07822 2.3943 3.88525C2.2163 3.69229 2.11701 3.43977 2.11595 3.17735C2.11489 2.91493 2.21214 2.66162 2.38858 2.46723C2.56502 2.27284 2.80787 2.15144 3.06937 2.12691V2.11847Z" fill="#00009B"/>
<path d="M25.1216 24.319C26.1396 23.1726 26.6915 21.87 26.6704 20.3001C26.6281 17.3461 26.6591 14.392 26.6577 11.438C26.6626 11.245 26.6556 11.0519 26.6366 10.8598C26.6165 10.6216 26.5143 10.3976 26.3474 10.2262C26.1805 10.0549 25.9593 9.94669 25.7214 9.92016C25.2385 9.86249 24.7359 10.1382 24.6232 10.6235C24.5444 10.9724 24.3684 10.9724 24.1093 10.9724C22.5606 10.9724 21.0119 10.9724 19.4632 10.9724C19.3407 10.9724 19.2168 10.9724 19.0943 10.9724C18.4143 10.9921 17.9525 11.4155 17.9511 12.0218C17.9496 12.628 18.41 13.0754 19.0858 13.0782C20.7571 13.088 22.4283 13.0937 24.0995 13.0782C24.4712 13.0782 24.5571 13.1809 24.5528 13.5438C24.5331 15.4245 24.5233 17.3053 24.5528 19.1846C24.5613 19.6699 24.412 19.7473 23.9728 19.7473C22.3368 19.722 20.7007 19.7304 19.0647 19.7473C18.3946 19.7473 17.9384 20.2101 17.9384 20.8164C17.9384 21.4227 18.3988 21.8278 19.045 21.8503C19.3083 21.8587 19.5716 21.8503 19.8363 21.8503H24.2431C24.0714 22.2534 23.8276 22.6219 23.5236 22.9377C22.3016 24.2867 20.7838 25.2292 19.1928 26.0704C19.1351 26.1074 19.0682 26.1277 18.9996 26.1289C18.9309 26.1302 18.8633 26.1123 18.8043 26.0774C17.195 25.2334 15.6618 24.2825 14.4397 22.9152C13.7695 22.1682 13.3823 21.32 13.4541 20.2818C13.4943 19.5974 13.4943 18.9111 13.4541 18.2267C13.4302 17.7737 13.5273 17.6063 14.0342 17.6176C15.6519 17.6555 17.2724 17.6359 18.8887 17.6302C19.5547 17.6302 20.0151 17.2378 20.0545 16.6582C20.1066 16.0168 19.618 15.5329 18.893 15.5258C17.2386 15.5174 15.5857 15.5061 13.9328 15.5343C13.5104 15.5343 13.4401 15.4133 13.4555 15.0363C13.4851 14.2823 13.4668 13.5255 13.4626 12.7701C13.4626 12.1371 13.4795 11.5041 13.4358 10.8725C13.4195 10.6147 13.304 10.3731 13.1135 10.1985C12.9229 10.0239 12.6722 9.92967 12.4137 9.93564C12.1561 9.93253 11.9067 10.0258 11.7144 10.197C11.5222 10.3683 11.401 10.6052 11.3746 10.8612C11.3558 11.018 11.3483 11.176 11.3521 11.3339C11.3521 14.392 11.3521 17.4502 11.3521 20.5083C11.3394 20.9477 11.3834 21.387 11.483 21.8151C11.9054 23.4483 13.0064 24.5919 14.2412 25.6343C14.9902 26.2673 15.8223 26.7836 16.6994 27.3336L16.1813 27.6613C14.986 28.4111 13.8568 29.2424 12.9121 30.3003C11.8772 31.458 11.3141 32.7718 11.338 34.3642C11.3817 37.3183 11.3493 40.2723 11.3507 43.2263C11.3455 43.4194 11.353 43.6125 11.3732 43.8045C11.3958 44.0425 11.5004 44.2653 11.6691 44.4349C11.8378 44.6045 12.0601 44.7103 12.2982 44.7343C12.5367 44.7661 12.7786 44.7105 12.9792 44.5778C13.1797 44.4451 13.3255 44.2444 13.3894 44.0127C13.464 43.7074 13.6034 43.6821 13.8568 43.6821C15.5111 43.6906 17.164 43.6891 18.8183 43.6821C19.5772 43.6821 20.0601 43.2601 20.0559 42.6201C20.0517 41.98 19.5716 41.5763 18.8029 41.5749C17.1668 41.5749 15.5308 41.565 13.8948 41.5749C13.5668 41.5749 13.4499 41.5116 13.4527 41.1529C13.4724 39.2201 13.4724 37.2868 13.4527 35.3531C13.4527 35.0183 13.5259 34.9114 13.8751 34.9156C15.5111 34.9353 17.1471 34.9269 18.7831 34.9241C19.5575 34.9241 20.0362 34.5274 20.0503 33.8902C20.0629 33.2304 19.5758 32.8168 18.7719 32.8154C17.119 32.8154 15.4661 32.8154 13.723 32.8154C13.8202 32.6382 13.8638 32.5341 13.9356 32.4314C14.0683 32.2243 14.2131 32.0251 14.3693 31.835C15.6083 30.4283 17.1697 29.4563 18.8099 28.5912C18.8684 28.5553 18.9356 28.5364 19.0042 28.5364C19.0728 28.5364 19.14 28.5553 19.1985 28.5912C20.7923 29.4267 22.3086 30.372 23.5321 31.7196C24.2192 32.4764 24.6134 33.3373 24.5472 34.3923C24.5099 35.1299 24.5099 35.8689 24.5472 36.6065C24.5613 36.9567 24.4515 37.0397 24.1122 37.0369C22.4944 37.0186 20.8739 37.0271 19.2576 37.0285C18.4368 37.0285 17.9539 37.4139 17.9454 38.068C17.937 38.7221 18.4283 39.1357 19.2815 39.1371C20.5825 39.1371 21.8848 39.1371 23.1871 39.1371C23.6236 39.1371 24.1938 38.95 24.4543 39.2117C24.7147 39.4733 24.5247 40.0416 24.5303 40.4777C24.543 41.5496 24.5219 42.6215 24.5486 43.6934C24.5442 43.935 24.6272 44.17 24.7824 44.3553C24.9376 44.5406 25.1546 44.6637 25.3934 44.702C25.602 44.7464 25.8192 44.7244 26.0147 44.6391C26.2101 44.5539 26.3739 44.4096 26.4831 44.2265C26.6591 43.9649 26.6506 43.6638 26.6506 43.3614C26.6506 40.2864 26.6408 37.2099 26.6506 34.1335C26.6615 32.9657 26.283 31.8274 25.575 30.8981C24.7302 29.7517 23.6461 28.8598 22.4775 28.0721C22.1073 27.8245 21.7299 27.584 21.3174 27.3153C21.5202 27.1859 21.6638 27.0916 21.8088 27.0016C23.0323 26.2434 24.1685 25.3952 25.1216 24.319Z" fill="#00009B"/>
<path d="M32.2021 17.4428C32.1922 17.5829 32.2104 17.7236 32.2558 17.8565C32.3011 17.9895 32.3727 18.112 32.4662 18.2169C32.5597 18.3218 32.6733 18.4069 32.8002 18.4672C32.9272 18.5276 33.065 18.5619 33.2054 18.5682C33.3459 18.5745 33.4861 18.5526 33.618 18.5039C33.7498 18.4552 33.8706 18.3805 33.9731 18.2844C34.0757 18.1883 34.1579 18.0727 34.215 17.9443C34.2721 17.816 34.3029 17.6775 34.3055 17.537C34.3108 17.2627 34.2085 16.9972 34.0206 16.7971C33.8328 16.5971 33.5741 16.4782 33.2998 16.4659C33.0255 16.4536 32.7572 16.5489 32.5521 16.7313C32.3471 16.9138 32.2215 17.1691 32.2021 17.4428Z" fill="#00009B"/>
</g>
<defs>
<clipPath id="clip0_332_27">
<rect width="38" height="54" fill="white"/>
</clipPath>
</defs>
</svg>
