<svg width="53" height="53" viewBox="0 0 53 53" fill="none" xmlns="http://www.w3.org/2000/svg">
<g clip-path="url(#clip0_332_42)">
<path d="M44.1066 21.7059C43.4344 21.0035 42.9088 20.9745 42.1785 20.3233C41.3332 19.5815 40.2424 19.18 39.1176 19.1966C37.6423 19.1855 36.1693 19.1855 34.6985 19.1966C34.182 19.2107 33.6681 19.1192 33.1881 18.9279C32.7082 18.7365 32.2724 18.4492 31.9074 18.0836C31.5312 17.7158 31.1591 17.3426 30.7663 16.9914C29.8955 16.2111 28.7846 15.7508 27.6169 15.6865C26.4492 15.6222 25.2944 15.9576 24.3431 16.6375C23.4191 17.2983 22.5243 18.0034 21.646 18.7223C20.5519 19.6168 19.3043 20.0593 17.8811 20.156C16.1702 20.2722 14.4579 20.4049 12.7635 20.6289C11.0139 20.8598 9.71099 21.7792 9.12039 23.4313C8.54363 25.0406 8.98208 26.4591 10.2269 27.6591C13.3417 30.6841 16.4542 33.711 19.5644 36.7397C21.5907 38.714 24.0167 39.9334 26.8313 40.4588C29.7995 41.0118 32.7552 41.6284 35.7276 42.1579C37.2227 42.4234 38.5505 41.9464 39.6404 40.9288C40.7732 39.8726 41.8645 38.7748 42.9793 37.6992C43.5243 37.1724 43.6709 36.5531 43.4994 35.8383C43.4606 35.6821 43.4219 35.5272 43.3846 35.3724C43.3846 35.3627 43.3846 35.3585 43.3846 35.3489C43.1812 34.5567 41.9558 29.5062 41.8299 28.7016C41.6197 27.3729 41.2158 26.0581 42.3583 25.2742C42.6086 25.1028 43.2061 24.7793 43.4523 24.6037C44.3541 23.947 44.8783 22.516 44.1066 21.7059Z" fill="#E1E1FF"/>
<path d="M18.5339 15.1237C18.6943 15.2813 18.9294 15.3643 19.1369 15.4832C18.1687 16.4192 17.2337 16.8174 16.1507 16.9169C15.999 16.939 15.8441 16.9239 15.6996 16.8729C15.555 16.8218 15.425 16.7363 15.3208 16.6238C13.0719 14.3997 10.8183 12.1849 8.56013 9.97927C7.51587 8.95618 6.46884 7.9331 5.4149 6.92107C4.89208 6.42197 4.57396 6.43027 4.03869 6.89895C3.97783 6.95011 3.91144 6.99435 3.78973 7.08698C3.58779 5.42792 3.39416 3.81725 3.18945 2.1416L8.10785 2.73886C7.40107 3.75227 7.40107 3.76195 8.25861 4.6454C9.81048 6.24362 14.1936 10.7217 16.0636 12.6407L16.1037 12.6849C16.1756 12.7582 16.242 12.8315 16.3208 12.9061L16.3706 12.9545C17.0857 13.6873 17.7994 14.4103 18.5339 15.1237Z" fill="#E1E1FF"/>
<path d="M44.8257 11.876C43.4578 13.2171 42.0857 14.5554 40.7261 15.9047C40.5283 16.1011 40.3513 16.1218 40.0733 16.1011C38.9889 16.0181 37.9004 15.9987 36.8133 15.9628C36.675 15.9628 36.5366 15.9628 36.3983 15.9628L36.2808 15.7969C37.0678 15.0489 37.8755 14.319 38.639 13.5475C41.2872 10.8672 43.9285 8.17859 46.5629 5.4817L46.6611 5.38078C47.408 4.59964 47.4177 4.48212 46.7593 3.60558L51.3762 3.0415C51.1881 4.60102 51.0069 6.10385 50.8229 7.65369C50.7567 7.6216 50.6929 7.58463 50.6321 7.54308C50.0622 7.0343 49.8022 7.03016 49.2407 7.57212C47.7644 9.00075 46.2927 10.4354 44.8257 11.876Z" fill="#E1E1FF"/>
<path d="M15.639 36.5767L17.8866 38.9878C17.39 39.4731 16.8562 39.9819 16.3292 40.5086C16.3262 40.5126 16.3224 40.5158 16.3181 40.5183C14.5699 42.2589 9.88521 46.9416 8.14108 48.6864C7.31121 49.5159 7.30014 49.8574 8.06363 50.7312C8.08161 50.7519 8.07608 50.7934 8.09129 50.8777L3.0166 51.4916C3.2296 49.7454 3.43154 48.0808 3.63901 46.3762C4.84924 47.2347 4.96404 47.2237 5.99032 46.2047C9.04795 43.1447 12.1083 40.0837 15.1715 37.0218C15.3112 36.8822 15.4578 36.7481 15.639 36.5767Z" fill="#E1E1FF"/>
<path d="M46.4881 49.4552C47.3388 48.2109 47.3305 48.1321 46.2765 47.08L39.9487 40.7576L42.3 38.4238C42.6375 38.7764 43.0442 39.2174 43.4674 39.6405C45.1723 41.3521 46.8782 43.06 48.585 44.7642C49.6403 45.8191 49.7164 45.8274 50.9612 44.9757C51.1673 46.6693 51.3692 48.3353 51.5808 50.0759L46.4881 49.4552Z" fill="#E1E1FF"/>
<path d="M52.9875 51.6838C52.722 49.4598 52.4509 47.2352 52.1743 45.0103C52.1627 44.8019 52.0883 44.6019 51.961 44.4366C51.8336 44.2713 51.6591 44.1483 51.4606 44.0839C51.036 43.9332 50.6777 44.0591 50.3748 44.3605C50.1342 44.601 49.9142 44.8623 49.7414 45.0517L43.1162 38.4348C43.4068 38.0594 43.615 37.6271 43.7275 37.166C43.84 36.7048 43.8541 36.2252 43.769 35.7582C43.6611 35.096 43.4924 34.4434 43.3264 33.7923C43.195 33.2683 42.8451 33.0346 42.39 33.1245C41.935 33.2143 41.722 33.5863 41.823 34.1199C41.9239 34.6536 42.0553 35.1969 42.1853 35.7333C42.3734 36.5173 42.2116 37.1961 41.6321 37.7726C40.4426 38.9519 39.2808 40.1547 38.0719 41.3133C36.9101 42.429 35.4938 42.9516 33.9004 42.6599C30.7317 42.0792 27.5795 41.4046 24.4149 40.7976C21.4758 40.2659 18.7716 38.8429 16.6694 36.7219C13.3499 33.4038 10.0304 30.0856 6.71093 26.7675C5.39419 25.4513 4.92116 23.896 5.5325 22.1318C6.16321 20.3207 7.55187 19.3128 9.41632 19.0598C11.2254 18.8137 13.0512 18.6686 14.8741 18.5414C16.3956 18.4363 17.722 17.951 18.8852 16.9694C19.8216 16.1813 20.7745 15.4085 21.7607 14.684C22.7695 13.9394 24.0073 13.5713 25.2592 13.6438C26.5111 13.7163 27.6981 14.2247 28.6141 15.0808C29.029 15.4652 29.4301 15.8744 29.8313 16.2781C30.2153 16.6768 30.6781 16.991 31.1903 17.201C31.7026 17.4109 32.2529 17.5119 32.8064 17.4975C34.3739 17.4846 35.9442 17.4846 37.5173 17.4975C38.7223 17.482 39.8885 17.9231 40.7815 18.7322C41.5602 19.44 42.3029 20.1852 43.0235 20.9553C43.8465 21.8401 43.686 23.1342 42.7068 23.8586C42.444 24.0522 42.1618 24.2222 41.8949 24.4117C40.6777 25.2716 40.1674 26.4578 40.3914 27.9137C40.5297 28.7971 40.7704 29.664 40.9875 30.5322C41.112 31.0313 41.5173 31.2691 41.9557 31.1474C42.3707 31.0341 42.5795 30.6456 42.4772 30.1644C42.3485 29.5589 42.2006 28.9547 42.0622 28.3519C41.6957 26.8007 41.9032 26.2684 43.2185 25.3905C45.4979 23.8697 45.7455 21.4599 43.8064 19.5382C42.8589 18.6008 41.888 17.6869 40.9101 16.7454L49.8658 7.96348C49.9737 8.15201 50.0948 8.33266 50.2282 8.50406C50.5546 8.87596 50.9433 9.10546 51.462 8.91882C51.9806 8.73218 52.1272 8.33262 52.1853 7.83075C52.426 5.74172 52.6625 3.65131 52.9544 1.56919C53.0539 0.86271 52.9004 0.355315 52.2752 0.00691274H51.4454C51.3713 0.0453899 51.2928 0.0746418 51.2116 0.0940133C49.1853 0.335959 47.148 0.586201 45.1106 0.829529C44.6445 0.883448 44.2808 1.06041 44.1051 1.5208C43.9295 1.98119 44.0664 2.37384 44.4136 2.68767C44.6173 2.84883 44.8322 2.99529 45.0567 3.12594C44.8036 3.39139 44.6985 3.50476 44.5892 3.61536C40.7082 7.56577 36.8257 11.5152 32.9419 15.4638C32.3887 16.0279 32.2213 16.0583 31.5284 15.6477C31.3092 15.5113 31.106 15.3508 30.9225 15.1693C30.5463 14.814 30.1936 14.4352 29.816 14.0771C28.5987 12.8916 26.9904 12.1908 25.2928 12.1063C23.5953 12.0218 21.9253 12.5593 20.5961 13.6181C20.1632 13.9568 19.7372 14.2997 19.213 14.7241C19.1038 14.5611 18.9851 14.4046 18.8575 14.2555C17.953 13.3338 17.0438 12.4121 16.13 11.4904C15.6971 11.0562 15.249 11.0175 14.9073 11.3632C14.5657 11.7088 14.6183 12.1623 15.0456 12.5909C15.8755 13.4398 16.7054 14.2914 17.5629 15.1237C17.7289 15.2868 17.9779 15.3726 18.1881 15.4956C17.1867 16.4634 16.213 16.8782 15.0885 16.9846C14.9301 17.0087 14.7682 16.9936 14.617 16.9405C14.4658 16.8875 14.3299 16.7982 14.2213 16.6804C11.894 14.3762 9.55786 12.0766 7.213 9.78153C6.12863 8.71973 5.04288 7.65794 3.94744 6.60167C3.40526 6.08321 3.07469 6.09151 2.51867 6.57817C2.45643 6.63209 2.38728 6.67771 2.26003 6.77311C2.05118 5.0463 1.84509 3.37895 1.63762 1.6397L6.74412 2.25908C6.00277 3.30153 6.00277 3.31812 6.8935 4.22922C8.60028 5.98782 10.3061 7.74504 12.0111 9.50087C12.1349 9.64471 12.2714 9.77706 12.4191 9.89628C12.7538 10.1368 13.1106 10.1313 13.4094 9.84651C13.5517 9.72869 13.6428 9.56038 13.6637 9.37687C13.6846 9.19336 13.6336 9.0089 13.5214 8.86214C13.4308 8.73618 13.328 8.61948 13.2144 8.51373L8.4592 3.6126C8.33333 3.48264 8.21438 3.34577 8.04426 3.15636C8.25864 2.97248 8.43707 2.83422 8.59751 2.67938C8.93499 2.35448 9.08299 1.96875 8.90318 1.50836C8.73582 1.07701 8.39696 0.880683 7.94882 0.829529C6.76763 0.691274 5.58644 0.553019 4.40664 0.400939C3.45781 0.27651 2.50346 0.138255 1.55325 0H0V1.5526C0.138313 2.52039 0.283541 3.48817 0.414938 4.45595C0.55325 5.63389 0.691563 6.81596 0.829875 7.99528C0.841661 8.19483 0.911208 8.38666 1.03006 8.54743C1.14891 8.70821 1.31193 8.83099 1.49931 8.90085C1.93638 9.07367 2.31535 8.952 2.63209 8.63402C2.81466 8.45152 2.96542 8.23999 3.16874 7.99666L12.5284 17.1754C11.3693 17.2888 10.3154 17.3842 9.26141 17.4962C6.06916 17.8349 3.60996 20.6332 3.74274 23.7881C3.81051 25.3933 4.47303 26.7371 5.61134 27.8666C7.97372 30.217 10.3209 32.5673 12.6777 34.9176C12.8027 35.0302 12.9364 35.1329 13.0775 35.2246C9.78285 38.5178 6.55878 41.7433 3.25726 45.0407C3.11895 44.8844 2.92254 44.6494 2.71369 44.4282C2.38036 44.0756 1.98893 43.8987 1.50484 44.0909C1.05118 44.2706 0.876902 44.6342 0.82296 45.0987C0.585062 47.1403 0.339788 49.1782 0.0871369 51.2124C0.0677573 51.2935 0.0384932 51.372 0 51.446L0 52.2755C0.286307 52.7456 0.647303 53.0664 1.2545 52.9903C3.51314 52.7138 5.77178 52.4373 8.03181 52.1608C8.23102 52.1459 8.42132 52.0722 8.57865 51.9492C8.73597 51.8261 8.85325 51.6592 8.91563 51.4695C8.98808 51.2821 9.00037 51.0768 8.9508 50.882C8.90124 50.6873 8.79226 50.5129 8.639 50.3828C8.39281 50.145 8.11065 49.9459 7.82296 49.7123C8.06086 49.4634 8.18672 49.3252 8.3195 49.1925C9.81881 47.691 11.3195 46.1905 12.8216 44.6909C12.9059 44.6052 12.9945 44.5222 13.0761 44.4337C13.4467 44.0369 13.4689 43.5558 13.1342 43.2434C12.7994 42.9309 12.3527 42.9668 11.9834 43.3401C10.2314 45.0803 8.4864 46.8246 6.74827 48.5731C5.9184 49.4026 5.90733 49.7441 6.67082 50.6179C6.6888 50.6386 6.68326 50.6801 6.69848 50.7644L1.62379 51.3783C1.83679 49.6321 2.03873 47.9675 2.2462 46.2698C3.45643 47.1283 3.57123 47.1173 4.59059 46.0983C7.65283 43.0364 10.7155 39.9745 13.7787 36.9127C13.917 36.7744 14.065 36.6362 14.2462 36.4675L16.4938 38.8759C15.9198 39.4372 15.2946 40.0303 14.6888 40.6442C14.5518 40.7685 14.4683 40.941 14.4556 41.1255C14.443 41.31 14.5023 41.4922 14.621 41.6341C14.7163 41.7817 14.8632 41.8885 15.0331 41.9335C15.203 41.9785 15.3835 41.9585 15.5394 41.8774C15.7063 41.7882 15.8557 41.6697 15.9806 41.5276C16.5878 40.9248 17.1895 40.3137 17.7925 39.7068C19.5567 40.9399 21.5541 41.7999 23.6625 42.2341C26.6169 42.8369 29.5809 43.3968 32.5311 44.0176C33.888 44.3038 35.2324 44.4323 36.5602 43.9747C37.2337 43.7383 37.8658 43.3871 38.473 43.1079L45.1231 49.7593C44.8907 49.9473 44.6072 50.145 44.361 50.3801C44.208 50.51 44.0992 50.6842 44.0497 50.8787C44.0001 51.0731 44.0122 51.2781 44.0844 51.4654C44.1506 51.663 44.2748 51.8362 44.4408 51.9625C44.6068 52.0887 44.8069 52.1621 45.0152 52.1732C47.2411 52.4497 49.4661 52.7212 51.6902 52.9876C52.5657 53.0899 53.0913 52.5562 52.9875 51.6838ZM37.2711 13.2725C40.2042 10.3046 43.1296 7.32705 46.047 4.33982L46.1549 4.22783C46.9848 3.36236 46.9931 3.2324 46.2642 2.26185L51.3817 1.63694C51.1729 3.36512 50.9668 5.02971 50.7649 6.75237C50.6911 6.71721 50.6203 6.67606 50.5532 6.62932C49.9225 6.06662 49.6321 6.06109 49.0124 6.6625C47.3757 8.23953 45.7455 9.82577 44.1217 11.4212C42.6003 12.9061 41.0871 14.3882 39.5809 15.8827C39.3624 16.0998 39.166 16.1233 38.8575 16.0998C37.657 16.0085 36.4509 15.9878 35.2476 15.9422C35.0941 15.9422 34.9419 15.9422 34.7884 15.9422L34.6584 15.7597C35.5311 14.9315 36.4246 14.1214 37.2711 13.2725ZM46.2766 50.7547C47.1272 49.5104 47.1189 49.4316 46.065 48.3795L39.7372 42.0502L42.0885 39.7165C42.426 40.069 42.8326 40.5101 43.2559 40.9331C44.9617 42.6447 46.6676 44.3526 48.3734 46.0568C49.4288 47.1117 49.5048 47.12 50.7497 46.2684C50.9557 47.962 51.1577 49.628 51.3693 51.3686L46.2766 50.7547Z" fill="#00009B"/>
<path d="M36.6971 31.2456C36.1882 29.8515 35.9711 28.3678 36.0594 26.8864C36.0594 26.1786 36.0968 25.4693 36.0594 24.7656C36.0214 23.9316 35.723 23.1305 35.2059 22.4748C34.6889 21.8192 33.9794 21.3419 33.177 21.1102C30.786 20.394 28.3859 19.7078 25.9765 19.0515C25.0704 18.7919 24.1019 18.8578 23.2394 19.238C22.377 19.6181 21.6751 20.2884 21.2558 21.1323C20.2517 23.0761 19.2743 25.0329 18.3236 27.0026C17.9382 27.7638 17.8057 28.6281 17.9455 29.4698C18.0853 30.3115 18.4901 31.0866 19.1009 31.6825C20.9276 33.5388 22.7718 35.3799 24.6334 37.2058C25.8188 38.3671 27.2462 38.7086 28.8312 38.2054C30.603 37.6427 32.3693 37.0592 34.1231 36.4412C36.3098 35.6601 37.4592 33.4342 36.6971 31.2456ZM33.5629 34.9785C31.87 35.5619 30.1646 36.1122 28.4661 36.6818C27.3596 37.0551 26.4038 36.7993 25.5823 35.9753C23.816 34.2043 22.0415 32.4401 20.278 30.6677C19.3845 29.7691 19.2061 28.6782 19.769 27.539C20.6855 25.6864 21.6108 23.8375 22.5449 21.9922C23.2033 20.6954 24.343 20.1949 25.733 20.5793C28.0041 21.2152 30.2729 21.8604 32.5394 22.5148C33.834 22.8909 34.5007 23.7882 34.5242 25.1417C34.5352 25.7804 34.5242 26.4191 34.5242 27.0565C34.3693 28.6506 34.6625 30.1659 35.2074 31.6687C35.7247 33.1121 35.0055 34.4863 33.5629 34.9785Z" fill="#00009B"/>
<path d="M28.8823 24.923C28.8763 25.0744 28.8259 25.2208 28.7372 25.3437C28.6485 25.4666 28.5256 25.5607 28.3838 25.6143C28.2419 25.6678 28.0875 25.6784 27.9396 25.6447C27.7918 25.6111 27.6572 25.5346 27.5526 25.4249C27.4479 25.3152 27.3779 25.1772 27.3513 25.028C27.3247 24.8788 27.3427 24.725 27.4029 24.586C27.4632 24.4469 27.5631 24.3286 27.6902 24.246C27.8172 24.1633 27.9658 24.1199 28.1175 24.1211C28.2204 24.1235 28.3218 24.1461 28.416 24.1876C28.5102 24.2292 28.5953 24.289 28.6663 24.3635C28.7374 24.4379 28.793 24.5257 28.8301 24.6217C28.8671 24.7177 28.8849 24.8201 28.8823 24.923Z" fill="#00009B"/>
<path d="M32.0968 28.1181C32.0926 28.3175 32.0119 28.5077 31.8713 28.6492C31.7307 28.7908 31.541 28.8729 31.3416 28.8785C31.1874 28.8821 31.0357 28.8395 30.906 28.7562C30.7762 28.6729 30.6743 28.5527 30.6134 28.4111C30.5525 28.2695 30.5353 28.113 30.5641 27.9615C30.5929 27.8101 30.6664 27.6708 30.775 27.5614C30.8836 27.452 31.0225 27.3776 31.1738 27.3477C31.3251 27.3178 31.4818 27.3338 31.6239 27.3937C31.766 27.4535 31.887 27.5545 31.9712 27.6836C32.0555 27.8126 32.0992 27.964 32.0968 28.1181Z" fill="#00009B"/>
<path d="M25.668 31.3617C25.6573 31.5661 25.5659 31.758 25.4138 31.895C25.2616 32.032 25.0613 32.103 24.8568 32.0924C24.6523 32.0818 24.4604 31.9904 24.3233 31.8383C24.1862 31.6862 24.1152 31.4859 24.1258 31.2815C24.1364 31.0771 24.2279 30.8853 24.38 30.7482C24.4553 30.6804 24.5433 30.628 24.6389 30.5942C24.7344 30.5603 24.8357 30.5456 24.937 30.5508C25.0383 30.5561 25.1375 30.5813 25.229 30.6249C25.3206 30.6685 25.4026 30.7297 25.4705 30.805C25.5384 30.8802 25.5908 30.9682 25.6246 31.0637C25.6585 31.1592 25.6733 31.2605 25.668 31.3617Z" fill="#00009B"/>
<path d="M32.0968 31.3022C32.1014 31.5016 32.0285 31.695 31.8933 31.8418C31.7581 31.9885 31.5712 32.0771 31.372 32.0888C31.269 32.0942 31.1658 32.0791 31.0687 32.0443C30.9715 32.0095 30.8823 31.9557 30.8061 31.8861C30.7299 31.8165 30.6683 31.7325 30.6249 31.6389C30.5815 31.5453 30.5571 31.444 30.5532 31.3409C30.5507 31.2396 30.5681 31.1387 30.6046 31.0442C30.641 30.9496 30.6957 30.8631 30.7656 30.7897C30.9067 30.6414 31.101 30.5552 31.3056 30.55C31.5103 30.5449 31.7087 30.6213 31.857 30.7623C32.0054 30.9034 32.0917 31.0976 32.0968 31.3022Z" fill="#00009B"/>
<path d="M25.6695 26.5022C25.6695 26.7069 25.5882 26.9031 25.4435 27.0478C25.2988 27.1924 25.1025 27.2737 24.8978 27.2737C24.6931 27.2737 24.4968 27.1924 24.352 27.0478C24.2073 26.9031 24.126 26.7069 24.126 26.5022C24.1259 26.3031 24.2042 26.1119 24.344 25.9699C24.4837 25.8279 24.6736 25.7465 24.8729 25.7432C24.9754 25.7393 25.0777 25.756 25.1736 25.7923C25.2696 25.8286 25.3573 25.8838 25.4316 25.9546C25.5058 26.0253 25.5652 26.1102 25.606 26.2043C25.6469 26.2984 25.6685 26.3997 25.6695 26.5022Z" fill="#00009B"/>
<path d="M28.8823 29.7593C28.8759 29.9136 28.8233 30.0625 28.7313 30.1867C28.6393 30.3109 28.5122 30.4047 28.3664 30.456C28.2206 30.5073 28.0627 30.5137 27.9132 30.4744C27.7637 30.4351 27.6295 30.3519 27.5277 30.2356C27.426 30.1193 27.3615 29.9751 27.3425 29.8218C27.3235 29.6684 27.351 29.5129 27.4213 29.3753C27.4917 29.2377 27.6016 29.1243 27.7371 29.0499C27.8725 28.9754 28.0272 28.9432 28.1811 28.9574C28.3799 28.9723 28.5648 29.0647 28.696 29.2147C28.8272 29.3648 28.8941 29.5604 28.8823 29.7593Z" fill="#00009B"/>
</g>
<defs>
<clipPath id="clip0_332_42">
<rect width="53" height="53" fill="white"/>
</clipPath>
</defs>
</svg>
