<svg width="49" height="49" viewBox="0 0 49 49" fill="none" xmlns="http://www.w3.org/2000/svg">
<g clip-path="url(#clip0_333_56)">
<path d="M46.0806 8.82103C43.978 4.98714 40.7193 2.92895 36.4206 2.56368C33.8717 2.35232 31.3243 2.98783 29.1739 4.37152C27.0235 5.75522 25.3904 7.80967 24.5283 10.2159C24.077 11.4938 23.805 12.8342 23.3947 14.1296C22.5846 16.7031 21.4656 19.1129 19.6106 21.1029C18.1309 22.6955 16.3568 23.7767 14.185 24.0641C12.2062 24.3251 10.3434 24.8832 8.62876 25.9606C4.84955 28.3314 2.71382 32.9786 3.40299 37.4457C4.3105 43.3456 9.431 47.6616 15.7115 47.4522C19.4624 47.2067 23.4122 46.0476 27.1709 44.229C34.0772 40.8861 39.1938 35.6417 42.7927 28.8243C44.8017 25.0196 46.1888 20.9812 47.1334 16.783C47.764 14.004 47.4492 11.3166 46.0806 8.82103ZM44.8397 16.2034C43.825 20.649 42.3248 24.9096 40.0458 28.8662C36.3416 35.295 31.1753 40.0454 24.3519 42.8585C21.3652 44.0888 18.2742 44.9089 15.4268 45.057C9.66982 45.0667 5.41005 40.702 5.66154 35.3018C5.82628 31.7747 7.64716 29.2246 10.6768 27.5502C11.7607 26.9512 12.9421 26.6609 14.1587 26.5119C17.1424 26.1437 19.5882 24.741 21.5796 22.4949C23.9084 19.8698 25.2077 16.709 26.0802 13.3387C26.4701 11.8338 26.8697 10.3406 27.786 9.0587C29.6888 6.39563 32.2544 4.99298 35.4994 4.93746C39.3985 4.87123 42.8102 7.0989 44.364 10.7282C45.1099 12.4541 45.2768 14.3749 44.8397 16.2034Z" fill="#E1E1FF"/>
<path d="M34.74 21.6979C36.1424 21.6979 37.2793 20.5618 37.2793 19.1605C37.2793 17.7591 36.1424 16.623 34.74 16.623C33.3376 16.623 32.2007 17.7591 32.2007 19.1605C32.2007 20.5618 33.3376 21.6979 34.74 21.6979Z" fill="#E1E1FF"/>
<path d="M31.7016 30.4656C32.6712 30.4656 33.4572 29.6802 33.4572 28.7113C33.4572 27.7424 32.6712 26.957 31.7016 26.957C30.732 26.957 29.946 27.7424 29.946 28.7113C29.946 29.6802 30.732 30.4656 31.7016 30.4656Z" fill="#E1E1FF"/>
<path d="M14.0065 37.6511C14.9761 37.6511 15.7621 36.8657 15.7621 35.8969C15.7621 34.928 14.9761 34.1426 14.0065 34.1426C13.037 34.1426 12.251 34.928 12.251 35.8969C12.251 36.8657 13.037 37.6511 14.0065 37.6511Z" fill="#E1E1FF"/>
<path d="M44.9459 14.2293C44.9255 14.1319 44.904 14.0345 44.8797 13.9371C44.4891 12.3774 43.5991 10.988 42.3452 9.98043C42.7078 10.6642 42.9683 11.3973 43.1182 12.1565C43.3182 13.1772 43.2956 14.2291 43.0519 15.2403C41.9271 20.0132 40.2446 24.565 37.5932 28.7233C33.5966 34.9981 28.1174 39.4077 21.06 41.8195C19.2206 42.4477 17.3462 42.9202 15.5828 43.1481C16.0808 43.2276 16.5845 43.2664 17.0888 43.264C19.1631 43.1598 21.4753 42.6494 23.73 41.9003C26.2143 41.0874 28.5854 39.9628 30.7864 38.5535C34.2955 36.2888 37.2413 33.3218 39.6295 29.6827C42.1747 25.804 43.7928 21.5581 44.8748 17.1047C45.1115 16.1633 45.1359 15.1812 44.9459 14.2293ZM39.1304 12.2549C38.9222 12.2664 38.7266 12.3583 38.5848 12.5111C38.4429 12.6639 38.366 12.8657 38.3701 13.074C38.3795 13.2906 38.4736 13.4949 38.6322 13.6428C38.7909 13.7908 39.0013 13.8705 39.2182 13.865C39.4258 13.8455 39.619 13.75 39.7604 13.5968C39.9019 13.4436 39.9816 13.2435 39.9843 13.0351C39.9803 12.9276 39.955 12.8219 39.9098 12.7243C39.8645 12.6266 39.8003 12.5389 39.7208 12.4663C39.6414 12.3937 39.5483 12.3376 39.4469 12.3013C39.3455 12.265 39.238 12.2492 39.1304 12.2549ZM33.428 13.8815C31.2084 13.9059 29.3837 15.7381 29.3817 17.9463C29.3798 20.1545 31.2435 22.0256 33.4699 22.0188C33.9408 22.0175 34.4079 21.9341 34.8502 21.7724C34.5284 21.6572 34.2353 21.4739 33.991 21.235C33.7467 20.9961 33.557 20.7072 33.4348 20.3882H33.3948C33.0743 20.3815 32.7583 20.3117 32.4647 20.1828C32.1712 20.054 31.9059 19.8686 31.684 19.6374C31.4622 19.4061 31.2881 19.1334 31.1717 18.8349C31.0553 18.5364 30.9989 18.2179 31.0057 17.8976C31.0125 17.5773 31.0823 17.2614 31.2112 16.9681C31.3402 16.6748 31.5257 16.4097 31.7571 16.188C31.9886 15.9663 32.2614 15.7924 32.5602 15.6761C32.8589 15.5598 33.1776 15.5034 33.4982 15.5102C34.0367 15.516 34.5579 15.7012 34.9791 16.0364C35.4004 16.3716 35.6977 16.8377 35.824 17.3609C36.1523 17.3805 36.4728 17.4693 36.7643 17.6216C37.0558 17.7739 37.3117 17.9861 37.5152 18.2443C37.523 18.1401 37.5269 18.0339 37.5259 17.9278C37.5164 16.8491 37.0801 15.8181 36.3122 15.06C35.5444 14.3018 34.5074 13.8781 33.428 13.8815ZM33.6405 9.01611C33.3142 9.16409 32.9994 9.33634 32.6989 9.53139C32.6677 9.6169 32.6522 9.7073 32.653 9.79828C32.6638 10.0056 32.7499 10.2018 32.895 10.3503C33.0402 10.4987 33.2345 10.5892 33.4416 10.6048C33.549 10.6054 33.6555 10.5848 33.7548 10.5442C33.8542 10.5036 33.9446 10.4437 34.0207 10.368C34.0968 10.2923 34.1572 10.2023 34.1983 10.1032C34.2395 10.0041 34.2606 9.89779 34.2605 9.79049C34.2647 9.60919 34.2049 9.43219 34.0915 9.29057C33.9781 9.14896 33.8184 9.05179 33.6405 9.01611ZM31.0515 26.1167C31.4198 26.1204 31.7754 26.2512 32.0583 26.4869C32.3411 26.7227 32.5336 27.0488 32.6033 27.4102C32.8327 27.3012 33.0844 27.2472 33.3383 27.2524C33.6705 27.2561 33.9931 27.3641 34.2605 27.5612C34.2141 26.7145 33.8388 25.9193 33.2145 25.345C32.5902 24.7706 31.7662 24.4625 30.9179 24.4861C30.0697 24.5097 29.2641 24.8632 28.6728 25.4714C28.0814 26.0796 27.751 26.8944 27.7519 27.7424C27.7597 29.521 29.253 31.0065 31.0232 30.9948C31.7637 30.9903 32.4803 30.7325 33.0537 30.2642C32.7618 30.2157 32.4892 30.0871 32.2663 29.8927C32.0434 29.6984 31.879 29.4459 31.7913 29.1635C31.5566 29.294 31.2928 29.3636 31.0242 29.3661C30.5889 29.3623 30.1726 29.1875 29.8653 28.8795C29.558 28.5714 29.3842 28.1549 29.3817 27.72C29.3846 27.5047 29.4302 27.2922 29.516 27.0947C29.6017 26.8972 29.7259 26.7187 29.8812 26.5696C30.0366 26.4204 30.22 26.3036 30.4209 26.2258C30.6218 26.1481 30.8361 26.111 31.0515 26.1167ZM25.3442 33.4562C25.1327 33.4447 24.9253 33.5176 24.7677 33.6589C24.61 33.8002 24.5149 33.9983 24.5034 34.2096C24.4919 34.421 24.5649 34.6282 24.7063 34.7857C24.8477 34.9433 25.046 35.0383 25.2574 35.0498C25.4689 35.0613 25.6763 34.9883 25.834 34.847C25.9916 34.7058 26.0867 34.5077 26.0982 34.2963C26.1097 34.085 26.0367 33.8778 25.8953 33.7202C25.7539 33.5627 25.5557 33.4677 25.3442 33.4562ZM22.0163 28.5508C21.8081 28.5618 21.6117 28.6506 21.4661 28.7997C21.3205 28.9488 21.2365 29.1472 21.2306 29.3554C21.2311 29.4627 21.253 29.5687 21.295 29.6674C21.337 29.7661 21.3983 29.8554 21.4753 29.9302C21.5522 30.0049 21.6434 30.0636 21.7433 30.1027C21.8432 30.1418 21.9499 30.1606 22.0572 30.158C22.2658 30.1514 22.4638 30.065 22.6105 29.9168C22.7572 29.7685 22.8414 29.5697 22.8458 29.3613C22.8395 29.1455 22.7498 28.9405 22.5955 28.7894C22.4412 28.6383 22.2343 28.5528 22.0182 28.5508H22.0163ZM20.404 35.8972C20.2968 35.899 20.1911 35.9219 20.0927 35.9646C19.9944 36.0073 19.9055 36.0689 19.8311 36.146C19.7566 36.2231 19.6981 36.3141 19.659 36.4138C19.6198 36.5135 19.6007 36.62 19.6028 36.7271C19.6144 36.9426 19.7101 37.1449 19.8694 37.2906C20.0287 37.4363 20.2389 37.5138 20.4547 37.5063C20.6622 37.4865 20.8548 37.3903 20.9952 37.2363C21.1355 37.0824 21.2136 36.8818 21.2141 36.6735C21.2018 36.4663 21.1119 36.2712 20.9621 36.1273C20.8123 35.9834 20.6137 35.9013 20.406 35.8972H20.404ZM13.0708 33.4426C13.4642 33.4497 13.8423 33.5965 14.1374 33.8567C14.4324 34.1169 14.6252 34.4735 14.6811 34.8627C14.8192 34.6238 15.0183 34.4257 15.258 34.2888C15.4978 34.1519 15.7697 34.081 16.0458 34.0835C16.0916 34.0835 16.1374 34.0835 16.1823 34.0903C15.7787 32.8348 14.571 31.8792 13.1264 31.812C11.4371 31.7331 9.92031 33.1338 9.82479 34.8598C9.72049 36.7261 11.0598 38.2077 12.9441 38.3138C13.4588 38.3395 13.9721 38.2388 14.4389 38.0204C14.9057 37.8021 15.3118 37.4727 15.6218 37.0612C15.334 36.9901 15.0737 36.8358 14.8734 36.6174C14.6731 36.3991 14.5418 36.1265 14.4959 35.8339C14.3532 36.0924 14.1438 36.308 13.8893 36.4581C13.6349 36.6081 13.3448 36.6873 13.0493 36.6872C12.8381 36.6879 12.6288 36.647 12.4335 36.5667C12.2381 36.4864 12.0606 36.3683 11.911 36.2192C11.7615 36.0702 11.6429 35.893 11.562 35.698C11.4812 35.503 11.4397 35.294 11.44 35.0829C11.4377 34.8676 11.4782 34.6539 11.5594 34.4544C11.6405 34.255 11.7605 34.0736 11.9125 33.9209C12.0644 33.7683 12.2453 33.6473 12.4445 33.5652C12.6437 33.4831 12.8573 33.4414 13.0727 33.4426H13.0708Z" fill="#E1E1FF"/>
<path d="M48.9334 12.7957C48.8623 11.3667 48.5884 9.97092 48.024 8.66471C46.0091 4.00189 42.4999 1.15667 37.4964 0.243004C34.2143 -0.356042 31.0775 0.141702 28.1707 1.80637C24.6449 3.82559 22.4731 6.86465 21.5208 10.7959C20.9203 13.2701 20.0937 15.6546 18.6676 17.7897C17.1012 20.1362 15.0483 21.7249 12.1366 22.0492C9.57882 22.3337 7.24618 23.26 5.24984 24.8925C1.01639 28.3446 -0.821059 32.8253 0.341848 38.1709C1.54667 43.7142 5.12897 47.1975 10.6481 48.6293C11.2915 48.7969 11.9573 48.8787 12.6133 48.9995H14.7188C14.8243 48.9684 14.9318 48.9443 15.0405 48.9274C18.5292 48.6177 21.8639 47.7089 25.107 46.4065C29.6653 44.5807 33.7996 41.8385 37.2537 38.3501C40.2755 35.3179 42.6822 31.8483 44.5703 28.0183C46.5688 23.9915 48.0041 19.7094 48.8359 15.2922C48.912 14.8899 48.9461 14.4798 48.9987 14.0737V13.4045C48.9773 13.2019 48.9422 12.9993 48.9334 12.7957ZM47.0229 16.1542C46.0481 20.4245 44.6113 24.5311 42.533 28.4021C38.8084 35.3373 33.5164 40.6752 26.3732 44.0717C22.4858 45.9224 18.3996 47.101 14.52 47.3504C8.02503 47.5637 2.72517 43.1717 1.78744 37.1725C1.07195 32.6304 3.28274 27.9014 7.19159 25.4896C8.96763 24.3938 10.8957 23.8259 12.9428 23.56C15.1848 23.2678 17.0212 22.1681 18.5575 20.5482C20.4758 18.5241 21.6329 16.0676 22.4712 13.4551C22.8923 12.1372 23.1691 10.7697 23.6409 9.47415C25.4998 4.41587 30.5482 1.24141 35.9367 1.69045C40.3817 2.06157 43.7535 4.15482 45.9282 8.05495C47.3455 10.5933 47.6662 13.3275 47.0219 16.1542H47.0229Z" fill="#00009B"/>
<path d="M44.1573 9.99465C42.546 6.30297 39.0202 4.03634 34.9885 4.10452C31.6324 4.16102 28.9781 5.58704 27.01 8.29297C26.0625 9.59724 25.6453 11.1177 25.2457 12.647C24.344 16.0708 23.0037 19.2862 20.5911 21.9571C18.5314 24.2412 16.0019 25.6682 12.9157 26.0423C11.6544 26.202 10.4301 26.4942 9.31102 27.102C6.17809 28.8047 4.29482 31.3986 4.12424 34.987C3.86397 40.4798 8.26996 44.9224 14.2239 44.9098C17.1697 44.7588 20.365 43.925 23.455 42.6694C26.0688 41.6181 28.5356 40.2335 30.7941 38.5501C34.3696 35.8734 37.3183 32.4818 39.6909 28.4365C42.0479 24.4166 43.5997 20.083 44.6486 15.5604C44.7738 15.0258 44.8511 14.4811 44.8796 13.9328C44.951 12.5816 44.7036 11.2327 44.1573 9.99465ZM43.0558 15.24C41.9309 20.0128 40.2484 24.5646 37.597 28.7229C33.6005 34.9978 28.1213 39.4073 21.0639 41.8191C19.2245 42.4473 17.35 42.9198 15.5866 43.1477C15.1012 43.2126 14.6252 43.2565 14.1586 43.2792C9.23596 43.2977 5.55813 39.5895 5.72774 35.1117C5.86519 31.4921 8.8519 28.2173 12.4839 27.7663C14.7122 27.4887 16.8158 26.8897 18.7225 25.675C21.1965 24.1 22.9939 21.9239 24.3762 19.3787C25.6249 17.0829 26.4144 14.6195 27.0724 12.0996C27.9965 8.55792 30.2726 6.35849 33.9085 5.82081C37.5639 5.28021 40.8099 7.09391 42.3384 9.98004C42.7009 10.6638 42.9614 11.3969 43.1113 12.1561C43.3148 13.1761 43.2958 14.2279 43.0558 15.24Z" fill="#00009B"/>
<path d="M43.1221 12.1561C42.9721 11.397 42.7117 10.6638 42.3491 9.98008C40.7164 8.65438 38.4978 7.97352 36.0959 8.31833C35.2483 8.43262 34.4215 8.66747 33.6405 9.01576C33.8192 9.05157 33.9796 9.14946 34.0931 9.29209C34.2065 9.43472 34.2658 9.61287 34.2604 9.795C34.2606 9.90231 34.2394 10.0086 34.1983 10.1077C34.1571 10.2068 34.0968 10.2968 34.0207 10.3725C33.9445 10.4482 33.8542 10.5081 33.7548 10.5487C33.6554 10.5894 33.549 10.61 33.4416 10.6093C33.2345 10.5937 33.0402 10.5032 32.895 10.3548C32.7498 10.2063 32.6638 10.0101 32.653 9.8028C32.6522 9.71181 32.6677 9.62142 32.6988 9.53591C31.1343 10.5489 30.0757 12.122 29.522 14.1802C28.8894 16.5316 28.1301 18.8294 26.9291 20.9713C25.5966 23.3461 23.8674 25.376 21.4889 26.8449C19.6524 27.9807 17.6288 28.5369 15.4862 28.793C11.9936 29.2138 9.12097 32.2695 8.98937 35.6455C8.84316 39.3664 11.6339 42.5175 15.5906 43.1458C17.3539 42.9179 19.2284 42.4454 21.0678 41.8172C28.1252 39.4054 33.6063 34.9988 37.601 28.721C40.2485 24.5627 41.9309 20.0119 43.0597 15.238C43.3018 14.2271 43.323 13.176 43.1221 12.1561ZM16.3255 35.1371C16.2974 35.8359 16.0536 36.5089 15.6276 37.0638C15.3176 37.4753 14.9115 37.8046 14.4447 38.023C13.9779 38.2414 13.4647 38.3421 12.9499 38.3164C11.0627 38.2102 9.72338 36.7287 9.8306 34.8624C9.92808 33.1364 11.4429 31.7357 13.1322 31.8146C14.5768 31.8818 15.7845 32.8373 16.1881 34.0929C16.2955 34.4301 16.342 34.7836 16.3255 35.1371ZM20.4566 37.5079C20.2408 37.5154 20.0306 37.4379 19.8713 37.2922C19.712 37.1465 19.6163 36.9442 19.6047 36.7287C19.6026 36.6216 19.6217 36.5151 19.6609 36.4154C19.7001 36.3157 19.7585 36.2247 19.833 36.1476C19.9074 36.0705 19.9963 36.0088 20.0946 35.9662C20.193 35.9235 20.2988 35.9006 20.4059 35.8988C20.6145 35.9024 20.814 35.9848 20.9642 36.1293C21.1145 36.2739 21.2044 36.4699 21.216 36.678C21.2147 36.8858 21.1364 37.0857 20.9961 37.239C20.8558 37.3923 20.6636 37.4882 20.4566 37.5079ZM22.0592 30.1577C21.9519 30.1603 21.8451 30.1415 21.7452 30.1023C21.6453 30.0632 21.5542 30.0046 21.4772 29.9298C21.4002 29.8551 21.3389 29.7658 21.2969 29.6671C21.2549 29.5684 21.233 29.4623 21.2326 29.3551C21.2292 29.2467 21.2477 29.1388 21.287 29.0378C21.3262 28.9368 21.3855 28.8446 21.4611 28.767C21.5367 28.6893 21.6273 28.6276 21.7273 28.5856C21.8273 28.5437 21.9347 28.5222 22.0432 28.5226C22.1516 28.523 22.2589 28.5452 22.3586 28.5879C22.4583 28.6306 22.5484 28.6929 22.6235 28.7712C22.6986 28.8494 22.7571 28.9419 22.7956 29.0432C22.8342 29.1446 22.8519 29.2526 22.8478 29.3609C22.8434 29.5694 22.7591 29.7682 22.6124 29.9164C22.4657 30.0646 22.2677 30.151 22.0592 30.1577ZM25.2593 35.0494C25.1032 35.0395 24.9535 34.9839 24.8287 34.8896C24.7039 34.7953 24.6096 34.6664 24.5575 34.519C24.5054 34.3716 24.4977 34.2121 24.5355 34.0604C24.5734 33.9088 24.655 33.7715 24.7702 33.6657C24.8854 33.56 25.0292 33.4904 25.1836 33.4656C25.3381 33.4408 25.4965 33.4619 25.639 33.5263C25.7816 33.5907 25.9021 33.6956 25.9855 33.8278C26.069 33.96 26.1117 34.1139 26.1084 34.2702C26.1052 34.3775 26.0805 34.483 26.0358 34.5807C25.9911 34.6783 25.9273 34.766 25.8482 34.8386C25.7691 34.9112 25.6762 34.9673 25.5751 35.0035C25.474 35.0397 25.3666 35.0553 25.2593 35.0494ZM33.0575 30.2639C32.4842 30.7321 31.7676 30.99 31.0271 30.9944C29.2569 31.0061 27.7635 29.5207 27.7557 27.742C27.7701 26.904 28.1075 26.1038 28.6977 25.5082C29.2878 24.9126 30.0852 24.5674 30.9237 24.5447C31.7622 24.522 32.5771 24.8234 33.1987 25.3862C33.8203 25.949 34.2006 26.7297 34.2604 27.5657C34.2604 27.6203 34.2604 27.6748 34.2604 27.7294C34.2609 28.215 34.1527 28.6945 33.944 29.133C33.7352 29.5715 33.431 29.9579 33.0536 30.2639H33.0575ZM33.4738 22.0185C31.2474 22.0253 29.3797 20.1678 29.3856 17.9459C29.3914 15.7241 31.2123 13.9055 33.4319 13.8812C34.5115 13.8781 35.5485 14.3021 36.3161 15.0606C37.0838 15.8192 37.5198 16.8506 37.5288 17.9294C37.5288 18.0355 37.5288 18.1417 37.5181 18.2459C37.443 19.2685 36.9844 20.2251 36.2341 20.9245C35.4838 21.6239 34.4969 22.0146 33.4709 22.0185H33.4738ZM39.225 13.8646C39.0081 13.8702 38.7976 13.7904 38.639 13.6425C38.4804 13.4946 38.3863 13.2903 38.3769 13.0737C38.3717 12.8598 38.4518 12.6526 38.5995 12.4977C38.7472 12.3428 38.9505 12.2529 39.1645 12.2477C39.3786 12.2425 39.5859 12.3225 39.7409 12.4701C39.896 12.6177 39.986 12.8208 39.9911 13.0347C39.9883 13.2442 39.9076 13.4452 39.7647 13.5986C39.6219 13.7519 39.427 13.8468 39.2181 13.8646H39.225Z" fill="#E1E1FF"/>
<path d="M33.4279 13.8814C31.2083 13.9057 29.3835 15.7379 29.3816 17.9461C29.3796 20.1543 31.2434 22.0255 33.4698 22.0187C34.4959 22.0148 35.4827 21.6241 36.2331 20.9247C36.9834 20.2253 37.4419 19.2687 37.5171 18.2461C37.5249 18.1419 37.5288 18.0357 37.5278 17.9296C37.5188 16.8503 37.0824 15.8184 36.3141 15.0598C35.5457 14.3012 34.508 13.8775 33.4279 13.8814ZM33.4367 20.3881H33.3967C32.7493 20.3744 32.1339 20.1043 31.6859 19.6372C31.2378 19.1701 30.9938 18.5443 31.0075 17.8974C31.0212 17.2505 31.2915 16.6356 31.759 16.1879C32.2264 15.7401 32.8527 15.4963 33.5 15.51C34.1474 15.5184 34.7649 15.7834 35.2167 16.2468C35.6685 16.7101 35.9176 17.3338 35.9092 17.9807C35.9008 18.6276 35.6356 19.2446 35.1719 19.6961C34.7082 20.1476 34.084 20.3965 33.4367 20.3881Z" fill="#00009B"/>
<path d="M16.1813 34.092C15.7777 32.8365 14.57 31.8809 13.1254 31.8137C11.4361 31.7348 9.91934 33.1355 9.82381 34.8616C9.71951 36.7278 11.0589 38.2094 12.9431 38.3156C13.4579 38.3413 13.9711 38.2405 14.4379 38.0222C14.9047 37.8038 15.3108 37.4744 15.6208 37.0629C16.0468 36.5081 16.2906 35.835 16.3187 35.1362C16.3352 34.7828 16.2887 34.4292 16.1813 34.092ZM13.0513 36.6889C12.8401 36.6897 12.6308 36.6487 12.4354 36.5684C12.2401 36.4881 12.0625 36.37 11.913 36.221C11.7634 36.0719 11.6448 35.8948 11.564 35.6997C11.4832 35.5047 11.4417 35.2957 11.4419 35.0846C11.4392 34.8695 11.4793 34.6561 11.5599 34.4566C11.6405 34.2572 11.7599 34.0758 11.9113 33.9228C12.0627 33.7699 12.243 33.6486 12.4417 33.566C12.6404 33.4833 12.8536 33.441 13.0688 33.4414C13.4623 33.4485 13.8404 33.5953 14.1354 33.8555C14.4305 34.1157 14.6232 34.4723 14.6792 34.8616C14.7256 35.1973 14.662 35.539 14.4979 35.8356C14.3556 36.0938 14.1468 36.3091 13.8931 36.4594C13.6394 36.6096 13.3501 36.6892 13.0552 36.6899L13.0513 36.6889Z" fill="#00009B"/>
<path d="M34.2605 27.5656C34.2141 26.7189 33.8388 25.9238 33.2145 25.3494C32.5902 24.7751 31.7663 24.4669 30.918 24.4905C30.0697 24.5141 29.2642 24.8677 28.6729 25.4759C28.0815 26.084 27.7511 26.8988 27.752 27.7468C27.7598 29.5254 29.2531 31.0109 31.0233 30.9992C31.8858 30.9907 32.7101 30.6426 33.3171 30.0303C33.9242 29.418 34.2649 28.5912 34.2654 27.7293C34.2654 27.6699 34.2635 27.6153 34.2605 27.5656ZM31.0243 29.3706C30.589 29.3667 30.1727 29.1919 29.8654 28.8839C29.558 28.5759 29.3843 28.1594 29.3818 27.7244C29.3847 27.5092 29.4303 27.2966 29.5161 27.0991C29.6018 26.9017 29.726 26.7232 29.8813 26.574C30.0366 26.4249 30.2201 26.308 30.421 26.2303C30.6219 26.1525 30.8362 26.1154 31.0516 26.1211C31.4198 26.1248 31.7755 26.2556 32.0583 26.4913C32.3412 26.7271 32.5337 27.0533 32.6034 27.4147C32.6712 27.7552 32.629 28.1084 32.4831 28.4234C32.3372 28.7385 32.095 28.9992 31.7914 29.168C31.5562 29.2967 31.2925 29.3647 31.0243 29.3657V29.3706Z" fill="#00009B"/>
<path d="M22.8478 29.3613C22.8434 29.5697 22.7592 29.7685 22.6124 29.9168C22.4657 30.065 22.2677 30.1513 22.0592 30.158C21.9519 30.1606 21.8451 30.1418 21.7452 30.1027C21.6453 30.0636 21.5542 30.0049 21.4772 29.9302C21.4002 29.8554 21.339 29.7661 21.2969 29.6674C21.2549 29.5687 21.2331 29.4627 21.2326 29.3554C21.2292 29.2471 21.2477 29.1392 21.287 29.0381C21.3262 28.9371 21.3855 28.845 21.4611 28.7673C21.5368 28.6896 21.6273 28.628 21.7273 28.586C21.8273 28.544 21.9347 28.5226 22.0432 28.523C22.1517 28.5233 22.2589 28.5456 22.3586 28.5883C22.4583 28.631 22.5484 28.6933 22.6235 28.7715C22.6986 28.8497 22.7571 28.9423 22.7956 29.0436C22.8342 29.1449 22.8519 29.2529 22.8478 29.3613Z" fill="#00009B"/>
<path d="M26.1084 34.273C26.1032 34.4869 26.0132 34.69 25.8582 34.8376C25.7032 34.9852 25.4958 35.0652 25.2817 35.0601C25.0677 35.0549 24.8645 34.965 24.7167 34.8101C24.569 34.6551 24.489 34.448 24.4941 34.2341C24.4993 34.0201 24.5893 33.8171 24.7443 33.6695C24.8993 33.5219 25.1067 33.4418 25.3207 33.447C25.5348 33.4522 25.738 33.5421 25.8857 33.697C26.0335 33.8519 26.1135 34.0591 26.1084 34.273Z" fill="#00009B"/>
<path d="M21.2159 36.6753C21.2154 36.8835 21.1374 37.0841 20.9971 37.2381C20.8567 37.392 20.6641 37.4882 20.4566 37.5081C20.2408 37.5155 20.0306 37.4381 19.8713 37.2924C19.712 37.1467 19.6163 36.9443 19.6046 36.7288C19.6026 36.6217 19.6217 36.5153 19.6609 36.4156C19.7 36.3158 19.7585 36.2248 19.8329 36.1477C19.9074 36.0706 19.9963 36.009 20.0946 35.9663C20.1929 35.9236 20.2987 35.9007 20.4059 35.8989C20.614 35.9025 20.813 35.9845 20.9632 36.1284C21.1134 36.2723 21.2037 36.4677 21.2159 36.6753Z" fill="#00009B"/>
<path d="M34.2605 9.79014C34.2606 9.89744 34.2395 10.0037 34.1984 10.1028C34.1572 10.2019 34.0969 10.2919 34.0207 10.3676C33.9446 10.4433 33.8543 10.5032 33.7549 10.5439C33.6555 10.5845 33.5491 10.6051 33.4417 10.6045C33.2346 10.5889 33.0402 10.4984 32.8951 10.3499C32.7499 10.2014 32.6639 10.0052 32.6531 9.79793C32.6523 9.70695 32.6678 9.61655 32.6989 9.53104C32.7586 9.37201 32.8663 9.23542 33.007 9.14016C33.1478 9.04489 33.3146 8.99564 33.4846 8.9992C33.537 9.00023 33.5891 9.00577 33.6406 9.01576C33.8185 9.05143 33.9782 9.14861 34.0915 9.29022C34.2049 9.43184 34.2647 9.60884 34.2605 9.79014Z" fill="#00009B"/>
<path d="M39.9843 13.0348C39.9816 13.2433 39.9019 13.4433 39.7604 13.5965C39.619 13.7497 39.4259 13.8453 39.2182 13.8647C39.0013 13.8703 38.7909 13.7905 38.6322 13.6426C38.4736 13.4947 38.3795 13.2904 38.3701 13.0738C38.3649 12.8599 38.445 12.6527 38.5927 12.4978C38.7404 12.3429 38.9437 12.253 39.1577 12.2478C39.3718 12.2426 39.5791 12.3226 39.7342 12.4702C39.8892 12.6178 39.9792 12.8209 39.9843 13.0348Z" fill="#00009B"/>
</g>
<defs>
<clipPath id="clip0_333_56">
<rect width="49" height="49" fill="white"/>
</clipPath>
</defs>
</svg>
