<svg width="50" height="61" viewBox="0 0 50 61" fill="none" xmlns="http://www.w3.org/2000/svg">
<g clip-path="url(#clip0_334_73)">
<path d="M47.9854 12.1C47.9854 11.6187 47.8754 11.3874 47.4001 11.2275C40.3956 8.86497 33.4079 6.47525 26.4051 4.11784C25.9935 3.98582 25.5525 3.98286 25.1393 4.10934C18.1132 6.46334 11.1004 8.86667 4.07928 11.2377C3.64901 11.384 3.50225 11.5779 3.50392 12.0541C3.52393 16.6941 3.48391 21.3374 3.53227 25.9757C3.53156 27.7395 3.64969 29.5012 3.88583 31.2484C5.22001 40.3498 9.4727 47.7469 16.5205 53.472C19.2506 55.6831 22.3725 57.2139 25.4795 58.7668C25.6967 58.8368 25.9322 58.8166 26.1349 58.7107C27.0805 58.2565 28.0078 57.765 28.945 57.2938C33.3045 55.1065 37.0802 52.1572 40.1755 48.332C44.7134 42.7191 47.3467 36.2915 47.832 29.0305C48.0188 26.253 47.9738 23.4499 47.9738 20.6588C47.9738 17.8081 47.9637 14.9541 47.9854 12.1ZM43.9712 28.857C43.5176 35.2472 41.1811 40.9009 37.1836 45.8385C34.2217 49.4953 30.5527 52.2167 26.3501 54.1914C25.9886 54.3475 25.5822 54.3566 25.2143 54.217C18.6752 51.1554 13.692 46.4236 10.4733 39.8276C8.47958 35.777 7.4273 31.3125 7.39805 26.7802C7.36303 22.9397 7.38805 19.1008 7.38805 15.2602C7.38805 14.4744 7.57316 14.2142 8.31697 13.9608C13.9205 12.0547 19.5268 10.1565 25.136 8.26626C25.5325 8.14125 25.9568 8.14125 26.3534 8.26626C31.9647 10.1406 37.5699 12.0343 43.169 13.9472C43.9312 14.2074 44.108 14.471 44.108 15.3079C44.108 17.4237 44.108 19.5385 44.108 21.6521C44.1096 24.0554 44.1397 26.4673 43.9712 28.857Z" fill="#E1E1FF"/>
<path d="M42.1933 23.348V23.3377C42.1933 21.5739 42.1616 19.8101 42.1599 18.0463C42.1599 17.8899 42.1482 17.7351 42.1399 17.5803C42.0501 17.5333 41.9577 17.4918 41.8631 17.4561C36.8299 15.7451 31.7956 14.0397 26.7602 12.3399C26.506 12.2748 26.2384 12.2902 25.993 12.3841C21.0682 14.0476 16.1535 15.7315 11.222 17.3932C10.8534 17.5174 10.7217 17.6722 10.7217 18.0736C10.7434 21.4753 10.7 24.877 10.7567 28.2669C10.7683 29.6608 10.8983 31.0511 11.1453 32.4221C12.813 41.2751 17.581 47.8014 25.386 52.0399C26.1364 52.4464 26.7201 52.4838 27.4873 52.0552C36.8699 46.8217 41.7947 38.7884 42.1399 27.8774C42.1933 26.3738 42.2016 24.86 42.1933 23.348ZM12.9014 35.9497C12.8121 35.8319 12.751 35.6944 12.7229 35.5483C12.7813 35.6776 12.8414 35.8119 12.9014 35.9497Z" fill="#E1E1FF"/>
<path d="M49.955 9.42966C49.955 8.55031 49.7882 8.31729 48.9777 8.03665C41.1739 5.37989 33.3689 2.7305 25.5629 0.0884811C25.1919 -0.0288427 24.7948 -0.0288427 24.4238 0.0884811C16.6189 2.72256 8.81782 5.37138 1.02066 8.03495C0.163447 8.32749 0.0200228 8.54521 0.0200228 9.46368V18.8797C0.0200228 20.2404 0.0350323 21.6011 0.0200228 22.9618C-0.0166671 25.872 0.0350323 28.7805 0.553694 31.6515C2.29702 41.3045 6.96887 49.1421 14.5692 55.1643C17.6195 57.5745 21.0934 59.2209 24.5322 60.9235C24.8241 61.0681 25.3194 60.9864 25.6413 60.835C26.9754 60.204 28.3096 59.5407 29.6038 58.8263C42.7187 51.618 49.5314 40.4076 49.9333 25.2188C50.0717 19.9597 49.9566 14.6921 49.955 9.42966ZM47.9537 19.3678C47.9537 22.2593 48.0004 25.1508 47.807 28.0202C47.3066 35.5244 44.5832 42.168 39.8936 47.9663C36.6949 51.9208 32.7924 54.9687 28.2879 57.2292C27.319 57.7157 26.36 58.2242 25.3828 58.6936C25.173 58.802 24.9301 58.8227 24.7057 58.7515C21.4953 57.1493 18.2682 55.5726 15.4481 53.2798C8.16351 47.3574 3.76406 39.717 2.38986 30.318C2.14545 28.5111 2.02342 26.6891 2.02463 24.8651C1.97459 20.0703 2.01629 15.2721 1.99461 10.4774C1.99461 9.98584 2.1447 9.78514 2.58998 9.62696C9.84625 7.17601 17.0992 4.69444 24.3538 2.25879C24.7813 2.12862 25.2374 2.13217 25.6629 2.269C32.9025 4.70464 40.1271 7.1743 47.3633 9.61505C47.8553 9.78514 47.9737 10.0199 47.9687 10.5182C47.9454 13.4675 47.957 16.4168 47.957 19.3678H47.9537Z" fill="#00009B"/>
<path d="M43.9611 13.835C43.9611 12.9709 43.7777 12.6988 42.9905 12.43C37.2002 10.4616 31.4076 8.50103 25.6129 6.54843C25.2026 6.42005 24.764 6.42005 24.3537 6.54843C18.5523 8.49536 12.7569 10.4593 6.96772 12.4402C6.1989 12.7022 6.00377 12.9709 6.00377 13.7771C6.00377 17.7453 5.97876 21.7134 6.01378 25.6832C6.04439 30.3673 7.13205 34.9813 9.19246 39.1677C12.5279 45.9848 17.6695 50.8782 24.4271 54.0384C24.8053 54.1813 25.2226 54.1722 25.5945 54.0129C29.9423 51.9719 33.7347 49.162 36.7949 45.3793C40.9259 40.2767 43.3407 34.4342 43.8094 27.8297C43.9845 25.3601 43.9528 22.8683 43.9528 20.3867C43.9595 18.2051 43.9623 16.0211 43.9611 13.835ZM41.9449 25.4009C41.5713 37.1828 36.2496 45.8742 26.1098 51.5296C25.276 51.9923 24.6506 51.9532 23.8384 51.5126C15.4031 46.9322 10.2498 39.8787 8.44865 30.3113C8.18189 28.8297 8.04128 27.3273 8.02839 25.821C7.96835 22.1505 8.01505 18.4783 7.9917 14.8062C7.9917 14.3622 8.13012 14.1955 8.52871 14.0612C13.8521 12.2651 19.1688 10.4451 24.4905 8.64731C24.7574 8.54618 25.048 8.52958 25.3243 8.59968C30.7722 10.4298 36.2129 12.273 41.6463 14.1292C41.7488 14.1683 41.849 14.2132 41.9465 14.2636C41.9465 14.4337 41.9682 14.6038 41.9682 14.7738C41.9649 18.3048 42.0583 21.8529 41.9449 25.3941V25.4009Z" fill="#00009B"/>
<path d="M39.7836 22.9957C38.6294 23.9994 37.1446 24.5188 35.6293 24.4488C34.114 24.3788 32.6813 23.7247 31.6208 22.6187C30.5602 21.5127 29.951 20.0373 29.9162 18.4907C29.8814 16.9441 30.4236 15.4417 31.4333 14.2873C32.0404 13.5916 32.1004 13.0235 31.6001 12.5728C31.0998 12.1221 30.5528 12.2326 29.9424 12.9266C28.8467 14.1784 28.1246 15.6275 27.9811 17.3046C27.8894 18.3659 27.9645 19.4409 27.9645 20.555C25.1093 19.9052 22.491 20.5397 20.3496 22.7185C18.2083 24.8973 17.5929 27.6068 18.2233 30.5C17.0959 30.5 15.9969 30.4064 14.9195 30.5221C13.1918 30.7058 11.7142 31.5188 10.4817 32.7672C10.0398 33.2128 10.0314 33.7639 10.4033 34.1908C10.7752 34.6178 11.3139 34.6501 11.8026 34.2725C11.951 34.1585 12.0811 34.0191 12.2262 33.8983C13.7271 32.6584 15.4349 32.1974 17.3094 32.6226C21.8723 33.6534 23.5583 39.0774 20.4781 42.7139C19.9377 43.3523 19.896 43.8937 20.353 44.3382C20.8283 44.7992 21.407 44.7192 21.969 44.0763C23.5734 42.236 24.2905 40.0946 24.022 37.6317C23.9769 37.2201 23.9102 36.8102 23.8469 36.3407C26.8671 37.0347 29.5021 36.3986 31.6501 34.1925C33.7982 31.9865 34.3752 29.294 33.7264 26.292C33.8565 26.292 33.8932 26.292 33.9366 26.292C34.04 26.3073 34.1434 26.326 34.2451 26.3464C36.7951 26.8567 39.0648 26.2444 41.0661 24.5741C41.89 23.8938 42.0367 23.307 41.5664 22.7593C41.1111 22.232 40.5624 22.3069 39.7836 22.9957ZM25.9799 34.5735C24.7946 34.5715 23.6364 34.2111 22.6519 33.5379C21.6674 32.8647 20.9008 31.9088 20.4488 30.7913C19.9969 29.6737 19.88 28.4446 20.113 27.2593C20.3459 26.074 20.9182 24.9857 21.7575 24.1321C22.5968 23.2785 23.6655 22.6979 24.8283 22.4636C25.9912 22.2293 27.196 22.3519 28.2905 22.8159C29.3851 23.28 30.3201 24.0645 30.9775 25.0705C31.6348 26.0764 31.985 27.2585 31.9837 28.4674C31.9793 30.0884 31.3448 31.6415 30.2193 32.7861C29.0939 33.9308 27.5693 34.5735 25.9799 34.5735Z" fill="#00009B"/>
<path d="M37.924 21.8987C38.4093 22.3903 39.008 22.409 39.415 21.9736C39.8219 21.5381 39.8119 20.9683 39.3132 20.4547C37.4954 18.5871 35.6698 16.7281 33.8364 14.8775C33.628 14.6666 33.3361 14.551 32.9759 14.3315C32.6724 14.5918 32.3205 14.7755 32.152 15.0697C31.9085 15.4898 32.057 15.9202 32.4039 16.2773C34.245 18.15 36.0778 20.0312 37.924 21.8987Z" fill="#00009B"/>
<path d="M14.0188 35.0106C13.8253 34.815 13.5368 34.7215 13.1849 34.5225C12.8947 34.7725 12.5629 34.9579 12.3744 35.2419C12.1076 35.6433 12.2593 36.0651 12.5795 36.3934C14.4418 38.3007 16.308 40.2028 18.1781 42.0998C18.6451 42.5727 19.2054 42.5659 19.619 42.1458C20.0326 41.7256 20.0159 41.1252 19.574 40.6694C17.7328 38.7735 15.8811 36.8872 14.0188 35.0106Z" fill="#00009B"/>
<path d="M18.8186 38.4398C19.3039 38.9262 19.8993 38.9501 20.3079 38.5384C20.7165 38.1268 20.7182 37.5281 20.2345 37.023C19.364 36.1147 18.4867 35.2149 17.5912 34.3356C17.381 34.1298 17.0909 34.0192 16.7256 33.8032C16.4238 34.0703 16.0035 34.2642 15.9318 34.5482C15.8467 34.8884 15.9318 35.4276 16.1569 35.6861C16.9958 36.6437 17.9164 37.5315 18.8186 38.4398Z" fill="#00009B"/>
<path d="M32.9326 18.3083C32.539 17.9341 32.0287 17.9937 31.6418 18.3934C31.2549 18.7931 31.1915 19.2982 31.5701 19.7064C32.539 20.7491 33.5297 21.7747 34.572 22.7408C34.7804 22.9347 35.2941 22.9432 35.5893 22.8309C35.8578 22.7272 36.0229 22.3428 36.228 22.0894C36.0996 21.7662 36.0696 21.5026 35.9278 21.3529C34.9439 20.3204 33.9599 19.2897 32.9326 18.3083Z" fill="#00009B"/>
<path d="M23.9652 24.9757C23.7584 24.7665 23.4516 24.6594 23.0947 24.4468C22.7912 24.7155 22.4443 24.9026 22.2792 25.1969C22.039 25.6221 22.2058 26.0473 22.5477 26.4028C24.3822 28.2618 26.1917 30.1277 28.0228 31.9799C28.5231 32.4902 29.0868 32.5055 29.5138 32.0752C29.9407 31.6449 29.9324 31.0547 29.4387 30.5444C27.6242 28.6802 25.7997 26.824 23.9652 24.9757Z" fill="#00009B"/>
<path d="M27.2607 24.0519C26.8704 23.6811 26.3551 23.7491 25.9682 24.1539C25.5813 24.5588 25.5413 25.0486 25.8848 25.4245C26.8604 26.4943 27.8694 27.5336 28.9267 28.5184C29.1335 28.7089 29.6555 28.7038 29.9541 28.5847C30.2226 28.4776 30.3827 28.0898 30.5711 27.8499C30.4527 27.5302 30.4294 27.287 30.2993 27.1509C29.302 26.1014 28.3064 25.0486 27.2607 24.0519Z" fill="#00009B"/>
<path d="M23.2514 28.5746C23.0396 28.3671 22.7511 28.2514 22.3875 28.0337C22.0806 28.2922 21.7204 28.4691 21.5536 28.7583C21.3118 29.175 21.4536 29.6189 21.7971 29.9693C22.681 30.8673 23.5566 31.7722 24.4455 32.6635C24.9458 33.1584 25.5178 33.1941 25.9464 32.7893C26.375 32.3845 26.3634 31.745 25.8614 31.2211C24.9975 30.3248 24.1336 29.4369 23.2514 28.5746Z" fill="#00009B"/>
</g>
<defs>
<clipPath id="clip0_334_73">
<rect width="50" height="61" fill="white"/>
</clipPath>
</defs>
</svg>
