<svg width="16" height="11" viewBox="0 0 16 11" fill="none" xmlns="http://www.w3.org/2000/svg">
<path d="M8 0.300049C4.47095 0.300049 1.42938 2.36946 0.0321837 5.35577C-0.0107279 5.44626 -0.0107279 5.55213 0.0321837 5.64433C1.42938 8.63062 4.47097 10.7 8 10.7C11.529 10.7 14.5706 8.63064 15.9678 5.64433C16.0107 5.55383 16.0107 5.44797 15.9678 5.35577C14.5706 2.36946 11.529 0.300049 8 0.300049ZM8 9.08825C6.00719 9.08825 4.39371 7.48153 4.39371 5.5009C4.39371 3.51857 6.0089 1.91358 8 1.91358C9.99281 1.91358 11.6063 3.52028 11.6063 5.5009C11.6063 7.48153 9.9911 9.08825 8 9.08825Z" fill="#666666"/>
<path d="M8.00005 7.79564C9.27507 7.79564 10.3087 6.76746 10.3087 5.49914C10.3087 4.23082 9.27507 3.20264 8.00005 3.20264C6.72502 3.20264 5.69141 4.23082 5.69141 5.49914C5.69141 6.76746 6.72502 7.79564 8.00005 7.79564Z" fill="#666666"/>
</svg>
