<svg width="20" height="18" viewBox="0 0 20 18" fill="none" xmlns="http://www.w3.org/2000/svg">
<g clip-path="url(#clip0_404_913)">
<path d="M0 15.4425V10.5443C0.0145042 10.5106 0.0261733 10.4757 0.0348861 10.44C0.206017 9.29333 1.02773 8.34154 2.1587 8.08766C2.64003 7.97913 3.15342 8.00933 3.65267 7.98243C3.83794 7.97252 4.02416 7.98243 4.2231 7.98243V7.71487C4.2231 5.44195 4.2231 3.16887 4.2231 0.89564C4.2231 0.612509 4.28533 0.360521 4.51681 0.174126C4.69784 0.0259538 4.9114 0 5.1358 0C8.59832 0 12.0612 0 15.5243 0C16.4903 0 17.4572 0 18.4227 0C18.9498 0 19.2713 0.310973 19.2713 0.820611C19.2713 5.39791 19.2713 9.97521 19.2713 14.5525C19.2795 15.1533 19.1198 15.7445 18.8102 16.2593C18.121 17.3918 17.106 17.9652 15.7822 17.9666C11.6672 17.9704 7.5519 17.9704 3.43628 17.9666C3.32361 17.9666 3.21046 17.9666 3.09779 17.976C2.44864 18.0286 1.80097 17.8582 1.26152 17.4929C0.722069 17.1277 0.323015 16.5894 0.130116 15.9668C0.0773152 15.795 0.0429005 15.6194 0 15.4425ZM5.75574 1.54543V1.80449C5.75574 6.19304 5.76045 10.5816 5.74772 14.9701C5.74772 15.3585 5.63458 15.7469 5.56481 16.1338C5.54689 16.2315 5.49173 16.3226 5.44742 16.432C5.53416 16.4358 5.58885 16.4405 5.64542 16.4405C9.01994 16.4405 12.3945 16.4397 15.769 16.4382C15.9507 16.4395 16.1319 16.4181 16.3083 16.3745C17.1682 16.1546 17.7504 15.3566 17.7476 14.4317C17.7344 10.2064 17.7419 5.98116 17.7419 1.75589V1.54543H5.75574ZM4.2231 9.52409C3.71396 9.52409 3.23309 9.50521 2.75082 9.52833C2.11532 9.559 1.57223 10.1017 1.54583 10.734C1.52226 11.304 1.53122 11.8755 1.53122 12.4465C1.53122 13.3629 1.52509 14.2793 1.54206 15.1947C1.5562 15.9819 2.3435 16.6793 3.29815 16.3914C3.87189 16.2178 4.22169 15.7006 4.22216 15.0338C4.22436 13.2583 4.22436 11.4823 4.22216 9.70576L4.2231 9.52409Z" fill="white"/>
<path d="M11.7441 10.0179C10.6466 10.0179 9.54915 10.0221 8.45165 10.0179C7.88593 10.015 7.5168 9.487 7.71999 8.97972C7.76571 8.85183 7.84679 8.73957 7.95379 8.65602C8.06079 8.57248 8.18931 8.52109 8.32437 8.50783C8.40519 8.49754 8.48662 8.49266 8.5681 8.49321C10.6817 8.49321 12.7953 8.49321 14.9089 8.49321C15.369 8.49321 15.6537 8.66969 15.7683 9.02078C15.807 9.13432 15.818 9.25545 15.8006 9.37413C15.7831 9.49281 15.7377 9.60562 15.668 9.70323C15.5984 9.80083 15.5065 9.8804 15.3999 9.93537C15.2934 9.99033 15.1753 10.0191 15.0555 10.0193C14.4346 10.0297 13.8137 10.0221 13.1929 10.0226L11.7441 10.0179Z" fill="white"/>
<path d="M10.8132 13.483C10.017 13.483 9.22024 13.4868 8.42351 13.483C8.25884 13.4845 8.0983 13.4314 7.9669 13.3321C7.8355 13.2327 7.74062 13.0927 7.69703 12.9337C7.60275 12.618 7.72013 12.2608 8.00582 12.0961C8.15205 12.0117 8.317 11.9652 8.48574 11.9607C10.0415 11.9508 11.5972 11.9574 13.1529 11.9536C13.8492 11.9536 14.1406 12.6166 13.8827 13.0824C13.7286 13.3617 13.482 13.4839 13.1676 13.4835C12.3837 13.4835 11.5997 13.4835 10.8156 13.4835L10.8132 13.483Z" fill="white"/>
<path d="M10.8029 6.32305C10.0189 6.32305 9.23491 6.32541 8.45091 6.32305C8.11148 6.32305 7.85502 6.16591 7.72632 5.85116C7.60799 5.56143 7.65607 5.2849 7.86775 5.04518C8.02898 4.86445 8.24065 4.79555 8.47495 4.79555C10.0368 4.79555 11.5987 4.79084 13.1601 4.79555C13.6499 4.79555 13.9756 5.12587 13.97 5.57228C13.9643 6.01868 13.6287 6.32305 13.136 6.32305C12.3582 6.32305 11.5808 6.32305 10.8029 6.32305Z" fill="white"/>
</g>
<defs>
<clipPath id="clip0_404_913">
<rect width="19.2727" height="17.9878" fill="white"/>
</clipPath>
</defs>
</svg>
