<svg width="14" height="14" viewBox="0 0 14 14" fill="none" xmlns="http://www.w3.org/2000/svg">
<path d="M10.4852 2.95471C11.0295 2.95471 11.4704 2.52299 11.4704 1.98551V0.971121C11.4704 0.433158 11.03 0 10.4852 0C9.94041 0 9.50049 0.432677 9.50049 0.971121V1.98599C9.50098 2.52299 9.9409 2.95471 10.4852 2.95471Z" fill="#666666"/>
<path d="M13.9849 1.67979H12.0018V2.17352C12.0018 2.9884 11.3302 3.65232 10.5021 3.65232C9.67295 3.65232 9.00282 2.9884 9.00282 2.17352V1.67979H5.00108V2.17352C5.00108 2.9884 4.32851 3.65232 3.50085 3.65232C2.67319 3.65232 2.00111 2.98888 2.00111 2.17352V1.67979L0 1.65527V14H1.0008H13.0007L14 13.9972L13.9849 1.67979ZM12.9997 13.0169H1.0008V5.13064H13.0007V13.0169H12.9997Z" fill="#666666"/>
<path d="M3.48568 2.95471C4.02998 2.95471 4.47137 2.52299 4.47137 1.98551V0.971121C4.47137 0.432677 4.02998 0 3.48568 0C2.94139 0 2.50146 0.432677 2.50146 0.971121V1.98599C2.50146 2.52299 2.9409 2.95471 3.48568 2.95471Z" fill="#666666"/>
<path d="M6.57973 6.18872H5.00391V7.55983H6.57973V6.18872Z" fill="#666666"/>
<path d="M9.12904 6.18872H7.55176V7.55983H9.12904V6.18872Z" fill="#666666"/>
<path d="M11.4904 6.18872H9.91455V7.55983H11.4904V6.18872Z" fill="#666666"/>
<path d="M6.57973 8.46558H5.00391V9.83572H6.57973V8.46558Z" fill="#666666"/>
<path d="M9.12904 8.46558H7.55176V9.83572H9.12904V8.46558Z" fill="#666666"/>
<path d="M11.4904 8.46558H9.91455V9.83572H11.4904V8.46558Z" fill="#666666"/>
<path d="M6.57973 10.7876H5.00391V12.1577H6.57973V10.7876Z" fill="#666666"/>
<path d="M4.07631 8.46558H2.50146V9.83572H4.07631V8.46558Z" fill="#666666"/>
<path d="M4.07631 6.24976H2.50146V7.6199H4.07631V6.24976Z" fill="#666666"/>
<path d="M4.07631 10.7876H2.50146V12.1577H4.07631V10.7876Z" fill="#666666"/>
<path d="M9.12904 10.7876H7.55176V12.1577H9.12904V10.7876Z" fill="#666666"/>
<path d="M11.4904 10.7876H9.91455V12.1577H11.4904V10.7876Z" fill="#666666"/>
</svg>
