<svg width="13" height="13" viewBox="0 0 13 13" fill="none" xmlns="http://www.w3.org/2000/svg">
<g clip-path="url(#clip0_407_4173)">
<path d="M13.0002 7.83411C13.0002 7.34211 12.7708 6.96079 12.3575 6.68696C12.4014 6.59664 12.4485 6.51204 12.4847 6.42299C12.8265 5.58211 12.2451 4.642 11.3374 4.59206C10.8773 4.5663 10.4146 4.58189 9.9536 4.58061C9.49255 4.57934 9.03087 4.58061 8.56918 4.58061H8.41614C8.46227 4.34908 8.50905 4.13537 8.54691 3.92101C8.68627 3.13355 8.82309 2.34451 8.7865 1.54084C8.77396 1.28364 8.73504 1.0284 8.67036 0.779141C8.55105 0.317991 8.22109 0.0750119 7.76163 0.0117229C7.32254 -0.0487037 6.97222 0.12717 6.71704 0.477008C6.61921 0.619692 6.53967 0.774086 6.48031 0.936569C6.25408 1.50903 6.02817 2.08436 5.81976 2.66477C5.63745 3.17363 5.33867 3.60202 4.9839 3.99893C4.55912 4.47407 4.07485 4.88402 3.5718 5.27107C3.54085 5.29149 3.51577 5.31963 3.49903 5.3527C3.48229 5.38578 3.47447 5.42264 3.47635 5.45966C3.4791 7.69799 3.4791 9.93632 3.47635 12.1747C3.47635 12.2608 3.49321 12.3066 3.58612 12.3375C4.66556 12.7012 5.78952 12.9164 6.92704 12.9771C6.96415 12.9813 7.00086 12.9885 7.03681 12.9987H10.8735C11.115 12.9351 11.345 12.8508 11.5416 12.6873C11.7755 12.4949 11.9369 12.2287 11.9996 11.9325C12.0623 11.6364 12.0224 11.3277 11.8866 11.0571C11.8697 11.0253 11.8547 10.9906 11.8385 10.9575C12.5891 10.5473 12.7889 9.67045 12.3546 8.98413C12.7657 8.71412 13.0005 8.33057 13.0002 7.83411Z" fill="white"/>
<path d="M0.505274 5.70738C0.259001 5.70388 0.0916367 5.78625 0 6.01651V11.8063C0.0779548 12.0547 0.254546 12.1358 0.504956 12.1333C1.18619 12.126 1.8671 12.1307 2.54833 12.1307H2.69851V5.7112H2.54865C1.86742 5.7112 1.18619 5.71788 0.505274 5.70738Z" fill="white"/>
</g>
<defs>
<clipPath id="clip0_407_4173">
<rect width="13" height="13" fill="white"/>
</clipPath>
</defs>
</svg>
