<svg width="15" height="15" viewBox="0 0 15 15" fill="none" xmlns="http://www.w3.org/2000/svg">
<g clip-path="url(#clip0_407_4189)">
<path d="M7.97389 0C8.26449 0.243444 8.55274 0.490411 8.84648 0.730333C10.8674 2.37965 12.889 4.02792 14.9115 5.67515C14.9369 5.69589 14.9604 5.71977 15 5.75616L7.9547 11.5241V7.95421C7.6077 7.99765 7.27755 8.01957 6.95561 8.08258C4.34491 8.59413 2.38943 10.0121 1.15927 12.3781C0.758616 13.1468 0.462141 13.9695 0.117493 14.7667C0.0830287 14.845 0.0391645 14.9233 0 15.0016V11.5068C0.0107684 11.4646 0.0188783 11.4217 0.024282 11.3785C0.0845953 10.3773 0.309008 9.41252 0.739817 8.50881C2.01775 5.8317 4.11697 4.20783 7.03747 3.66614C7.33394 3.61096 7.6359 3.58787 7.94452 3.54873V0H7.97389Z" fill="white"/>
</g>
<defs>
<clipPath id="clip0_407_4189">
<rect width="15" height="15" fill="white"/>
</clipPath>
</defs>
</svg>
