<svg width="14" height="14" viewBox="0 0 14 14" fill="none" xmlns="http://www.w3.org/2000/svg">
<g clip-path="url(#clip0_688_42)">
<path d="M0 7.41016V6.58984C0.0113932 6.49141 0.0227865 6.39308 0.0341797 6.29487C0.20166 4.78857 0.776904 3.45967 1.79238 2.33311C2.87109 1.13682 4.2041 0.38999 5.79414 0.109033C6.05767 0.062207 6.32324 0.0358887 6.58984 0H7.41016C7.44475 0.0101611 7.48005 0.017702 7.51577 0.0225586C8.60952 0.0998047 9.63491 0.412891 10.5697 0.985742C12.383 2.09727 13.4996 3.69927 13.891 5.79551C13.9398 6.05801 13.9641 6.32495 14 6.58984V7.41016C13.9886 7.50859 13.9772 7.60692 13.9658 7.70513C13.7983 9.21143 13.2231 10.5403 12.2076 11.6669C11.1296 12.8632 9.79419 13.61 8.20518 13.891C7.94165 13.9378 7.67471 13.9641 7.40947 14H6.58916C6.55457 13.9898 6.51927 13.9823 6.48354 13.9774C5.38979 13.9002 4.3644 13.5871 3.42959 13.0143C1.61704 11.9027 0.500391 10.3007 0.109033 8.20312C0.0601563 7.94199 0.0358887 7.67505 0 7.41016ZM12.9127 7C12.9151 3.73994 10.2707 1.09238 7.00513 1.08691C3.74917 1.08042 1.09888 3.72559 1.08726 6.99111C1.07598 10.2498 3.73755 12.9148 7.00034 12.9127C8.56789 12.9118 10.071 12.2888 11.1796 11.1805C12.2881 10.0722 12.9115 8.56926 12.9127 7.00171V7Z" fill="#00009B"/>
<path d="M6.45576 5.41462C6.45576 4.88142 6.45098 4.34856 6.45576 3.81536C6.46055 3.4052 6.83413 3.14373 7.19848 3.28728C7.41963 3.37444 7.54233 3.57405 7.54267 3.85569C7.54267 4.75769 7.5478 5.66004 7.53823 6.56204C7.53652 6.72337 7.5895 6.81497 7.71494 6.90691C8.29907 7.33518 8.87534 7.77405 9.45503 8.20779C9.65669 8.35852 9.75205 8.55369 9.6895 8.80252C9.59551 9.17507 9.17339 9.32922 8.85244 9.10774C8.6501 8.96795 8.45732 8.81482 8.26045 8.66716C7.76108 8.29119 7.26548 7.9135 6.76098 7.54641C6.54599 7.38987 6.44756 7.19675 6.45337 6.93118C6.45986 6.42566 6.45542 5.92048 6.45576 5.41462Z" fill="#00009B"/>
</g>
<defs>
<clipPath id="clip0_688_42">
<rect width="14" height="14" fill="white"/>
</clipPath>
</defs>
</svg>
