<svg width="28" height="31" viewBox="0 0 28 31" fill="none" xmlns="http://www.w3.org/2000/svg">
<g id="Layer_1" clip-path="url(#clip0_418_5949)">
<path id="Vector" d="M27.9657 0.751274C28.0227 1.04522 27.9985 1.37548 27.9657 1.66773C27.8984 2.29278 27.7749 2.91023 27.6952 3.5336C27.6141 4.17132 27.5249 4.81242 27.4423 5.45183C27.2713 6.77908 27.1007 8.10604 26.9306 9.43273C26.8234 10.2678 26.7157 11.1035 26.6076 11.9397C26.2538 14.6989 25.8995 17.4582 25.5448 20.2174C25.2948 22.1601 25.047 24.1113 24.7875 26.0566C24.6947 26.7466 24.1889 27.1149 23.618 26.8911C19.5613 25.2947 15.5046 23.6881 11.4063 22.0672C15.3324 16.605 19.248 11.1533 23.1532 5.71198C23.1393 5.69593 23.1276 5.67989 23.1137 5.66468C23.0576 5.70548 23.0034 5.74975 22.9514 5.79729C18.0127 10.6778 13.075 15.5605 8.13826 20.4455C7.95552 20.6262 7.80934 20.6575 7.58128 20.5662C5.29443 19.6506 3.00416 18.7449 0.710478 17.849C0.311386 17.6918 0.035823 17.419 0.00219986 16.9198C-0.0314232 16.4206 0.204669 16.1005 0.578178 15.875C2.63357 14.6361 4.6897 13.3973 6.74655 12.1585L12.9471 8.41237L19.1454 4.67136L25.3445 0.928653L26.4292 0.274039C26.7757 0.0654071 27.2333 -0.140691 27.5987 0.121155C27.6945 0.190837 27.7766 0.282887 27.8398 0.391401C27.903 0.499914 27.9459 0.622493 27.9657 0.751274Z" fill="#00009B"/>
<path id="Vector_2" d="M14.9428 25.6033C14.8924 25.6936 14.8573 25.7654 14.8149 25.8313C13.8296 27.3832 12.8438 28.9349 11.8575 30.4863C11.6441 30.8241 11.378 31.0361 11.006 30.9931C10.5192 30.9373 10.2158 30.5226 10.2158 29.9043C10.2114 28.0317 10.2158 26.1582 10.2158 24.2856V23.7349L14.9428 25.6033Z" fill="#00009B"/>
</g>
<defs>
<clipPath id="clip0_418_5949">
<rect width="28" height="31" fill="white"/>
</clipPath>
</defs>
</svg>
