<svg width="15" height="15" viewBox="0 0 15 15" fill="none" xmlns="http://www.w3.org/2000/svg">
<g clip-path="url(#clip0_688_38)">
<path d="M0 4.1304C0.0219809 3.95712 0.0343452 3.78177 0.0680035 3.61089C0.152922 3.18488 0.343452 2.80837 0.64775 2.49714C1.0507 2.08537 1.43966 1.65644 1.87353 1.27899C2.53416 0.704824 3.25154 0.707998 3.88736 1.30335C4.56413 1.93704 5.213 2.60257 5.84503 3.28079C6.31479 3.78435 6.30998 4.55693 5.85362 5.07524C5.51558 5.45948 5.14302 5.81386 4.78033 6.1757C4.71027 6.24544 4.6967 6.29091 4.74264 6.3839C5.10618 7.11908 5.6199 7.7436 6.17518 8.33698C6.74471 8.94536 7.37116 9.48864 8.07541 9.93739C8.2759 10.0651 8.49056 10.1706 8.71354 10.2947C8.98702 10.0182 9.2465 9.73939 9.52443 9.48024C9.72647 9.29151 9.934 9.09609 10.1721 8.96244C10.6722 8.68158 11.2826 8.75252 11.6957 9.15005C12.3886 9.81686 13.0719 10.4951 13.7315 11.1947C14.2216 11.7147 14.2256 12.5016 13.7518 13.0402C13.3363 13.5125 12.8919 13.9609 12.4397 14.3987C12.0941 14.7332 11.6605 14.9111 11.1816 14.9726C11.1486 14.9769 11.1168 14.9907 11.0845 15H10.5273C10.495 14.9914 10.4632 14.98 10.4304 14.9743C10.1141 14.9166 9.79241 14.8799 9.48245 14.799C8.3816 14.5108 7.37734 13.9993 6.42306 13.3959C4.03001 11.8825 2.18993 9.86295 0.902849 7.33715C0.540937 6.6277 0.257589 5.88506 0.103036 5.10107C0.0531492 4.84894 0.0336583 4.59081 0 4.33543V4.1304ZM0.863352 4.25582C0.879151 4.42568 0.892459 4.59579 0.911865 4.7653C0.920451 4.84251 0.939598 4.91869 0.956685 4.99478C1.18851 6.02935 1.62247 6.98157 2.17534 7.87785C3.64703 10.2635 5.60556 12.1287 8.13423 13.3717C8.91257 13.7544 9.71599 14.0635 10.5921 14.1392C11.132 14.186 11.6069 14.058 11.992 13.6562C12.3097 13.3249 12.6341 13.0002 12.9547 12.6717C13.0027 12.6231 13.0479 12.5717 13.0899 12.5177C13.296 12.2505 13.296 11.9708 13.0687 11.7204C12.8389 11.4678 12.5921 11.2305 12.3509 10.9884C11.975 10.611 11.6003 10.2335 11.2198 9.86095C10.9443 9.59142 10.6514 9.58979 10.3624 9.84491C10.3185 9.8836 10.2765 9.92503 10.2354 9.96638C9.89983 10.3009 9.56642 10.6374 9.22872 10.9696C8.99389 11.2005 8.73192 11.2563 8.45235 11.1175C8.169 10.9768 7.88643 10.8289 7.61948 10.6598C6.70409 10.0811 5.91467 9.35585 5.20553 8.54166C4.72006 7.98405 4.27692 7.39685 3.96189 6.72301C3.69528 6.15305 3.73092 5.99778 4.18857 5.55693C4.51553 5.24193 4.84113 4.92443 5.15229 4.59433C5.40705 4.32428 5.39898 4.05337 5.15908 3.77079C5.13065 3.73734 5.1012 3.70457 5.07012 3.67351C4.50062 3.10304 3.93055 2.53325 3.3599 1.96415C3.29482 1.89947 3.22072 1.83899 3.14061 1.79524C2.88972 1.65798 2.63462 1.71658 2.37531 1.97102C2.05109 2.28919 1.7383 2.61904 1.40893 2.93181C1.02666 3.29434 0.845149 3.73039 0.863352 4.25582Z" fill="#00009B"/>
<path d="M8.3441 0C8.52372 0.0368019 8.74079 0.0723171 8.95321 0.126104C10.2542 0.455606 11.4104 1.05996 12.4094 1.95891C13.4459 2.89165 14.2084 4.01029 14.6584 5.33027C14.7994 5.74376 14.8902 6.17517 14.9877 6.60221C15.0432 6.84567 14.901 7.04375 14.6682 7.09642C14.4492 7.14601 14.2345 7.02522 14.1702 6.79617C14.103 6.55726 14.0625 6.31097 13.9968 6.07154C13.5551 4.46084 12.6473 3.16351 11.3157 2.16411C10.4444 1.50982 9.46598 1.08476 8.3939 0.878699C8.31267 0.863087 8.22999 0.847559 8.15348 0.81865C7.96295 0.746504 7.85545 0.546195 7.89177 0.34683C7.9268 0.151154 8.1072 0.00111521 8.3441 0Z" fill="#00009B"/>
<path d="M8.23034 2.72318C8.6181 2.78254 9.02225 2.89338 9.40443 3.07113C10.9689 3.79876 11.9248 5.0079 12.2723 6.69856C12.3238 6.94922 12.1881 7.17261 11.9539 7.2282C11.7312 7.28096 11.5135 7.14241 11.4404 6.90221C11.3429 6.5812 11.2799 6.24441 11.1418 5.94202C10.5523 4.65103 9.55031 3.86335 8.15753 3.57503C7.90466 3.5227 7.76823 3.37566 7.76565 3.15648C7.76316 2.90951 7.95283 2.72018 8.23034 2.72318Z" fill="#00009B"/>
</g>
<defs>
<clipPath id="clip0_688_38">
<rect width="15" height="15" fill="white"/>
</clipPath>
</defs>
</svg>
