<svg width="13" height="15" viewBox="0 0 13 15" fill="none" xmlns="http://www.w3.org/2000/svg">
<path d="M6.31612 1.57903C7.58645 1.57903 8.77941 2.06379 9.67472 2.94489C10.5629 3.81889 11.0532 4.98105 11.0532 6.21348C11.0532 7.44592 10.5637 8.60572 9.67551 9.48129L6.31612 12.7846L2.95752 9.47971C2.06932 8.60572 1.57982 7.44592 1.57982 6.21191C1.57982 4.97789 2.06932 3.8181 2.95752 2.94252C3.85283 2.06379 5.04658 1.57903 6.31612 1.57903ZM6.31612 0C4.69998 0 3.08227 0.606348 1.84983 1.81983C-0.616611 4.2468 -0.616611 8.18096 1.84983 10.6079L6.31612 15L10.7824 10.6063C13.2489 8.18096 13.2489 4.24601 10.7824 1.81983C9.54998 0.606348 7.93305 0 6.31612 0Z" fill="#00009B"/>
<path d="M6.31623 4.34176C6.84363 4.34176 7.33945 4.54704 7.7121 4.9189C8.48266 5.68946 8.48266 6.94163 7.7121 7.71141C7.33866 8.08406 6.84363 8.28855 6.31623 8.28855C5.78884 8.28855 5.29381 8.08327 4.92037 7.71141C4.14981 6.94085 4.14981 5.68867 4.92037 4.9189C5.29381 4.54704 5.78963 4.34176 6.31623 4.34176ZM6.31623 3.55225C5.60883 3.55225 4.90142 3.82226 4.36218 4.36071C3.28292 5.43998 3.28292 7.19033 4.36218 8.2696C4.90221 8.80963 5.60804 9.07806 6.31623 9.07806C7.02443 9.07806 7.73105 8.80805 8.27029 8.2696C9.34876 7.19033 9.34876 5.43998 8.27029 4.36071C7.73105 3.82147 7.02364 3.55225 6.31623 3.55225Z" fill="#00009B"/>
</svg>
