<svg width="19" height="19" viewBox="0 0 19 19" fill="none" xmlns="http://www.w3.org/2000/svg">
<path d="M18.2515 18.9999C18.1065 18.8992 17.9436 18.8164 17.8189 18.6944C16.2594 17.1678 14.7029 15.6379 13.1496 14.1048C13.1108 14.066 13.0696 14.0298 13.0218 13.9855C12.9681 14.022 12.9164 14.0539 12.8686 14.0904C11.8562 14.8714 10.6675 15.3919 9.40692 15.6062C7.50253 15.9307 5.68908 15.645 4.00466 14.6769C2.25418 13.668 1.0377 12.2082 0.388651 10.2887C0.196714 9.72039 0.0773588 9.13015 0.033424 8.53195C0.0259052 8.48401 0.0147313 8.43672 0 8.39048L0 7.35162C0.0478041 7.03564 0.085892 6.71734 0.144967 6.40331C0.352304 5.2755 0.817 4.21071 1.50291 3.29176C2.6471 1.75348 4.13914 0.71384 6.00272 0.260284C8.60669 -0.371663 10.9899 0.140968 13.0762 1.81839C14.7474 3.16234 15.719 4.93498 15.937 7.0784C16.1271 8.94392 15.6825 10.6703 14.6218 12.2257C14.4069 12.5405 14.1628 12.8355 13.9001 13.1822C13.9566 13.2133 14.0099 13.2498 14.0595 13.291C15.6205 14.8246 17.1805 16.3591 18.7392 17.8946C19.0113 18.1635 19.0816 18.4523 18.8947 18.7022C18.8014 18.8273 18.6405 18.9023 18.5103 18.9999H18.2515ZM1.22853 7.63417C1.22503 8.70684 1.42557 9.73677 1.77264 10.4764C2.86086 12.7966 4.67975 14.1487 7.21881 14.4678C8.99689 14.6913 10.6421 14.2572 12.0676 13.1616C14.0925 11.607 14.9984 9.5269 14.6755 6.99095C14.391 4.75504 13.1854 3.07023 11.2029 2.03098C8.95259 0.850645 6.65566 0.900781 4.46949 2.2117C2.35717 3.47754 1.31792 5.41263 1.2293 7.63417H1.22853Z" fill="#888888"/>
</svg>
