<svg width="31" height="26" viewBox="0 0 31 26" fill="none" xmlns="http://www.w3.org/2000/svg">
<g clip-path="url(#clip0_428_776)">
<path d="M15.5008 20.9559C14.4145 20.9477 13.3394 20.7313 12.3321 20.3181C12.2515 20.2806 12.1627 20.2648 12.0744 20.2722C11.986 20.2797 11.901 20.3102 11.8276 20.3608C11.2061 20.7248 10.5764 21.0738 9.94947 21.4275C9.68077 21.5789 9.40111 21.6949 9.11778 21.4879C8.83446 21.2809 8.79516 20.9671 8.86097 20.6449C9.0008 19.9542 9.14246 19.2635 9.30697 18.5784C9.33406 18.4923 9.33695 18.4003 9.31531 18.3128C9.29367 18.2252 9.24836 18.1454 9.1845 18.0826C5.74168 14.125 6.60079 7.89094 10.9996 5.11789C15.8115 2.08397 22.4933 4.50609 23.7628 10.6064C24.7681 15.4451 21.6607 20.0508 16.8634 20.8306C16.412 20.903 15.9541 20.916 15.5008 20.9559ZM19.8009 13.9866C20.1143 13.9824 20.4194 13.8838 20.6776 13.7034C20.9359 13.523 21.1357 13.2689 21.2518 12.9732C21.3679 12.6774 21.395 12.3534 21.3298 12.042C21.2646 11.7306 21.1099 11.4458 20.8853 11.2237C20.6608 11.0016 20.3764 10.8521 20.0683 10.7941C19.7601 10.7361 19.4419 10.7723 19.1539 10.898C18.866 11.0237 18.6212 11.2333 18.4505 11.5004C18.2798 11.7674 18.1909 12.0798 18.1951 12.3982C18.2016 12.8248 18.3742 13.2315 18.6751 13.5292C18.976 13.8269 19.3808 13.9913 19.8009 13.9866ZM11.1751 13.9866C11.4885 13.9943 11.797 13.9073 12.0618 13.7368C12.3265 13.5662 12.5355 13.3198 12.6623 13.0286C12.7891 12.7374 12.8281 12.4145 12.7742 12.1008C12.7204 11.7871 12.5762 11.4967 12.3598 11.2662C12.1435 11.0358 11.8647 10.8757 11.5588 10.8063C11.2528 10.7368 10.9335 10.7611 10.6411 10.876C10.3488 10.9909 10.0965 11.1913 9.91632 11.4518C9.7361 11.7124 9.636 12.0214 9.62868 12.3397C9.61911 12.7663 9.77657 13.1793 10.0665 13.4881C10.3564 13.7969 10.7551 13.9762 11.1751 13.9866ZM15.5053 13.9866C15.8192 13.9868 16.1261 13.8923 16.3871 13.7151C16.648 13.5378 16.8513 13.2859 16.9711 12.9911C17.0908 12.6964 17.1218 12.3722 17.0599 12.0596C16.998 11.747 16.8462 11.4601 16.6236 11.2352C16.401 11.0104 16.1176 10.8578 15.8095 10.7968C15.5014 10.7358 15.1824 10.7691 14.893 10.8924C14.6035 11.0158 14.3567 11.2237 14.1837 11.4898C14.0107 11.7559 13.9195 12.0682 13.9215 12.387C13.9204 12.5982 13.9606 12.8075 14.04 13.0027C14.1193 13.1978 14.236 13.375 14.3835 13.5239C14.5309 13.6728 14.706 13.7904 14.8986 13.8698C15.0912 13.9493 15.2975 13.989 15.5053 13.9866Z" fill="white"/>
<path d="M18.3824 24.4271C18.3824 24.5812 18.3879 24.7056 18.3824 24.8347C18.3691 25.139 18.2431 25.427 18.0295 25.6409C17.8159 25.8547 17.5306 25.9786 17.2308 25.9877C16.0793 26.0038 14.9277 26.0038 13.7761 25.9877C13.4762 25.9787 13.1908 25.854 12.9781 25.639C12.7654 25.4239 12.6413 25.1347 12.6309 24.83C12.6182 24.5645 12.6191 24.2972 12.6309 24.0307C12.6403 23.7203 12.7671 23.4255 12.985 23.2076C13.2029 22.9898 13.4951 22.8656 13.8008 22.861C14.4278 22.8461 15.0547 22.8526 15.6817 22.8563C18.1356 22.874 20.2733 22.0069 22.1487 20.4425C23.432 19.3881 24.4255 18.015 25.0331 16.4561C25.2351 15.9372 25.3073 15.3644 25.4069 14.8092C25.5267 14.1268 25.5715 13.4287 25.7177 12.7519C25.9562 11.6471 25.7935 10.5749 25.4718 9.5351C24.1521 5.29151 21.3235 2.70785 17.0051 1.98001C11.3332 1.021 5.94089 5.24973 5.22619 11.0548C5.12292 11.896 5.31027 12.6897 5.42086 13.4983C5.61736 14.9308 5.84859 16.3577 6.05057 17.7893C6.17121 18.6406 5.91073 19.0444 5.09641 19.2895C4.46122 19.4808 3.81689 19.6516 3.1488 19.4845C2.25131 19.2617 1.60698 18.6814 1.13813 17.9146C-0.164239 15.7682 -0.360736 13.4872 0.60987 11.1765C1.15824 9.87674 2.16357 9.02821 3.63502 8.88803C3.72641 8.87874 3.84888 8.71813 3.88635 8.60951C4.47873 6.75171 5.49059 5.06036 6.84113 3.67057C13.2268 -2.89488 24.2499 -0.256443 27.0822 8.51204C27.1352 8.67543 27.1041 8.91402 27.4003 8.92702C29.0453 8.99757 30.0187 9.99 30.525 11.4605C31.3521 13.8576 31.1291 16.16 29.6312 18.2516C29.1066 18.9841 28.4001 19.5318 27.4697 19.5513C26.9597 19.5625 26.4424 19.3935 25.9343 19.2784C25.7369 19.2338 25.6272 19.2682 25.5093 19.4371C23.7893 21.9165 21.4877 23.5551 18.6045 24.3529C18.5396 24.3677 18.4765 24.3937 18.3824 24.4271Z" fill="white"/>
</g>
<defs>
<clipPath id="clip0_428_776">
<rect width="31" height="26" fill="white"/>
</clipPath>
</defs>
</svg>
